<svg width="778" height="301" viewBox="0 0 778 301" fill="none" xmlns="http://www.w3.org/2000/svg">
<rect width="778" height="301" fill="white"/>
<rect x="19.5" y="28.449" width="206" height="44.4709" rx="2" fill="#85B6FF" stroke="#6A92CC" stroke-width="4"/>
<path d="M105.294 48.4124H107.022V49.5644H107.07C107.209 49.3618 107.358 49.1751 107.518 49.0044C107.678 48.8338 107.854 48.6898 108.046 48.5724C108.249 48.4551 108.478 48.3644 108.734 48.3004C108.99 48.2258 109.284 48.1884 109.614 48.1884C110.116 48.1884 110.58 48.3004 111.006 48.5244C111.444 48.7484 111.753 49.0951 111.934 49.5644C112.244 49.1378 112.601 48.8018 113.006 48.5564C113.412 48.3111 113.918 48.1884 114.526 48.1884C115.401 48.1884 116.078 48.4018 116.558 48.8284C117.049 49.2551 117.294 49.9698 117.294 50.9724V56.6844H115.47V51.8524C115.47 51.5218 115.46 51.2231 115.438 50.9564C115.417 50.6791 115.353 50.4444 115.246 50.2524C115.15 50.0498 115.001 49.8951 114.798 49.7884C114.596 49.6818 114.318 49.6284 113.966 49.6284C113.348 49.6284 112.9 49.8204 112.622 50.2044C112.345 50.5884 112.206 51.1324 112.206 51.8364V56.6844H110.382V51.3724C110.382 50.7964 110.276 50.3644 110.062 50.0764C109.86 49.7778 109.481 49.6284 108.926 49.6284C108.692 49.6284 108.462 49.6764 108.238 49.7724C108.025 49.8684 107.833 50.0071 107.662 50.1884C107.502 50.3698 107.369 50.5938 107.262 50.8604C107.166 51.1271 107.118 51.4311 107.118 51.7724V56.6844H105.294V48.4124ZM125.968 54.8444C125.968 55.0684 125.995 55.2284 126.048 55.3244C126.112 55.4204 126.23 55.4684 126.4 55.4684C126.454 55.4684 126.518 55.4684 126.592 55.4684C126.667 55.4684 126.752 55.4578 126.848 55.4364V56.7004C126.784 56.7218 126.699 56.7431 126.592 56.7644C126.496 56.7964 126.395 56.8231 126.288 56.8444C126.182 56.8658 126.075 56.8818 125.968 56.8924C125.862 56.9031 125.771 56.9084 125.696 56.9084C125.323 56.9084 125.014 56.8338 124.768 56.6844C124.523 56.5351 124.363 56.2738 124.288 55.9004C123.926 56.2524 123.478 56.5084 122.944 56.6684C122.422 56.8284 121.915 56.9084 121.424 56.9084C121.051 56.9084 120.694 56.8551 120.352 56.7484C120.011 56.6524 119.707 56.5084 119.44 56.3164C119.184 56.1138 118.976 55.8631 118.816 55.5644C118.667 55.2551 118.592 54.8978 118.592 54.4924C118.592 53.9804 118.683 53.5644 118.864 53.2444C119.056 52.9244 119.302 52.6738 119.6 52.4924C119.91 52.3111 120.251 52.1831 120.624 52.1084C121.008 52.0231 121.392 51.9591 121.776 51.9164C122.107 51.8524 122.422 51.8098 122.72 51.7884C123.019 51.7564 123.28 51.7084 123.504 51.6444C123.739 51.5804 123.92 51.4844 124.048 51.3564C124.187 51.2178 124.256 51.0151 124.256 50.7484C124.256 50.5138 124.198 50.3218 124.08 50.1724C123.974 50.0231 123.835 49.9111 123.664 49.8364C123.504 49.7511 123.323 49.6978 123.12 49.6764C122.918 49.6444 122.726 49.6284 122.544 49.6284C122.032 49.6284 121.611 49.7351 121.28 49.9484C120.95 50.1618 120.763 50.4924 120.72 50.9404H118.896C118.928 50.4071 119.056 49.9644 119.28 49.6124C119.504 49.2604 119.787 48.9778 120.128 48.7644C120.48 48.5511 120.875 48.4018 121.312 48.3164C121.75 48.2311 122.198 48.1884 122.656 48.1884C123.062 48.1884 123.462 48.2311 123.856 48.3164C124.251 48.4018 124.603 48.5404 124.912 48.7324C125.232 48.9244 125.488 49.1751 125.68 49.4844C125.872 49.7831 125.968 50.1511 125.968 50.5884V54.8444ZM124.144 52.5404C123.867 52.7218 123.526 52.8338 123.12 52.8764C122.715 52.9084 122.31 52.9618 121.904 53.0364C121.712 53.0684 121.526 53.1164 121.344 53.1804C121.163 53.2338 121.003 53.3138 120.864 53.4204C120.726 53.5164 120.614 53.6498 120.528 53.8204C120.454 53.9804 120.416 54.1778 120.416 54.4124C120.416 54.6151 120.475 54.7858 120.592 54.9244C120.71 55.0631 120.848 55.1751 121.008 55.2604C121.179 55.3351 121.36 55.3884 121.552 55.4204C121.755 55.4524 121.936 55.4684 122.096 55.4684C122.299 55.4684 122.518 55.4418 122.752 55.3884C122.987 55.3351 123.206 55.2444 123.408 55.1164C123.622 54.9884 123.798 54.8284 123.936 54.6364C124.075 54.4338 124.144 54.1884 124.144 53.9004V52.5404ZM127.803 45.2604H129.627V46.9884H127.803V45.2604ZM127.803 48.4124H129.627V56.6844H127.803V48.4124ZM131.438 48.4124H133.166V49.6284L133.198 49.6604C133.476 49.2018 133.838 48.8444 134.286 48.5884C134.734 48.3218 135.23 48.1884 135.774 48.1884C136.681 48.1884 137.396 48.4231 137.918 48.8924C138.441 49.3618 138.702 50.0658 138.702 51.0044V56.6844H136.878V51.4844C136.857 50.8338 136.718 50.3644 136.462 50.0764C136.206 49.7778 135.806 49.6284 135.262 49.6284C134.953 49.6284 134.676 49.6871 134.43 49.8044C134.185 49.9111 133.977 50.0658 133.806 50.2684C133.636 50.4604 133.502 50.6898 133.406 50.9564C133.31 51.2231 133.262 51.5058 133.262 51.8044V56.6844H131.438V48.4124Z" fill="black"/>
<rect x="19.5" y="122.765" width="206" height="44.4709" rx="2" fill="#FF9A62" stroke="#CC7B4E" stroke-width="4"/>
<path d="M91.9946 149.16C91.9946 149.384 92.0212 149.544 92.0746 149.64C92.1386 149.736 92.2559 149.784 92.4266 149.784C92.4799 149.784 92.5439 149.784 92.6186 149.784C92.6932 149.784 92.7786 149.773 92.8746 149.752V151.016C92.8106 151.037 92.7252 151.059 92.6186 151.08C92.5226 151.112 92.4212 151.139 92.3146 151.16C92.2079 151.181 92.1012 151.197 91.9946 151.208C91.8879 151.219 91.7972 151.224 91.7226 151.224C91.3492 151.224 91.0399 151.149 90.7946 151C90.5492 150.851 90.3892 150.589 90.3146 150.216C89.9519 150.568 89.5039 150.824 88.9706 150.984C88.4479 151.144 87.9412 151.224 87.4506 151.224C87.0772 151.224 86.7199 151.171 86.3786 151.064C86.0372 150.968 85.7332 150.824 85.4666 150.632C85.2106 150.429 85.0026 150.179 84.8426 149.88C84.6932 149.571 84.6186 149.213 84.6186 148.808C84.6186 148.296 84.7092 147.88 84.8906 147.56C85.0826 147.24 85.3279 146.989 85.6266 146.808C85.9359 146.627 86.2772 146.499 86.6506 146.424C87.0346 146.339 87.4186 146.275 87.8026 146.232C88.1332 146.168 88.4479 146.125 88.7466 146.104C89.0452 146.072 89.3066 146.024 89.5306 145.96C89.7652 145.896 89.9466 145.8 90.0746 145.672C90.2132 145.533 90.2826 145.331 90.2826 145.064C90.2826 144.829 90.2239 144.637 90.1066 144.488C89.9999 144.339 89.8612 144.227 89.6906 144.152C89.5306 144.067 89.3492 144.013 89.1466 143.992C88.9439 143.96 88.7519 143.944 88.5706 143.944C88.0586 143.944 87.6372 144.051 87.3066 144.264C86.9759 144.477 86.7892 144.808 86.7466 145.256H84.9226C84.9546 144.723 85.0826 144.28 85.3066 143.928C85.5306 143.576 85.8132 143.293 86.1546 143.08C86.5066 142.867 86.9012 142.717 87.3386 142.632C87.7759 142.547 88.2239 142.504 88.6826 142.504C89.0879 142.504 89.4879 142.547 89.8826 142.632C90.2772 142.717 90.6292 142.856 90.9386 143.048C91.2586 143.24 91.5146 143.491 91.7066 143.8C91.8986 144.099 91.9946 144.467 91.9946 144.904V149.16ZM90.1706 146.856C89.8932 147.037 89.5519 147.149 89.1466 147.192C88.7412 147.224 88.3359 147.277 87.9306 147.352C87.7386 147.384 87.5519 147.432 87.3706 147.496C87.1892 147.549 87.0292 147.629 86.8906 147.736C86.7519 147.832 86.6399 147.965 86.5546 148.136C86.4799 148.296 86.4426 148.493 86.4426 148.728C86.4426 148.931 86.5012 149.101 86.6186 149.24C86.7359 149.379 86.8746 149.491 87.0346 149.576C87.2052 149.651 87.3866 149.704 87.5786 149.736C87.7812 149.768 87.9626 149.784 88.1226 149.784C88.3252 149.784 88.5439 149.757 88.7786 149.704C89.0132 149.651 89.2319 149.56 89.4346 149.432C89.6479 149.304 89.8239 149.144 89.9626 148.952C90.1012 148.749 90.1706 148.504 90.1706 148.216V146.856ZM101.573 151H99.8452V149.88H99.8132C99.5679 150.36 99.2105 150.707 98.7412 150.92C98.2719 151.123 97.7759 151.224 97.2532 151.224C96.6025 151.224 96.0319 151.112 95.5412 150.888C95.0612 150.653 94.6612 150.339 94.3412 149.944C94.0212 149.549 93.7812 149.085 93.6212 148.552C93.4612 148.008 93.3812 147.427 93.3812 146.808C93.3812 146.061 93.4825 145.416 93.6852 144.872C93.8879 144.328 94.1545 143.88 94.4852 143.528C94.8265 143.176 95.2105 142.92 95.6372 142.76C96.0745 142.589 96.5172 142.504 96.9652 142.504C97.2212 142.504 97.4825 142.531 97.7492 142.584C98.0159 142.627 98.2719 142.701 98.5172 142.808C98.7625 142.915 98.9865 143.053 99.1892 143.224C99.4025 143.384 99.5785 143.576 99.7172 143.8H99.7492V139.576H101.573V151ZM95.2052 146.952C95.2052 147.304 95.2479 147.651 95.3332 147.992C95.4292 148.333 95.5679 148.637 95.7492 148.904C95.9412 149.171 96.1812 149.384 96.4692 149.544C96.7572 149.704 97.0985 149.784 97.4932 149.784C97.8985 149.784 98.2452 149.699 98.5332 149.528C98.8319 149.357 99.0719 149.133 99.2532 148.856C99.4452 148.579 99.5839 148.269 99.6692 147.928C99.7652 147.576 99.8132 147.219 99.8132 146.856C99.8132 145.939 99.6052 145.224 99.1892 144.712C98.7839 144.2 98.2292 143.944 97.5252 143.944C97.0985 143.944 96.7359 144.035 96.4372 144.216C96.1492 144.387 95.9092 144.616 95.7172 144.904C95.5359 145.181 95.4025 145.501 95.3172 145.864C95.2425 146.216 95.2052 146.579 95.2052 146.952ZM111.178 151H109.45V149.88H109.418C109.173 150.36 108.816 150.707 108.346 150.92C107.877 151.123 107.381 151.224 106.858 151.224C106.208 151.224 105.637 151.112 105.146 150.888C104.666 150.653 104.266 150.339 103.946 149.944C103.626 149.549 103.386 149.085 103.226 148.552C103.066 148.008 102.986 147.427 102.986 146.808C102.986 146.061 103.088 145.416 103.29 144.872C103.493 144.328 103.76 143.88 104.09 143.528C104.432 143.176 104.816 142.92 105.242 142.76C105.68 142.589 106.122 142.504 106.57 142.504C106.826 142.504 107.088 142.531 107.354 142.584C107.621 142.627 107.877 142.701 108.122 142.808C108.368 142.915 108.592 143.053 108.794 143.224C109.008 143.384 109.184 143.576 109.322 143.8H109.354V139.576H111.178V151ZM104.81 146.952C104.81 147.304 104.853 147.651 104.938 147.992C105.034 148.333 105.173 148.637 105.354 148.904C105.546 149.171 105.786 149.384 106.074 149.544C106.362 149.704 106.704 149.784 107.098 149.784C107.504 149.784 107.85 149.699 108.138 149.528C108.437 149.357 108.677 149.133 108.858 148.856C109.05 148.579 109.189 148.269 109.274 147.928C109.37 147.576 109.418 147.219 109.418 146.856C109.418 145.939 109.21 145.224 108.794 144.712C108.389 144.2 107.834 143.944 107.13 143.944C106.704 143.944 106.341 144.035 106.042 144.216C105.754 144.387 105.514 144.616 105.322 144.904C105.141 145.181 105.008 145.501 104.922 145.864C104.848 146.216 104.81 146.579 104.81 146.952ZM112.816 145.784H117.472V147.512H112.816V145.784ZM119.082 139.576H120.906V141.304H119.082V139.576ZM119.082 142.728H120.906V151H119.082V142.728ZM121.886 142.728H123.262V140.248H125.086V142.728H126.734V144.088H125.086V148.504C125.086 148.696 125.091 148.861 125.102 149C125.123 149.139 125.16 149.256 125.214 149.352C125.278 149.448 125.368 149.523 125.486 149.576C125.603 149.619 125.763 149.64 125.966 149.64C126.094 149.64 126.222 149.64 126.35 149.64C126.478 149.629 126.606 149.608 126.734 149.576V150.984C126.531 151.005 126.334 151.027 126.142 151.048C125.95 151.069 125.752 151.08 125.55 151.08C125.07 151.08 124.68 151.037 124.382 150.952C124.094 150.856 123.864 150.723 123.694 150.552C123.534 150.371 123.422 150.147 123.358 149.88C123.304 149.613 123.272 149.309 123.262 148.968V144.088H121.886V142.728ZM134.798 149.16C134.798 149.384 134.825 149.544 134.878 149.64C134.942 149.736 135.059 149.784 135.23 149.784C135.283 149.784 135.347 149.784 135.422 149.784C135.497 149.784 135.582 149.773 135.678 149.752V151.016C135.614 151.037 135.529 151.059 135.422 151.08C135.326 151.112 135.225 151.139 135.118 151.16C135.011 151.181 134.905 151.197 134.798 151.208C134.691 151.219 134.601 151.224 134.526 151.224C134.153 151.224 133.843 151.149 133.598 151C133.353 150.851 133.193 150.589 133.118 150.216C132.755 150.568 132.307 150.824 131.774 150.984C131.251 151.144 130.745 151.224 130.254 151.224C129.881 151.224 129.523 151.171 129.182 151.064C128.841 150.968 128.537 150.824 128.27 150.632C128.014 150.429 127.806 150.179 127.646 149.88C127.497 149.571 127.422 149.213 127.422 148.808C127.422 148.296 127.513 147.88 127.694 147.56C127.886 147.24 128.131 146.989 128.43 146.808C128.739 146.627 129.081 146.499 129.454 146.424C129.838 146.339 130.222 146.275 130.606 146.232C130.937 146.168 131.251 146.125 131.55 146.104C131.849 146.072 132.11 146.024 132.334 145.96C132.569 145.896 132.75 145.8 132.878 145.672C133.017 145.533 133.086 145.331 133.086 145.064C133.086 144.829 133.027 144.637 132.91 144.488C132.803 144.339 132.665 144.227 132.494 144.152C132.334 144.067 132.153 144.013 131.95 143.992C131.747 143.96 131.555 143.944 131.374 143.944C130.862 143.944 130.441 144.051 130.11 144.264C129.779 144.477 129.593 144.808 129.55 145.256H127.726C127.758 144.723 127.886 144.28 128.11 143.928C128.334 143.576 128.617 143.293 128.958 143.08C129.31 142.867 129.705 142.717 130.142 142.632C130.579 142.547 131.027 142.504 131.486 142.504C131.891 142.504 132.291 142.547 132.686 142.632C133.081 142.717 133.433 142.856 133.742 143.048C134.062 143.24 134.318 143.491 134.51 143.8C134.702 144.099 134.798 144.467 134.798 144.904V149.16ZM132.974 146.856C132.697 147.037 132.355 147.149 131.95 147.192C131.545 147.224 131.139 147.277 130.734 147.352C130.542 147.384 130.355 147.432 130.174 147.496C129.993 147.549 129.833 147.629 129.694 147.736C129.555 147.832 129.443 147.965 129.358 148.136C129.283 148.296 129.246 148.493 129.246 148.728C129.246 148.931 129.305 149.101 129.422 149.24C129.539 149.379 129.678 149.491 129.838 149.576C130.009 149.651 130.19 149.704 130.382 149.736C130.585 149.768 130.766 149.784 130.926 149.784C131.129 149.784 131.347 149.757 131.582 149.704C131.817 149.651 132.035 149.56 132.238 149.432C132.451 149.304 132.627 149.144 132.766 148.952C132.905 148.749 132.974 148.504 132.974 148.216V146.856ZM136.633 139.576H138.457V151H136.633V139.576ZM140.316 139.576H142.14V141.304H140.316V139.576ZM140.316 142.728H142.14V151H140.316V142.728ZM150.879 149.16C150.879 149.384 150.906 149.544 150.959 149.64C151.023 149.736 151.141 149.784 151.311 149.784C151.365 149.784 151.429 149.784 151.503 149.784C151.578 149.784 151.663 149.773 151.759 149.752V151.016C151.695 151.037 151.61 151.059 151.503 151.08C151.407 151.112 151.306 151.139 151.199 151.16C151.093 151.181 150.986 151.197 150.879 151.208C150.773 151.219 150.682 151.224 150.607 151.224C150.234 151.224 149.925 151.149 149.679 151C149.434 150.851 149.274 150.589 149.199 150.216C148.837 150.568 148.389 150.824 147.855 150.984C147.333 151.144 146.826 151.224 146.335 151.224C145.962 151.224 145.605 151.171 145.263 151.064C144.922 150.968 144.618 150.824 144.351 150.632C144.095 150.429 143.887 150.179 143.727 149.88C143.578 149.571 143.503 149.213 143.503 148.808C143.503 148.296 143.594 147.88 143.775 147.56C143.967 147.24 144.213 146.989 144.511 146.808C144.821 146.627 145.162 146.499 145.535 146.424C145.919 146.339 146.303 146.275 146.687 146.232C147.018 146.168 147.333 146.125 147.631 146.104C147.93 146.072 148.191 146.024 148.415 145.96C148.65 145.896 148.831 145.8 148.959 145.672C149.098 145.533 149.167 145.331 149.167 145.064C149.167 144.829 149.109 144.637 148.991 144.488C148.885 144.339 148.746 144.227 148.575 144.152C148.415 144.067 148.234 144.013 148.031 143.992C147.829 143.96 147.637 143.944 147.455 143.944C146.943 143.944 146.522 144.051 146.191 144.264C145.861 144.477 145.674 144.808 145.631 145.256H143.807C143.839 144.723 143.967 144.28 144.191 143.928C144.415 143.576 144.698 143.293 145.039 143.08C145.391 142.867 145.786 142.717 146.223 142.632C146.661 142.547 147.109 142.504 147.567 142.504C147.973 142.504 148.373 142.547 148.767 142.632C149.162 142.717 149.514 142.856 149.823 143.048C150.143 143.24 150.399 143.491 150.591 143.8C150.783 144.099 150.879 144.467 150.879 144.904V149.16ZM149.055 146.856C148.778 147.037 148.437 147.149 148.031 147.192C147.626 147.224 147.221 147.277 146.815 147.352C146.623 147.384 146.437 147.432 146.255 147.496C146.074 147.549 145.914 147.629 145.775 147.736C145.637 147.832 145.525 147.965 145.439 148.136C145.365 148.296 145.327 148.493 145.327 148.728C145.327 148.931 145.386 149.101 145.503 149.24C145.621 149.379 145.759 149.491 145.919 149.576C146.09 149.651 146.271 149.704 146.463 149.736C146.666 149.768 146.847 149.784 147.007 149.784C147.21 149.784 147.429 149.757 147.663 149.704C147.898 149.651 148.117 149.56 148.319 149.432C148.533 149.304 148.709 149.144 148.847 148.952C148.986 148.749 149.055 148.504 149.055 148.216V146.856ZM152.666 142.728H154.394V143.944L154.426 143.976C154.703 143.517 155.066 143.16 155.514 142.904C155.962 142.637 156.458 142.504 157.002 142.504C157.909 142.504 158.623 142.739 159.146 143.208C159.669 143.677 159.93 144.381 159.93 145.32V151H158.106V145.8C158.085 145.149 157.946 144.68 157.69 144.392C157.434 144.093 157.034 143.944 156.49 143.944C156.181 143.944 155.903 144.003 155.658 144.12C155.413 144.227 155.205 144.381 155.034 144.584C154.863 144.776 154.73 145.005 154.634 145.272C154.538 145.539 154.49 145.821 154.49 146.12V151H152.666V142.728Z" fill="black"/>
<circle cx="286" cy="49" r="16" fill="#85B6FF"/>
<circle cx="286" cy="49" r="14" stroke="black" stroke-opacity="0.2" stroke-width="4"/>
<circle cx="494" cy="145" r="16" fill="#FF9A62"/>
<circle cx="494" cy="145" r="14" stroke="black" stroke-opacity="0.2" stroke-width="4"/>
<circle cx="602" cy="49" r="16" fill="#FF9A62"/>
<circle cx="602" cy="49" r="14" stroke="black" stroke-opacity="0.2" stroke-width="4"/>
<path d="M306 47.5C305.172 47.5 304.5 48.1716 304.5 49C304.5 49.8284 305.172 50.5 306 50.5V47.5ZM474 146.5C474.828 146.5 475.5 145.828 475.5 145C475.5 144.172 474.828 143.5 474 143.5V146.5ZM306 50.5H398V47.5H306V50.5ZM420.5 73V121H423.5V73H420.5ZM446 146.5H474V143.5H446V146.5ZM420.5 121C420.5 135.083 431.917 146.5 446 146.5V143.5C433.574 143.5 423.5 133.426 423.5 121H420.5ZM398 50.5C410.426 50.5 420.5 60.5736 420.5 73H423.5C423.5 58.9167 412.083 47.5 398 47.5V50.5Z" fill="#CECCCC"/>
<path d="M514 143.5C513.172 143.5 512.5 144.172 512.5 145C512.5 145.828 513.172 146.5 514 146.5V143.5ZM514 146.5H542V143.5H514V146.5ZM567.5 121V65H564.5V121H567.5ZM567.5 65C567.5 56.9919 573.992 50.5 582 50.5V47.5C572.335 47.5 564.5 55.335 564.5 65H567.5ZM542 146.5C556.083 146.5 567.5 135.083 567.5 121H564.5C564.5 133.426 554.426 143.5 542 143.5V146.5Z" fill="#CECCCC"/>
<path d="M582 50.5C582.828 50.5 583.5 49.8284 583.5 49C583.5 48.1716 582.828 47.5 582 47.5V50.5ZM306 47.5C305.172 47.5 304.5 48.1716 304.5 49C304.5 49.8284 305.172 50.5 306 50.5V47.5ZM582 47.5H306V50.5H582V47.5Z" fill="#CECCCC"/>
<circle cx="422" cy="241" r="16" fill="#FFD233"/>
<circle cx="422" cy="241" r="14" stroke="black" stroke-opacity="0.2" stroke-width="4"/>
<path d="M402 242.5C402.828 242.5 403.5 241.828 403.5 241C403.5 240.172 402.828 239.5 402 239.5V242.5ZM306 47.5C305.172 47.5 304.5 48.1716 304.5 49C304.5 49.8284 305.172 50.5 306 50.5V47.5ZM402 239.5H378V242.5H402V239.5ZM355.5 217V73H352.5V217H355.5ZM330 47.5H306V50.5H330V47.5ZM355.5 73C355.5 58.9167 344.083 47.5 330 47.5V50.5C342.426 50.5 352.5 60.5736 352.5 73H355.5ZM378 239.5C365.574 239.5 355.5 229.426 355.5 217H352.5C352.5 231.083 363.917 242.5 378 242.5V239.5Z" fill="#CECCCC"/>
<circle cx="698" cy="49" r="16" fill="#FFD233"/>
<circle cx="698" cy="49" r="14" stroke="black" stroke-opacity="0.2" stroke-width="4"/>
<path d="M622 47.5C621.172 47.5 620.5 48.1716 620.5 49C620.5 49.8284 621.172 50.5 622 50.5V47.5ZM678 50.5C678.828 50.5 679.5 49.8284 679.5 49C679.5 48.1716 678.828 47.5 678 47.5V50.5ZM622 50.5H678V47.5H622V50.5Z" fill="#CECCCC"/>
<path d="M442 239.5C441.172 239.5 440.5 240.172 440.5 241C440.5 241.828 441.172 242.5 442 242.5V239.5ZM678 50.5C678.828 50.5 679.5 49.8284 679.5 49C679.5 48.1716 678.828 47.5 678 47.5V50.5ZM442 242.5H626V239.5H442V242.5ZM651.5 217V73H648.5V217H651.5ZM674 50.5H678V47.5H674V50.5ZM651.5 73C651.5 60.5736 661.574 50.5 674 50.5V47.5C659.917 47.5 648.5 58.9167 648.5 73H651.5ZM626 242.5C640.083 242.5 651.5 231.083 651.5 217H648.5C648.5 229.426 638.426 239.5 626 239.5V242.5Z" fill="#CECCCC"/>
<path d="M718 47.5C717.172 47.5 716.5 48.1716 716.5 49C716.5 49.8284 717.172 50.5 718 50.5V47.5ZM759.061 50.0607C759.646 49.4749 759.646 48.5251 759.061 47.9393L749.515 38.3934C748.929 37.8076 747.979 37.8076 747.393 38.3934C746.808 38.9792 746.808 39.9289 747.393 40.5147L755.879 49L747.393 57.4853C746.808 58.0711 746.808 59.0208 747.393 59.6066C747.979 60.1924 748.929 60.1924 749.515 59.6066L759.061 50.0607ZM718 50.5H758V47.5H718V50.5Z" fill="#CECCCC"/>
<path fill-rule="evenodd" clip-rule="evenodd" d="M599 43.9384V43.9344V43.9394C598.999 44.1381 598.92 44.3284 598.779 44.4686C598.638 44.6087 598.447 44.6872 598.249 44.6869C598.05 44.6866 597.86 44.6074 597.719 44.4668C597.579 44.3262 597.5 44.1356 597.5 43.9369C597.5 43.7382 597.579 43.5476 597.719 43.407C597.86 43.2664 598.05 43.1872 598.249 43.1869C598.447 43.1866 598.638 43.2651 598.779 43.4053C598.92 43.5454 598.999 43.7357 599 43.9344V43.9384ZM599.45 45.8384C599.881 45.5668 600.207 45.1571 600.374 44.6763C600.542 44.1954 600.542 43.6719 600.374 43.1913C600.205 42.7107 599.879 42.3014 599.448 42.0303C599.016 41.7592 598.506 41.6425 598 41.699C597.494 41.7556 597.022 41.9822 596.661 42.3418C596.301 42.7014 596.073 43.1726 596.015 43.6786C595.957 44.1845 596.072 44.6952 596.342 45.1271C596.612 45.559 597.02 45.8867 597.5 46.0564V51.3124C597 51.4893 596.578 51.8375 596.309 52.2953C596.041 52.7531 595.943 53.2911 596.032 53.8142C596.122 54.3373 596.394 54.8119 596.8 55.154C597.206 55.4961 597.719 55.6837 598.25 55.6837C598.781 55.6837 599.294 55.4961 599.7 55.154C600.106 54.8119 600.378 54.3373 600.468 53.8142C600.557 53.2911 600.459 52.7531 600.191 52.2953C599.922 51.8375 599.5 51.4893 599 51.3124V47.8074C599.538 48.3995 600.194 48.8723 600.926 49.1956C601.658 49.5188 602.45 49.6853 603.25 49.6844H604.628C604.805 50.1851 605.153 50.6071 605.611 50.8759C606.069 51.1446 606.607 51.2428 607.131 51.153C607.654 51.0633 608.129 50.7914 608.471 50.3854C608.814 49.9794 609.001 49.4654 609.001 48.9344C609.001 48.4034 608.814 47.8895 608.471 47.4835C608.129 47.0775 607.654 46.8056 607.131 46.7158C606.607 46.626 606.069 46.7242 605.611 46.993C605.153 47.2617 604.805 47.6837 604.628 48.1844H603.25C602.461 48.1845 601.688 47.9651 601.017 47.5508C600.346 47.1364 599.803 46.5435 599.45 45.8384V45.8384ZM606.75 49.6844C606.949 49.6844 607.14 49.6054 607.28 49.4647C607.421 49.3241 607.5 49.1333 607.5 48.9344C607.5 48.7355 607.421 48.5447 607.28 48.4041C607.14 48.2634 606.949 48.1844 606.75 48.1844C606.551 48.1844 606.36 48.2634 606.22 48.4041C606.079 48.5447 606 48.7355 606 48.9344C606 49.1333 606.079 49.3241 606.22 49.4647C606.36 49.6054 606.551 49.6844 606.75 49.6844ZM598.25 54.1844C598.449 54.1844 598.64 54.1054 598.78 53.9647C598.921 53.8241 599 53.6333 599 53.4344C599 53.2355 598.921 53.0447 598.78 52.9041C598.64 52.7634 598.449 52.6844 598.25 52.6844C598.051 52.6844 597.86 52.7634 597.72 52.9041C597.579 53.0447 597.5 53.2355 597.5 53.4344C597.5 53.6333 597.579 53.8241 597.72 53.9647C597.86 54.1054 598.051 54.1844 598.25 54.1844Z" fill="black"/>
<path fill-rule="evenodd" clip-rule="evenodd" d="M696 43.9384V43.9344V43.9394C695.999 44.1381 695.92 44.3284 695.779 44.4686C695.638 44.6087 695.447 44.6872 695.249 44.6869C695.05 44.6866 694.86 44.6074 694.719 44.4668C694.579 44.3262 694.5 44.1356 694.5 43.9369C694.5 43.7382 694.579 43.5476 694.719 43.407C694.86 43.2664 695.05 43.1872 695.249 43.1869C695.447 43.1866 695.638 43.2651 695.779 43.4053C695.92 43.5454 695.999 43.7357 696 43.9344V43.9384ZM696.45 45.8384C696.881 45.5668 697.207 45.1571 697.374 44.6763C697.542 44.1954 697.542 43.6719 697.374 43.1913C697.205 42.7107 696.879 42.3014 696.448 42.0303C696.016 41.7592 695.506 41.6425 695 41.699C694.494 41.7556 694.022 41.9822 693.661 42.3418C693.301 42.7014 693.073 43.1726 693.015 43.6786C692.957 44.1845 693.072 44.6952 693.342 45.1271C693.612 45.559 694.02 45.8867 694.5 46.0564V51.3124C694 51.4893 693.578 51.8375 693.309 52.2953C693.041 52.7531 692.943 53.2911 693.032 53.8142C693.122 54.3373 693.394 54.8119 693.8 55.154C694.206 55.4961 694.719 55.6837 695.25 55.6837C695.781 55.6837 696.294 55.4961 696.7 55.154C697.106 54.8119 697.378 54.3373 697.468 53.8142C697.557 53.2911 697.459 52.7531 697.191 52.2953C696.922 51.8375 696.5 51.4893 696 51.3124V47.8074C696.538 48.3995 697.194 48.8723 697.926 49.1956C698.658 49.5188 699.45 49.6853 700.25 49.6844H701.628C701.805 50.1851 702.153 50.6071 702.611 50.8759C703.069 51.1446 703.607 51.2428 704.131 51.153C704.654 51.0633 705.129 50.7914 705.471 50.3854C705.814 49.9794 706.001 49.4654 706.001 48.9344C706.001 48.4034 705.814 47.8895 705.471 47.4835C705.129 47.0775 704.654 46.8056 704.131 46.7158C703.607 46.626 703.069 46.7242 702.611 46.993C702.153 47.2617 701.805 47.6837 701.628 48.1844H700.25C699.461 48.1845 698.688 47.9651 698.017 47.5508C697.346 47.1364 696.803 46.5435 696.45 45.8384V45.8384ZM703.75 49.6844C703.949 49.6844 704.14 49.6054 704.28 49.4647C704.421 49.3241 704.5 49.1333 704.5 48.9344C704.5 48.7355 704.421 48.5447 704.28 48.4041C704.14 48.2634 703.949 48.1844 703.75 48.1844C703.551 48.1844 703.36 48.2634 703.22 48.4041C703.079 48.5447 703 48.7355 703 48.9344C703 49.1333 703.079 49.3241 703.22 49.4647C703.36 49.6054 703.551 49.6844 703.75 49.6844ZM695.25 54.1844C695.449 54.1844 695.64 54.1054 695.78 53.9647C695.921 53.8241 696 53.6333 696 53.4344C696 53.2355 695.921 53.0447 695.78 52.9041C695.64 52.7634 695.449 52.6844 695.25 52.6844C695.051 52.6844 694.86 52.7634 694.72 52.9041C694.579 53.0447 694.5 53.2355 694.5 53.4344C694.5 53.6333 694.579 53.8241 694.72 53.9647C694.86 54.1054 695.051 54.1844 695.25 54.1844Z" fill="black"/>
<rect x="19.5" y="218.765" width="206" height="44.4709" rx="2" fill="#FFD233" stroke="#CCA829" stroke-width="4"/>
<path d="M87.2602 245.16C87.2602 245.384 87.2869 245.544 87.3402 245.64C87.4042 245.736 87.5215 245.784 87.6922 245.784C87.7455 245.784 87.8095 245.784 87.8842 245.784C87.9589 245.784 88.0442 245.773 88.1402 245.752V247.016C88.0762 247.037 87.9909 247.059 87.8842 247.08C87.7882 247.112 87.6869 247.139 87.5802 247.16C87.4735 247.181 87.3669 247.197 87.2602 247.208C87.1535 247.219 87.0629 247.224 86.9882 247.224C86.6149 247.224 86.3055 247.149 86.0602 247C85.8149 246.851 85.6549 246.589 85.5802 246.216C85.2175 246.568 84.7695 246.824 84.2362 246.984C83.7135 247.144 83.2069 247.224 82.7162 247.224C82.3429 247.224 81.9855 247.171 81.6442 247.064C81.3029 246.968 80.9989 246.824 80.7322 246.632C80.4762 246.429 80.2682 246.179 80.1082 245.88C79.9589 245.571 79.8842 245.213 79.8842 244.808C79.8842 244.296 79.9749 243.88 80.1562 243.56C80.3482 243.24 80.5935 242.989 80.8922 242.808C81.2015 242.627 81.5429 242.499 81.9162 242.424C82.3002 242.339 82.6842 242.275 83.0682 242.232C83.3989 242.168 83.7135 242.125 84.0122 242.104C84.3109 242.072 84.5722 242.024 84.7962 241.96C85.0309 241.896 85.2122 241.8 85.3402 241.672C85.4789 241.533 85.5482 241.331 85.5482 241.064C85.5482 240.829 85.4895 240.637 85.3722 240.488C85.2655 240.339 85.1269 240.227 84.9562 240.152C84.7962 240.067 84.6149 240.013 84.4122 239.992C84.2095 239.96 84.0175 239.944 83.8362 239.944C83.3242 239.944 82.9029 240.051 82.5722 240.264C82.2415 240.477 82.0549 240.808 82.0122 241.256H80.1882C80.2202 240.723 80.3482 240.28 80.5722 239.928C80.7962 239.576 81.0789 239.293 81.4202 239.08C81.7722 238.867 82.1669 238.717 82.6042 238.632C83.0415 238.547 83.4895 238.504 83.9482 238.504C84.3535 238.504 84.7535 238.547 85.1482 238.632C85.5429 238.717 85.8949 238.856 86.2042 239.048C86.5242 239.24 86.7802 239.491 86.9722 239.8C87.1642 240.099 87.2602 240.467 87.2602 240.904V245.16ZM85.4362 242.856C85.1589 243.037 84.8175 243.149 84.4122 243.192C84.0069 243.224 83.6015 243.277 83.1962 243.352C83.0042 243.384 82.8175 243.432 82.6362 243.496C82.4549 243.549 82.2949 243.629 82.1562 243.736C82.0175 243.832 81.9055 243.965 81.8202 244.136C81.7455 244.296 81.7082 244.493 81.7082 244.728C81.7082 244.931 81.7669 245.101 81.8842 245.24C82.0015 245.379 82.1402 245.491 82.3002 245.576C82.4709 245.651 82.6522 245.704 82.8442 245.736C83.0469 245.768 83.2282 245.784 83.3882 245.784C83.5909 245.784 83.8095 245.757 84.0442 245.704C84.2789 245.651 84.4975 245.56 84.7002 245.432C84.9135 245.304 85.0895 245.144 85.2282 244.952C85.3669 244.749 85.4362 244.504 85.4362 244.216V242.856ZM96.8388 247H95.1108V245.88H95.0788C94.8335 246.36 94.4761 246.707 94.0068 246.92C93.5375 247.123 93.0415 247.224 92.5188 247.224C91.8681 247.224 91.2975 247.112 90.8068 246.888C90.3268 246.653 89.9268 246.339 89.6068 245.944C89.2868 245.549 89.0468 245.085 88.8868 244.552C88.7268 244.008 88.6468 243.427 88.6468 242.808C88.6468 242.061 88.7481 241.416 88.9508 240.872C89.1535 240.328 89.4201 239.88 89.7508 239.528C90.0921 239.176 90.4761 238.92 90.9028 238.76C91.3401 238.589 91.7828 238.504 92.2308 238.504C92.4868 238.504 92.7481 238.531 93.0148 238.584C93.2815 238.627 93.5375 238.701 93.7828 238.808C94.0281 238.915 94.2521 239.053 94.4548 239.224C94.6681 239.384 94.8441 239.576 94.9828 239.8H95.0148V235.576H96.8388V247ZM90.4708 242.952C90.4708 243.304 90.5135 243.651 90.5988 243.992C90.6948 244.333 90.8335 244.637 91.0148 244.904C91.2068 245.171 91.4468 245.384 91.7348 245.544C92.0228 245.704 92.3641 245.784 92.7588 245.784C93.1641 245.784 93.5108 245.699 93.7988 245.528C94.0975 245.357 94.3375 245.133 94.5188 244.856C94.7108 244.579 94.8495 244.269 94.9348 243.928C95.0308 243.576 95.0788 243.219 95.0788 242.856C95.0788 241.939 94.8708 241.224 94.4548 240.712C94.0495 240.2 93.4948 239.944 92.7908 239.944C92.3641 239.944 92.0015 240.035 91.7028 240.216C91.4148 240.387 91.1748 240.616 90.9828 240.904C90.8015 241.181 90.6681 241.501 90.5828 241.864C90.5081 242.216 90.4708 242.579 90.4708 242.952ZM106.444 247H104.716V245.88H104.684C104.439 246.36 104.081 246.707 103.612 246.92C103.143 247.123 102.647 247.224 102.124 247.224C101.473 247.224 100.903 247.112 100.412 246.888C99.9321 246.653 99.5321 246.339 99.2121 245.944C98.8921 245.549 98.6521 245.085 98.4921 244.552C98.3321 244.008 98.2521 243.427 98.2521 242.808C98.2521 242.061 98.3534 241.416 98.5561 240.872C98.7587 240.328 99.0254 239.88 99.3561 239.528C99.6974 239.176 100.081 238.92 100.508 238.76C100.945 238.589 101.388 238.504 101.836 238.504C102.092 238.504 102.353 238.531 102.62 238.584C102.887 238.627 103.143 238.701 103.388 238.808C103.633 238.915 103.857 239.053 104.06 239.224C104.273 239.384 104.449 239.576 104.588 239.8H104.62V235.576H106.444V247ZM100.076 242.952C100.076 243.304 100.119 243.651 100.204 243.992C100.3 244.333 100.439 244.637 100.62 244.904C100.812 245.171 101.052 245.384 101.34 245.544C101.628 245.704 101.969 245.784 102.364 245.784C102.769 245.784 103.116 245.699 103.404 245.528C103.703 245.357 103.943 245.133 104.124 244.856C104.316 244.579 104.455 244.269 104.54 243.928C104.636 243.576 104.684 243.219 104.684 242.856C104.684 241.939 104.476 241.224 104.06 240.712C103.655 240.2 103.1 239.944 102.396 239.944C101.969 239.944 101.607 240.035 101.308 240.216C101.02 240.387 100.78 240.616 100.588 240.904C100.407 241.181 100.273 241.501 100.188 241.864C100.113 242.216 100.076 242.579 100.076 242.952ZM108.081 241.784H112.737V243.512H108.081V241.784ZM114.3 238.728H116.012V240.328H116.044C116.097 240.104 116.199 239.885 116.348 239.672C116.508 239.459 116.695 239.267 116.908 239.096C117.132 238.915 117.377 238.771 117.644 238.664C117.911 238.557 118.183 238.504 118.46 238.504C118.673 238.504 118.817 238.509 118.892 238.52C118.977 238.531 119.063 238.541 119.148 238.552V240.312C119.02 240.291 118.887 240.275 118.748 240.264C118.62 240.243 118.492 240.232 118.364 240.232C118.055 240.232 117.761 240.296 117.484 240.424C117.217 240.541 116.983 240.723 116.78 240.968C116.577 241.203 116.417 241.496 116.3 241.848C116.183 242.2 116.124 242.605 116.124 243.064V247H114.3V238.728ZM127.013 247H125.221V245.848H125.189C124.965 246.264 124.629 246.6 124.181 246.856C123.744 247.101 123.296 247.224 122.837 247.224C121.749 247.224 120.96 246.957 120.469 246.424C119.989 245.88 119.749 245.064 119.749 243.976V238.728H121.573V243.8C121.573 244.525 121.712 245.037 121.989 245.336C122.266 245.635 122.656 245.784 123.157 245.784C123.541 245.784 123.861 245.725 124.117 245.608C124.373 245.491 124.581 245.336 124.741 245.144C124.901 244.941 125.013 244.701 125.077 244.424C125.152 244.147 125.189 243.848 125.189 243.528V238.728H127.013V247ZM130.137 244.344C130.19 244.877 130.393 245.251 130.745 245.464C131.097 245.677 131.518 245.784 132.009 245.784C132.179 245.784 132.371 245.773 132.585 245.752C132.809 245.72 133.017 245.667 133.209 245.592C133.401 245.517 133.555 245.411 133.673 245.272C133.801 245.123 133.859 244.931 133.849 244.696C133.838 244.461 133.753 244.269 133.593 244.12C133.433 243.971 133.225 243.853 132.969 243.768C132.723 243.672 132.441 243.592 132.121 243.528C131.801 243.464 131.475 243.395 131.145 243.32C130.803 243.245 130.473 243.155 130.153 243.048C129.843 242.941 129.561 242.797 129.305 242.616C129.059 242.435 128.862 242.205 128.713 241.928C128.563 241.64 128.489 241.288 128.489 240.872C128.489 240.424 128.595 240.051 128.809 239.752C129.033 239.443 129.31 239.197 129.641 239.016C129.982 238.824 130.355 238.691 130.761 238.616C131.177 238.541 131.571 238.504 131.945 238.504C132.371 238.504 132.777 238.552 133.161 238.648C133.555 238.733 133.907 238.877 134.217 239.08C134.537 239.283 134.798 239.549 135.001 239.88C135.214 240.2 135.347 240.589 135.401 241.048H133.497C133.411 240.611 133.209 240.317 132.889 240.168C132.579 240.019 132.222 239.944 131.817 239.944C131.689 239.944 131.534 239.955 131.353 239.976C131.182 239.997 131.017 240.04 130.857 240.104C130.707 240.157 130.579 240.243 130.473 240.36C130.366 240.467 130.313 240.611 130.313 240.792C130.313 241.016 130.387 241.197 130.537 241.336C130.697 241.475 130.899 241.592 131.145 241.688C131.401 241.773 131.689 241.848 132.009 241.912C132.329 241.976 132.659 242.045 133.001 242.12C133.331 242.195 133.657 242.285 133.977 242.392C134.297 242.499 134.579 242.643 134.825 242.824C135.081 243.005 135.283 243.235 135.433 243.512C135.593 243.789 135.673 244.131 135.673 244.536C135.673 245.027 135.561 245.443 135.337 245.784C135.113 246.125 134.819 246.403 134.457 246.616C134.105 246.829 133.71 246.984 133.273 247.08C132.835 247.176 132.403 247.224 131.977 247.224C131.454 247.224 130.969 247.165 130.521 247.048C130.083 246.931 129.699 246.755 129.369 246.52C129.049 246.275 128.793 245.976 128.601 245.624C128.419 245.261 128.323 244.835 128.313 244.344H130.137ZM138.257 244.344C138.311 244.877 138.513 245.251 138.865 245.464C139.217 245.677 139.639 245.784 140.129 245.784C140.3 245.784 140.492 245.773 140.705 245.752C140.929 245.72 141.137 245.667 141.329 245.592C141.521 245.517 141.676 245.411 141.793 245.272C141.921 245.123 141.98 244.931 141.969 244.696C141.959 244.461 141.873 244.269 141.713 244.12C141.553 243.971 141.345 243.853 141.089 243.768C140.844 243.672 140.561 243.592 140.241 243.528C139.921 243.464 139.596 243.395 139.265 243.32C138.924 243.245 138.593 243.155 138.273 243.048C137.964 242.941 137.681 242.797 137.425 242.616C137.18 242.435 136.983 242.205 136.833 241.928C136.684 241.64 136.609 241.288 136.609 240.872C136.609 240.424 136.716 240.051 136.929 239.752C137.153 239.443 137.431 239.197 137.761 239.016C138.103 238.824 138.476 238.691 138.881 238.616C139.297 238.541 139.692 238.504 140.065 238.504C140.492 238.504 140.897 238.552 141.281 238.648C141.676 238.733 142.028 238.877 142.337 239.08C142.657 239.283 142.919 239.549 143.121 239.88C143.335 240.2 143.468 240.589 143.521 241.048H141.617C141.532 240.611 141.329 240.317 141.009 240.168C140.7 240.019 140.343 239.944 139.937 239.944C139.809 239.944 139.655 239.955 139.473 239.976C139.303 239.997 139.137 240.04 138.977 240.104C138.828 240.157 138.7 240.243 138.593 240.36C138.487 240.467 138.433 240.611 138.433 240.792C138.433 241.016 138.508 241.197 138.657 241.336C138.817 241.475 139.02 241.592 139.265 241.688C139.521 241.773 139.809 241.848 140.129 241.912C140.449 241.976 140.78 242.045 141.121 242.12C141.452 242.195 141.777 242.285 142.097 242.392C142.417 242.499 142.7 242.643 142.945 242.824C143.201 243.005 143.404 243.235 143.553 243.512C143.713 243.789 143.793 244.131 143.793 244.536C143.793 245.027 143.681 245.443 143.457 245.784C143.233 246.125 142.94 246.403 142.577 246.616C142.225 246.829 141.831 246.984 141.393 247.08C140.956 247.176 140.524 247.224 140.097 247.224C139.575 247.224 139.089 247.165 138.641 247.048C138.204 246.931 137.82 246.755 137.489 246.52C137.169 246.275 136.913 245.976 136.721 245.624C136.54 245.261 136.444 244.835 136.433 244.344H138.257ZM145.05 235.576H146.874V237.304H145.05V235.576ZM145.05 238.728H146.874V247H145.05V238.728ZM155.614 245.16C155.614 245.384 155.64 245.544 155.694 245.64C155.758 245.736 155.875 245.784 156.046 245.784C156.099 245.784 156.163 245.784 156.238 245.784C156.312 245.784 156.398 245.773 156.494 245.752V247.016C156.43 247.037 156.344 247.059 156.238 247.08C156.142 247.112 156.04 247.139 155.934 247.16C155.827 247.181 155.72 247.197 155.614 247.208C155.507 247.219 155.416 247.224 155.342 247.224C154.968 247.224 154.659 247.149 154.414 247C154.168 246.851 154.008 246.589 153.934 246.216C153.571 246.568 153.123 246.824 152.59 246.984C152.067 247.144 151.56 247.224 151.07 247.224C150.696 247.224 150.339 247.171 149.998 247.064C149.656 246.968 149.352 246.824 149.086 246.632C148.83 246.429 148.622 246.179 148.462 245.88C148.312 245.571 148.238 245.213 148.238 244.808C148.238 244.296 148.328 243.88 148.51 243.56C148.702 243.24 148.947 242.989 149.246 242.808C149.555 242.627 149.896 242.499 150.27 242.424C150.654 242.339 151.038 242.275 151.422 242.232C151.752 242.168 152.067 242.125 152.366 242.104C152.664 242.072 152.926 242.024 153.15 241.96C153.384 241.896 153.566 241.8 153.694 241.672C153.832 241.533 153.902 241.331 153.902 241.064C153.902 240.829 153.843 240.637 153.726 240.488C153.619 240.339 153.48 240.227 153.31 240.152C153.15 240.067 152.968 240.013 152.766 239.992C152.563 239.96 152.371 239.944 152.19 239.944C151.678 239.944 151.256 240.051 150.926 240.264C150.595 240.477 150.408 240.808 150.366 241.256H148.542C148.574 240.723 148.702 240.28 148.926 239.928C149.15 239.576 149.432 239.293 149.774 239.08C150.126 238.867 150.52 238.717 150.958 238.632C151.395 238.547 151.843 238.504 152.302 238.504C152.707 238.504 153.107 238.547 153.502 238.632C153.896 238.717 154.248 238.856 154.558 239.048C154.878 239.24 155.134 239.491 155.326 239.8C155.518 240.099 155.614 240.467 155.614 240.904V245.16ZM153.79 242.856C153.512 243.037 153.171 243.149 152.766 243.192C152.36 243.224 151.955 243.277 151.55 243.352C151.358 243.384 151.171 243.432 150.99 243.496C150.808 243.549 150.648 243.629 150.51 243.736C150.371 243.832 150.259 243.965 150.174 244.136C150.099 244.296 150.062 244.493 150.062 244.728C150.062 244.931 150.12 245.101 150.238 245.24C150.355 245.379 150.494 245.491 150.654 245.576C150.824 245.651 151.006 245.704 151.198 245.736C151.4 245.768 151.582 245.784 151.742 245.784C151.944 245.784 152.163 245.757 152.398 245.704C152.632 245.651 152.851 245.56 153.054 245.432C153.267 245.304 153.443 245.144 153.582 244.952C153.72 244.749 153.79 244.504 153.79 244.216V242.856ZM157.4 238.728H159.128V239.944L159.16 239.976C159.438 239.517 159.8 239.16 160.248 238.904C160.696 238.637 161.192 238.504 161.736 238.504C162.643 238.504 163.358 238.739 163.88 239.208C164.403 239.677 164.664 240.381 164.664 241.32V247H162.84V241.8C162.819 241.149 162.68 240.68 162.424 240.392C162.168 240.093 161.768 239.944 161.224 239.944C160.915 239.944 160.638 240.003 160.392 240.12C160.147 240.227 159.939 240.381 159.768 240.584C159.598 240.776 159.464 241.005 159.368 241.272C159.272 241.539 159.224 241.821 159.224 242.12V247H157.4V238.728Z" fill="black"/>
</svg>
