<svg width="499" height="581" viewBox="0 0 499 581" fill="none" xmlns="http://www.w3.org/2000/svg">
<rect width="499" height="581" fill="white"/>
<circle cx="31.8478" cy="273.969" r="16" fill="#85B6FF"/>
<circle cx="31.8478" cy="273.969" r="14" stroke="black" stroke-opacity="0.2" stroke-width="4"/>
<circle cx="103.848" cy="273.969" r="16" fill="#85B6FF"/>
<circle cx="103.848" cy="273.969" r="14" stroke="black" stroke-opacity="0.2" stroke-width="4"/>
<circle cx="287.848" cy="353.969" r="16" fill="#FF9A62"/>
<circle cx="287.848" cy="353.969" r="14" stroke="black" stroke-opacity="0.2" stroke-width="4"/>
<path d="M51.8477 272.469C51.0193 272.469 50.3477 273.14 50.3477 273.969C50.3477 274.797 51.0193 275.469 51.8477 275.469V272.469ZM83.8477 275.469C84.6762 275.469 85.3477 274.797 85.3477 273.969C85.3477 273.14 84.6762 272.469 83.8477 272.469V275.469ZM51.8477 275.469H83.8477V272.469H51.8477V275.469Z" fill="#CECCCC"/>
<circle cx="343.848" cy="353.969" r="16" fill="#FF9A62"/>
<circle cx="343.848" cy="353.969" r="14" stroke="black" stroke-opacity="0.2" stroke-width="4"/>
<path d="M123.848 272.469C123.019 272.469 122.348 273.14 122.348 273.969C122.348 274.797 123.019 275.469 123.848 275.469V272.469ZM267.848 355.469C268.676 355.469 269.348 354.797 269.348 353.969C269.348 353.14 268.676 352.469 267.848 352.469V355.469ZM123.848 275.469H143.848V272.469H123.848V275.469ZM166.348 297.969V329.969H169.348V297.969H166.348ZM191.848 355.469H267.848V352.469H191.848V355.469ZM166.348 329.969C166.348 344.052 177.765 355.469 191.848 355.469V352.469C179.421 352.469 169.348 342.395 169.348 329.969H166.348ZM143.848 275.469C156.274 275.469 166.348 285.542 166.348 297.969H169.348C169.348 283.885 157.931 272.469 143.848 272.469V275.469Z" fill="#CECCCC"/>
<circle cx="399.848" cy="353.969" r="16" fill="#FF9A62"/>
<circle cx="399.848" cy="353.969" r="14" stroke="black" stroke-opacity="0.2" stroke-width="4"/>
<path d="M363.848 352.469C363.019 352.469 362.348 353.14 362.348 353.969C362.348 354.797 363.019 355.469 363.848 355.469V352.469ZM379.848 355.469C380.676 355.469 381.348 354.797 381.348 353.969C381.348 353.14 380.676 352.469 379.848 352.469V355.469ZM363.848 355.469H379.848V352.469H363.848V355.469Z" fill="#CECCCC"/>
<path d="M323.848 355.469C324.676 355.469 325.348 354.797 325.348 353.969C325.348 353.14 324.676 352.469 323.848 352.469V355.469ZM307.848 352.469C307.019 352.469 306.348 353.14 306.348 353.969C306.348 354.797 307.019 355.469 307.848 355.469V352.469ZM323.848 352.469H307.848V355.469H323.848V352.469Z" fill="#CECCCC"/>
<circle cx="215.848" cy="273.969" r="16" fill="#85B6FF"/>
<circle cx="215.848" cy="273.969" r="14" stroke="black" stroke-opacity="0.2" stroke-width="4"/>
<path d="M195.848 275.469C196.676 275.469 197.348 274.797 197.348 273.969C197.348 273.14 196.676 272.469 195.848 272.469V275.469ZM123.848 272.469C123.019 272.469 122.348 273.14 122.348 273.969C122.348 274.797 123.019 275.469 123.848 275.469V272.469ZM195.848 272.469H123.848V275.469H195.848V272.469Z" fill="#CECCCC"/>
<circle cx="399.848" cy="273.969" r="16" fill="#FF9A62"/>
<circle cx="399.848" cy="273.969" r="14" stroke="black" stroke-opacity="0.2" stroke-width="4"/>
<path d="M379.848 275.469C380.676 275.469 381.348 274.797 381.348 273.969C381.348 273.14 380.676 272.469 379.848 272.469V275.469ZM235.848 272.469C235.019 272.469 234.348 273.14 234.348 273.969C234.348 274.797 235.019 275.469 235.848 275.469V272.469ZM379.848 272.469H235.848V275.469H379.848V272.469Z" fill="#CECCCC"/>
<path d="M19.6398 229.257C19.6398 229.913 19.7518 230.473 19.9758 230.937C20.1998 231.401 20.5118 231.785 20.9118 232.089C21.3118 232.377 21.7678 232.593 22.2798 232.737C22.8078 232.865 23.3758 232.929 23.9838 232.929C24.6398 232.929 25.1998 232.857 25.6638 232.713C26.1278 232.553 26.5038 232.353 26.7918 232.113C27.0798 231.873 27.2878 231.601 27.4158 231.297C27.5438 230.977 27.6078 230.657 27.6078 230.337C27.6078 229.681 27.4558 229.201 27.1518 228.897C26.8638 228.577 26.5438 228.353 26.1918 228.225C25.5838 228.001 24.8718 227.793 24.0558 227.601C23.2558 227.393 22.2638 227.129 21.0798 226.809C20.3438 226.617 19.7278 226.369 19.2318 226.065C18.7518 225.745 18.3678 225.393 18.0798 225.009C17.7918 224.625 17.5838 224.217 17.4558 223.785C17.3438 223.353 17.2878 222.913 17.2878 222.465C17.2878 221.601 17.4638 220.857 17.8158 220.233C18.1838 219.593 18.6638 219.065 19.2558 218.649C19.8478 218.233 20.5198 217.929 21.2718 217.737C22.0238 217.529 22.7838 217.425 23.5518 217.425C24.4478 217.425 25.2878 217.545 26.0718 217.785C26.8718 218.009 27.5678 218.353 28.1598 218.817C28.7678 219.281 29.2478 219.857 29.5998 220.545C29.9518 221.217 30.1278 222.001 30.1278 222.897H27.1278C27.0478 221.793 26.6718 221.017 25.9998 220.569C25.3278 220.105 24.4718 219.873 23.4318 219.873C23.0798 219.873 22.7198 219.913 22.3518 219.993C21.9838 220.057 21.6478 220.177 21.3438 220.353C21.0398 220.513 20.7838 220.737 20.5758 221.025C20.3838 221.313 20.2878 221.673 20.2878 222.105C20.2878 222.713 20.4718 223.193 20.8398 223.545C21.2238 223.881 21.7198 224.137 22.3278 224.313C22.3918 224.329 22.6398 224.401 23.0718 224.529C23.5198 224.641 24.0158 224.769 24.5598 224.913C25.1038 225.057 25.6318 225.201 26.1438 225.345C26.6718 225.473 27.0478 225.569 27.2718 225.633C27.8318 225.809 28.3198 226.049 28.7358 226.353C29.1518 226.657 29.4958 227.009 29.7678 227.409C30.0558 227.793 30.2638 228.209 30.3918 228.657C30.5358 229.105 30.6078 229.553 30.6078 230.001C30.6078 230.961 30.4078 231.785 30.0078 232.473C29.6238 233.145 29.1118 233.697 28.4718 234.129C27.8318 234.561 27.1038 234.873 26.2878 235.065C25.4718 235.273 24.6398 235.377 23.7918 235.377C22.8158 235.377 21.8958 235.257 21.0318 235.017C20.1678 234.777 19.4158 234.409 18.7758 233.913C18.1358 233.417 17.6238 232.785 17.2398 232.017C16.8558 231.233 16.6558 230.313 16.6398 229.257H19.6398ZM44.2743 239.553H41.5383V233.361H41.4903C41.2663 233.697 41.0023 233.993 40.6983 234.249C40.3943 234.489 40.0583 234.689 39.6903 234.849C39.3223 235.009 38.9383 235.121 38.5383 235.185C38.1383 235.265 37.7383 235.305 37.3383 235.305C36.4263 235.305 35.6343 235.129 34.9623 234.777C34.2903 234.409 33.7303 233.929 33.2823 233.337C32.8503 232.729 32.5223 232.033 32.2983 231.249C32.0903 230.465 31.9863 229.657 31.9863 228.825C31.9863 227.913 32.1063 227.057 32.3463 226.257C32.5863 225.457 32.9463 224.761 33.4263 224.169C33.9063 223.561 34.5063 223.089 35.2263 222.753C35.9623 222.401 36.8183 222.225 37.7943 222.225C38.5943 222.225 39.3383 222.385 40.0263 222.705C40.7143 223.009 41.2503 223.521 41.6343 224.241H41.6823V222.561H44.2743V239.553ZM34.7223 228.777C34.7223 229.321 34.7783 229.857 34.8903 230.385C35.0183 230.897 35.2183 231.361 35.4903 231.777C35.7783 232.177 36.1383 232.505 36.5703 232.761C37.0023 233.017 37.5303 233.145 38.1543 233.145C39.3383 233.145 40.2103 232.745 40.7703 231.945C41.3463 231.129 41.6343 230.073 41.6343 228.777C41.6343 227.417 41.3383 226.345 40.7463 225.561C40.1703 224.777 39.3063 224.385 38.1543 224.385C37.5943 224.385 37.0983 224.513 36.6663 224.769C36.2343 225.009 35.8743 225.337 35.5863 225.753C35.2983 226.153 35.0823 226.617 34.9383 227.145C34.7943 227.673 34.7223 228.217 34.7223 228.777ZM57.8902 234.969H55.2022V233.241H55.1542C54.8182 233.865 54.3142 234.369 53.6422 234.753C52.9862 235.121 52.3142 235.305 51.6262 235.305C49.9942 235.305 48.8102 234.905 48.0742 234.105C47.3542 233.289 46.9942 232.065 46.9942 230.433V222.561H49.7302V230.169C49.7302 231.257 49.9382 232.025 50.3542 232.473C50.7702 232.921 51.3542 233.145 52.1062 233.145C52.6822 233.145 53.1622 233.057 53.5462 232.881C53.9302 232.705 54.2422 232.473 54.4822 232.185C54.7222 231.881 54.8902 231.521 54.9862 231.105C55.0982 230.689 55.1542 230.241 55.1542 229.761V222.561H57.8902V234.969ZM70.9034 232.209C70.9034 232.545 70.9434 232.785 71.0234 232.929C71.1194 233.073 71.2954 233.145 71.5514 233.145C71.6314 233.145 71.7274 233.145 71.8394 233.145C71.9514 233.145 72.0794 233.129 72.2234 233.097V234.993C72.1274 235.025 71.9994 235.057 71.8394 235.089C71.6954 235.137 71.5434 235.177 71.3834 235.209C71.2234 235.241 71.0634 235.265 70.9034 235.281C70.7434 235.297 70.6074 235.305 70.4954 235.305C69.9354 235.305 69.4714 235.193 69.1034 234.969C68.7354 234.745 68.4954 234.353 68.3834 233.793C67.8394 234.321 67.1674 234.705 66.3674 234.945C65.5834 235.185 64.8234 235.305 64.0874 235.305C63.5274 235.305 62.9914 235.225 62.4794 235.065C61.9674 234.921 61.5114 234.705 61.1114 234.417C60.7274 234.113 60.4154 233.737 60.1754 233.289C59.9514 232.825 59.8394 232.289 59.8394 231.681C59.8394 230.913 59.9754 230.289 60.2474 229.809C60.5354 229.329 60.9034 228.953 61.3514 228.681C61.8154 228.409 62.3274 228.217 62.8874 228.105C63.4634 227.977 64.0394 227.881 64.6154 227.817C65.1114 227.721 65.5834 227.657 66.0314 227.625C66.4794 227.577 66.8714 227.505 67.2074 227.409C67.5594 227.313 67.8314 227.169 68.0234 226.977C68.2314 226.769 68.3354 226.465 68.3354 226.065C68.3354 225.713 68.2474 225.425 68.0714 225.201C67.9114 224.977 67.7034 224.809 67.4474 224.697C67.2074 224.569 66.9354 224.489 66.6314 224.457C66.3274 224.409 66.0394 224.385 65.7674 224.385C64.9994 224.385 64.3674 224.545 63.8714 224.865C63.3754 225.185 63.0954 225.681 63.0314 226.353H60.2954C60.3434 225.553 60.5354 224.889 60.8714 224.361C61.2074 223.833 61.6314 223.409 62.1434 223.089C62.6714 222.769 63.2634 222.545 63.9194 222.417C64.5754 222.289 65.2474 222.225 65.9354 222.225C66.5434 222.225 67.1434 222.289 67.7354 222.417C68.3274 222.545 68.8554 222.753 69.3194 223.041C69.7994 223.329 70.1834 223.705 70.4714 224.169C70.7594 224.617 70.9034 225.169 70.9034 225.825V232.209ZM68.1674 228.753C67.7514 229.025 67.2394 229.193 66.6314 229.257C66.0234 229.305 65.4154 229.385 64.8074 229.497C64.5194 229.545 64.2394 229.617 63.9674 229.713C63.6954 229.793 63.4554 229.913 63.2474 230.073C63.0394 230.217 62.8714 230.417 62.7434 230.673C62.6314 230.913 62.5754 231.209 62.5754 231.561C62.5754 231.865 62.6634 232.121 62.8394 232.329C63.0154 232.537 63.2234 232.705 63.4634 232.833C63.7194 232.945 63.9914 233.025 64.2794 233.073C64.5834 233.121 64.8554 233.145 65.0954 233.145C65.3994 233.145 65.7274 233.105 66.0794 233.025C66.4314 232.945 66.7594 232.809 67.0634 232.617C67.3834 232.425 67.6474 232.185 67.8554 231.897C68.0634 231.593 68.1674 231.225 68.1674 230.793V228.753ZM75.6473 230.985C75.7273 231.785 76.0313 232.345 76.5593 232.665C77.0873 232.985 77.7193 233.145 78.4553 233.145C78.7113 233.145 78.9993 233.129 79.3193 233.097C79.6553 233.049 79.9673 232.969 80.2553 232.857C80.5433 232.745 80.7753 232.585 80.9513 232.377C81.1433 232.153 81.2313 231.865 81.2153 231.513C81.1993 231.161 81.0713 230.873 80.8313 230.649C80.5913 230.425 80.2793 230.249 79.8953 230.121C79.5273 229.977 79.1033 229.857 78.6233 229.761C78.1433 229.665 77.6553 229.561 77.1593 229.449C76.6473 229.337 76.1513 229.201 75.6713 229.041C75.2073 228.881 74.7833 228.665 74.3993 228.393C74.0313 228.121 73.7353 227.777 73.5113 227.361C73.2873 226.929 73.1753 226.401 73.1753 225.777C73.1753 225.105 73.3353 224.545 73.6553 224.097C73.9913 223.633 74.4073 223.265 74.9033 222.993C75.4153 222.705 75.9753 222.505 76.5833 222.393C77.2073 222.281 77.7993 222.225 78.3593 222.225C78.9993 222.225 79.6073 222.297 80.1833 222.441C80.7753 222.569 81.3033 222.785 81.7673 223.089C82.2473 223.393 82.6393 223.793 82.9433 224.289C83.2633 224.769 83.4633 225.353 83.5433 226.041H80.6873C80.5593 225.385 80.2553 224.945 79.7753 224.721C79.3113 224.497 78.7753 224.385 78.1673 224.385C77.9753 224.385 77.7433 224.401 77.4713 224.433C77.2153 224.465 76.9673 224.529 76.7273 224.625C76.5033 224.705 76.3113 224.833 76.1513 225.009C75.9913 225.169 75.9113 225.385 75.9113 225.657C75.9113 225.993 76.0233 226.265 76.2473 226.473C76.4873 226.681 76.7913 226.857 77.1593 227.001C77.5433 227.129 77.9753 227.241 78.4553 227.337C78.9353 227.433 79.4313 227.537 79.9433 227.649C80.4393 227.761 80.9273 227.897 81.4073 228.057C81.8873 228.217 82.3113 228.433 82.6793 228.705C83.0633 228.977 83.3673 229.321 83.5913 229.737C83.8313 230.153 83.9513 230.665 83.9513 231.273C83.9513 232.009 83.7833 232.633 83.4473 233.145C83.1113 233.657 82.6713 234.073 82.1273 234.393C81.5993 234.713 81.0073 234.945 80.3513 235.089C79.6953 235.233 79.0473 235.305 78.4073 235.305C77.6233 235.305 76.8953 235.217 76.2233 235.041C75.5673 234.865 74.9913 234.601 74.4953 234.249C74.0153 233.881 73.6313 233.433 73.3433 232.905C73.0713 232.361 72.9273 231.721 72.9113 230.985H75.6473ZM85.7647 217.833H88.5007V224.193H88.5487C88.8847 223.633 89.3807 223.169 90.0367 222.801C90.7087 222.417 91.4527 222.225 92.2687 222.225C93.6287 222.225 94.7007 222.577 95.4847 223.281C96.2687 223.985 96.6607 225.041 96.6607 226.449V234.969H93.9247V227.169C93.8927 226.193 93.6847 225.489 93.3007 225.057C92.9167 224.609 92.3167 224.385 91.5007 224.385C91.0367 224.385 90.6207 224.473 90.2527 224.649C89.8847 224.809 89.5727 225.041 89.3167 225.345C89.0607 225.633 88.8607 225.977 88.7167 226.377C88.5727 226.777 88.5007 227.201 88.5007 227.649V234.969H85.7647V217.833ZM116.09 232.209C116.09 232.545 116.13 232.785 116.21 232.929C116.306 233.073 116.482 233.145 116.738 233.145C116.818 233.145 116.914 233.145 117.026 233.145C117.138 233.145 117.266 233.129 117.41 233.097V234.993C117.314 235.025 117.186 235.057 117.026 235.089C116.882 235.137 116.73 235.177 116.57 235.209C116.41 235.241 116.25 235.265 116.09 235.281C115.93 235.297 115.794 235.305 115.682 235.305C115.122 235.305 114.658 235.193 114.29 234.969C113.922 234.745 113.682 234.353 113.57 233.793C113.026 234.321 112.354 234.705 111.554 234.945C110.77 235.185 110.01 235.305 109.274 235.305C108.714 235.305 108.178 235.225 107.666 235.065C107.154 234.921 106.698 234.705 106.298 234.417C105.914 234.113 105.602 233.737 105.362 233.289C105.138 232.825 105.026 232.289 105.026 231.681C105.026 230.913 105.162 230.289 105.434 229.809C105.722 229.329 106.09 228.953 106.538 228.681C107.002 228.409 107.514 228.217 108.074 228.105C108.65 227.977 109.226 227.881 109.802 227.817C110.298 227.721 110.77 227.657 111.218 227.625C111.666 227.577 112.058 227.505 112.394 227.409C112.746 227.313 113.018 227.169 113.21 226.977C113.418 226.769 113.522 226.465 113.522 226.065C113.522 225.713 113.434 225.425 113.258 225.201C113.098 224.977 112.89 224.809 112.634 224.697C112.394 224.569 112.122 224.489 111.818 224.457C111.514 224.409 111.226 224.385 110.954 224.385C110.186 224.385 109.554 224.545 109.058 224.865C108.562 225.185 108.282 225.681 108.218 226.353H105.482C105.53 225.553 105.722 224.889 106.058 224.361C106.394 223.833 106.818 223.409 107.33 223.089C107.858 222.769 108.45 222.545 109.106 222.417C109.762 222.289 110.434 222.225 111.122 222.225C111.73 222.225 112.33 222.289 112.922 222.417C113.514 222.545 114.042 222.753 114.506 223.041C114.986 223.329 115.37 223.705 115.658 224.169C115.946 224.617 116.09 225.169 116.09 225.825V232.209ZM113.354 228.753C112.938 229.025 112.426 229.193 111.818 229.257C111.21 229.305 110.602 229.385 109.994 229.497C109.706 229.545 109.426 229.617 109.154 229.713C108.882 229.793 108.642 229.913 108.434 230.073C108.226 230.217 108.058 230.417 107.93 230.673C107.818 230.913 107.762 231.209 107.762 231.561C107.762 231.865 107.85 232.121 108.026 232.329C108.202 232.537 108.41 232.705 108.65 232.833C108.906 232.945 109.178 233.025 109.466 233.073C109.77 233.121 110.042 233.145 110.282 233.145C110.586 233.145 110.914 233.105 111.266 233.025C111.618 232.945 111.946 232.809 112.25 232.617C112.57 232.425 112.834 232.185 113.042 231.897C113.25 231.593 113.354 231.225 113.354 230.793V228.753ZM118.77 222.561H121.362V224.385L121.41 224.433C121.826 223.745 122.37 223.209 123.042 222.825C123.714 222.425 124.458 222.225 125.274 222.225C126.634 222.225 127.706 222.577 128.49 223.281C129.274 223.985 129.666 225.041 129.666 226.449V234.969H126.93V227.169C126.898 226.193 126.69 225.489 126.306 225.057C125.922 224.609 125.322 224.385 124.506 224.385C124.042 224.385 123.626 224.473 123.258 224.649C122.89 224.809 122.578 225.041 122.322 225.345C122.066 225.633 121.866 225.977 121.722 226.377C121.578 226.777 121.506 227.201 121.506 227.649V234.969H118.77V222.561ZM143.975 234.969H141.383V233.289H141.335C140.967 234.009 140.431 234.529 139.727 234.849C139.023 235.153 138.279 235.305 137.495 235.305C136.519 235.305 135.663 235.137 134.927 234.801C134.207 234.449 133.607 233.977 133.127 233.385C132.647 232.793 132.287 232.097 132.047 231.297C131.807 230.481 131.687 229.609 131.687 228.681C131.687 227.561 131.839 226.593 132.143 225.777C132.447 224.961 132.847 224.289 133.343 223.761C133.855 223.233 134.431 222.849 135.071 222.609C135.727 222.353 136.391 222.225 137.063 222.225C137.447 222.225 137.839 222.265 138.239 222.345C138.639 222.409 139.023 222.521 139.391 222.681C139.759 222.841 140.095 223.049 140.399 223.305C140.719 223.545 140.983 223.833 141.191 224.169H141.239V217.833H143.975V234.969ZM134.423 228.897C134.423 229.425 134.487 229.945 134.615 230.457C134.759 230.969 134.967 231.425 135.239 231.825C135.527 232.225 135.887 232.545 136.319 232.785C136.751 233.025 137.263 233.145 137.855 233.145C138.463 233.145 138.983 233.017 139.415 232.761C139.863 232.505 140.223 232.169 140.495 231.753C140.783 231.337 140.991 230.873 141.119 230.361C141.263 229.833 141.335 229.297 141.335 228.753C141.335 227.377 141.023 226.305 140.399 225.537C139.791 224.769 138.959 224.385 137.903 224.385C137.263 224.385 136.719 224.521 136.271 224.793C135.839 225.049 135.479 225.393 135.191 225.825C134.919 226.241 134.719 226.721 134.591 227.265C134.479 227.793 134.423 228.337 134.423 228.897ZM153.11 222.561H155.702V224.289H155.774C155.982 223.985 156.206 223.705 156.446 223.449C156.686 223.193 156.95 222.977 157.238 222.801C157.542 222.625 157.886 222.489 158.27 222.393C158.654 222.281 159.094 222.225 159.59 222.225C160.342 222.225 161.038 222.393 161.678 222.729C162.334 223.065 162.798 223.585 163.07 224.289C163.534 223.649 164.07 223.145 164.678 222.777C165.286 222.409 166.046 222.225 166.958 222.225C168.27 222.225 169.286 222.545 170.006 223.185C170.742 223.825 171.11 224.897 171.11 226.401V234.969H168.374V227.721C168.374 227.225 168.358 226.777 168.326 226.377C168.294 225.961 168.198 225.609 168.038 225.321C167.894 225.017 167.67 224.785 167.366 224.625C167.062 224.465 166.646 224.385 166.118 224.385C165.19 224.385 164.518 224.673 164.102 225.249C163.686 225.825 163.478 226.641 163.478 227.697V234.969H160.742V227.001C160.742 226.137 160.582 225.489 160.262 225.057C159.958 224.609 159.39 224.385 158.558 224.385C158.206 224.385 157.862 224.457 157.526 224.601C157.206 224.745 156.918 224.953 156.662 225.225C156.422 225.497 156.222 225.833 156.062 226.233C155.918 226.633 155.846 227.089 155.846 227.601V234.969H153.11V222.561ZM182.249 227.673C182.217 227.241 182.121 226.825 181.961 226.425C181.817 226.025 181.609 225.681 181.337 225.393C181.081 225.089 180.761 224.849 180.377 224.673C180.009 224.481 179.593 224.385 179.129 224.385C178.649 224.385 178.209 224.473 177.809 224.649C177.425 224.809 177.089 225.041 176.801 225.345C176.529 225.633 176.305 225.977 176.129 226.377C175.969 226.777 175.881 227.209 175.865 227.673H182.249ZM175.865 229.473C175.865 229.953 175.929 230.417 176.057 230.865C176.201 231.313 176.409 231.705 176.681 232.041C176.953 232.377 177.297 232.649 177.713 232.857C178.129 233.049 178.625 233.145 179.201 233.145C180.001 233.145 180.641 232.977 181.121 232.641C181.617 232.289 181.985 231.769 182.225 231.081H184.817C184.673 231.753 184.425 232.353 184.073 232.881C183.721 233.409 183.297 233.857 182.801 234.225C182.305 234.577 181.745 234.841 181.121 235.017C180.513 235.209 179.873 235.305 179.201 235.305C178.225 235.305 177.361 235.145 176.609 234.825C175.857 234.505 175.217 234.057 174.689 233.481C174.177 232.905 173.785 232.217 173.513 231.417C173.257 230.617 173.129 229.737 173.129 228.777C173.129 227.897 173.265 227.065 173.537 226.281C173.825 225.481 174.225 224.785 174.737 224.193C175.265 223.585 175.897 223.105 176.633 222.753C177.369 222.401 178.201 222.225 179.129 222.225C180.105 222.225 180.977 222.433 181.745 222.849C182.529 223.249 183.177 223.785 183.689 224.457C184.201 225.129 184.569 225.905 184.793 226.785C185.033 227.649 185.097 228.545 184.985 229.473H175.865ZM186.801 222.561H189.369V224.961H189.417C189.497 224.625 189.649 224.297 189.873 223.977C190.113 223.657 190.393 223.369 190.713 223.113C191.049 222.841 191.417 222.625 191.817 222.465C192.217 222.305 192.625 222.225 193.041 222.225C193.361 222.225 193.577 222.233 193.689 222.249C193.817 222.265 193.945 222.281 194.073 222.297V224.937C193.881 224.905 193.681 224.881 193.473 224.865C193.281 224.833 193.089 224.817 192.897 224.817C192.433 224.817 191.993 224.913 191.577 225.105C191.177 225.281 190.825 225.553 190.521 225.921C190.217 226.273 189.977 226.713 189.801 227.241C189.625 227.769 189.537 228.377 189.537 229.065V234.969H186.801V222.561ZM206.447 234.321C206.447 236.193 205.919 237.585 204.863 238.497C203.823 239.425 202.319 239.889 200.351 239.889C199.727 239.889 199.095 239.825 198.455 239.697C197.831 239.569 197.255 239.353 196.727 239.049C196.215 238.745 195.783 238.345 195.431 237.849C195.079 237.353 194.871 236.745 194.807 236.025H197.543C197.623 236.409 197.759 236.721 197.951 236.961C198.143 237.201 198.367 237.385 198.623 237.513C198.895 237.657 199.191 237.745 199.511 237.777C199.831 237.825 200.167 237.849 200.519 237.849C201.623 237.849 202.431 237.577 202.943 237.033C203.455 236.489 203.711 235.705 203.711 234.681V232.785H203.663C203.279 233.473 202.751 234.009 202.079 234.393C201.423 234.777 200.711 234.969 199.943 234.969C198.951 234.969 198.103 234.801 197.399 234.465C196.711 234.113 196.135 233.641 195.671 233.049C195.223 232.441 194.895 231.745 194.687 230.961C194.479 230.177 194.375 229.337 194.375 228.441C194.375 227.609 194.503 226.817 194.759 226.065C195.015 225.313 195.383 224.657 195.863 224.097C196.343 223.521 196.927 223.065 197.615 222.729C198.319 222.393 199.111 222.225 199.991 222.225C200.775 222.225 201.495 222.393 202.151 222.729C202.807 223.049 203.311 223.561 203.663 224.265H203.711V222.561H206.447V234.321ZM200.375 232.809C200.983 232.809 201.495 232.689 201.911 232.449C202.343 232.193 202.687 231.865 202.943 231.465C203.215 231.049 203.407 230.585 203.519 230.073C203.647 229.545 203.711 229.017 203.711 228.489C203.711 227.961 203.647 227.449 203.519 226.953C203.391 226.457 203.191 226.017 202.919 225.633C202.663 225.249 202.319 224.945 201.887 224.721C201.471 224.497 200.967 224.385 200.375 224.385C199.767 224.385 199.255 224.513 198.839 224.769C198.423 225.025 198.087 225.361 197.831 225.777C197.575 226.177 197.391 226.641 197.279 227.169C197.167 227.681 197.111 228.193 197.111 228.705C197.111 229.217 197.175 229.721 197.303 230.217C197.431 230.697 197.623 231.129 197.879 231.513C198.151 231.897 198.487 232.209 198.887 232.449C199.303 232.689 199.799 232.809 200.375 232.809ZM217.457 227.673C217.425 227.241 217.329 226.825 217.169 226.425C217.025 226.025 216.817 225.681 216.545 225.393C216.289 225.089 215.969 224.849 215.585 224.673C215.217 224.481 214.801 224.385 214.337 224.385C213.857 224.385 213.417 224.473 213.017 224.649C212.633 224.809 212.297 225.041 212.009 225.345C211.737 225.633 211.513 225.977 211.337 226.377C211.177 226.777 211.089 227.209 211.073 227.673H217.457ZM211.073 229.473C211.073 229.953 211.137 230.417 211.265 230.865C211.409 231.313 211.617 231.705 211.889 232.041C212.161 232.377 212.505 232.649 212.921 232.857C213.337 233.049 213.833 233.145 214.409 233.145C215.209 233.145 215.849 232.977 216.329 232.641C216.825 232.289 217.193 231.769 217.433 231.081H220.025C219.881 231.753 219.633 232.353 219.281 232.881C218.929 233.409 218.505 233.857 218.009 234.225C217.513 234.577 216.953 234.841 216.329 235.017C215.721 235.209 215.081 235.305 214.409 235.305C213.433 235.305 212.569 235.145 211.817 234.825C211.065 234.505 210.425 234.057 209.897 233.481C209.385 232.905 208.993 232.217 208.721 231.417C208.465 230.617 208.337 229.737 208.337 228.777C208.337 227.897 208.473 227.065 208.745 226.281C209.033 225.481 209.433 224.785 209.945 224.193C210.473 223.585 211.105 223.105 211.841 222.753C212.577 222.401 213.409 222.225 214.337 222.225C215.313 222.225 216.185 222.433 216.953 222.849C217.737 223.249 218.385 223.785 218.897 224.457C219.409 225.129 219.777 225.905 220.001 226.785C220.241 227.649 220.305 228.545 220.193 229.473H211.073Z" fill="black"/>
<circle cx="31.8478" cy="474.937" r="16" fill="#85B6FF"/>
<circle cx="31.8478" cy="474.937" r="14" stroke="black" stroke-opacity="0.2" stroke-width="4"/>
<circle cx="103.848" cy="474.937" r="16" fill="#85B6FF"/>
<circle cx="103.848" cy="474.937" r="14" stroke="black" stroke-opacity="0.2" stroke-width="4"/>
<circle cx="287.848" cy="546.937" r="16" fill="#FF9A62"/>
<circle cx="287.848" cy="546.937" r="14" stroke="black" stroke-opacity="0.2" stroke-width="4"/>
<path d="M51.8477 473.437C51.0193 473.437 50.3477 474.109 50.3477 474.937C50.3477 475.766 51.0193 476.437 51.8477 476.437V473.437ZM83.8477 476.437C84.6762 476.437 85.3477 475.766 85.3477 474.937C85.3477 474.109 84.6762 473.437 83.8477 473.437V476.437ZM51.8477 476.437H83.8477V473.437H51.8477V476.437Z" fill="#CECCCC"/>
<circle cx="343.848" cy="546.937" r="16" fill="#FF9A62"/>
<circle cx="343.848" cy="546.937" r="14" stroke="black" stroke-opacity="0.2" stroke-width="4"/>
<path d="M123.848 473.437C123.019 473.437 122.348 474.109 122.348 474.937C122.348 475.766 123.019 476.437 123.848 476.437V473.437ZM267.848 548.437C268.676 548.437 269.348 547.766 269.348 546.937C269.348 546.109 268.676 545.437 267.848 545.437V548.437ZM123.848 476.437H143.848V473.437H123.848V476.437ZM166.348 498.937V522.937H169.348V498.937H166.348ZM191.848 548.437H267.848V545.437H191.848V548.437ZM166.348 522.937C166.348 537.021 177.765 548.437 191.848 548.437V545.437C179.421 545.437 169.348 535.364 169.348 522.937H166.348ZM143.848 476.437C156.274 476.437 166.348 486.511 166.348 498.937H169.348C169.348 484.854 157.931 473.437 143.848 473.437V476.437Z" fill="#CECCCC"/>
<circle cx="399.848" cy="546.937" r="16" fill="#FF9A62"/>
<circle cx="399.848" cy="546.937" r="14" stroke="black" stroke-opacity="0.2" stroke-width="4"/>
<path d="M363.848 545.437C363.019 545.437 362.348 546.109 362.348 546.937C362.348 547.766 363.019 548.437 363.848 548.437V545.437ZM379.848 548.437C380.676 548.437 381.348 547.766 381.348 546.937C381.348 546.109 380.676 545.437 379.848 545.437V548.437ZM363.848 548.437H379.848V545.437H363.848V548.437Z" fill="#CECCCC"/>
<path d="M323.848 548.437C324.676 548.437 325.348 547.766 325.348 546.937C325.348 546.109 324.676 545.437 323.848 545.437V548.437ZM307.848 545.437C307.019 545.437 306.348 546.109 306.348 546.937C306.348 547.766 307.019 548.437 307.848 548.437V545.437ZM323.848 545.437H307.848V548.437H323.848V545.437Z" fill="#CECCCC"/>
<circle cx="215.848" cy="474.937" r="16" fill="#85B6FF"/>
<circle cx="215.848" cy="474.937" r="14" stroke="black" stroke-opacity="0.2" stroke-width="4"/>
<path d="M195.848 476.437C196.676 476.437 197.348 475.766 197.348 474.937C197.348 474.109 196.676 473.437 195.848 473.437V476.437ZM123.848 473.437C123.019 473.437 122.348 474.109 122.348 474.937C122.348 475.766 123.019 476.437 123.848 476.437V473.437ZM195.848 473.437H123.848V476.437H195.848V473.437Z" fill="#CECCCC"/>
<circle cx="287.848" cy="474.937" r="16" fill="#FF9A62"/>
<circle cx="287.848" cy="474.937" r="14" stroke="black" stroke-opacity="0.2" stroke-width="4"/>
<circle cx="343.848" cy="474.937" r="16" fill="#FF9A62"/>
<circle cx="343.848" cy="474.937" r="14" stroke="black" stroke-opacity="0.2" stroke-width="4"/>
<circle cx="395.848" cy="474.937" r="16" fill="#FF9A62"/>
<circle cx="395.848" cy="474.937" r="14" stroke="black" stroke-opacity="0.2" stroke-width="4"/>
<path d="M375.848 476.437C376.676 476.437 377.348 475.766 377.348 474.937C377.348 474.109 376.676 473.437 375.848 473.437V476.437ZM363.848 473.437C363.019 473.437 362.348 474.109 362.348 474.937C362.348 475.766 363.019 476.437 363.848 476.437V473.437ZM375.848 473.437H363.848V476.437H375.848V473.437Z" fill="#CECCCC"/>
<path d="M323.848 476.437C324.676 476.437 325.348 475.766 325.348 474.937C325.348 474.109 324.676 473.437 323.848 473.437V476.437ZM307.848 473.437C307.019 473.437 306.348 474.109 306.348 474.937C306.348 475.766 307.019 476.437 307.848 476.437V473.437ZM323.848 473.437H307.848V476.437H323.848V473.437Z" fill="#CECCCC"/>
<path d="M267.848 476.437C268.676 476.437 269.348 475.766 269.348 474.937C269.348 474.109 268.676 473.437 267.848 473.437V476.437ZM235.848 473.437C235.019 473.437 234.348 474.109 234.348 474.937C234.348 475.766 235.019 476.437 235.848 476.437V473.437ZM267.848 473.437H235.848V476.437H267.848V473.437Z" fill="#CECCCC"/>
<path d="M17.6718 418.801H25.8558C27.7438 418.801 29.1598 419.209 30.1038 420.025C31.0478 420.841 31.5198 421.977 31.5198 423.433C31.5198 424.249 31.3998 424.929 31.1598 425.473C30.9198 426.001 30.6398 426.433 30.3198 426.769C29.9998 427.089 29.6798 427.321 29.3598 427.465C29.0558 427.609 28.8318 427.705 28.6878 427.753V427.801C28.9438 427.833 29.2158 427.913 29.5038 428.041C29.8078 428.169 30.0878 428.377 30.3438 428.665C30.5998 428.937 30.8078 429.297 30.9678 429.745C31.1438 430.193 31.2318 430.753 31.2318 431.425C31.2318 432.433 31.3038 433.353 31.4478 434.185C31.6078 435.001 31.8478 435.585 32.1678 435.937H28.9518C28.7278 435.569 28.5918 435.161 28.5438 434.713C28.5118 434.265 28.4958 433.833 28.4958 433.417C28.4958 432.633 28.4478 431.961 28.3518 431.401C28.2558 430.825 28.0798 430.353 27.8238 429.985C27.5678 429.601 27.2158 429.321 26.7678 429.145C26.3358 428.969 25.7758 428.881 25.0878 428.881H20.6718V435.937H17.6718V418.801ZM20.6718 426.601H25.5918C26.5518 426.601 27.2798 426.377 27.7758 425.929C28.2718 425.465 28.5198 424.777 28.5198 423.865C28.5198 423.321 28.4398 422.881 28.2798 422.545C28.1198 422.193 27.8958 421.921 27.6078 421.729C27.3358 421.537 27.0158 421.409 26.6478 421.345C26.2958 421.281 25.9278 421.249 25.5438 421.249H20.6718V426.601ZM42.4422 428.641C42.4102 428.209 42.3142 427.793 42.1542 427.393C42.0102 426.993 41.8022 426.649 41.5302 426.361C41.2742 426.057 40.9542 425.817 40.5702 425.641C40.2022 425.449 39.7862 425.353 39.3222 425.353C38.8422 425.353 38.4022 425.441 38.0022 425.617C37.6182 425.777 37.2822 426.009 36.9942 426.313C36.7222 426.601 36.4982 426.945 36.3222 427.345C36.1622 427.745 36.0742 428.177 36.0582 428.641H42.4422ZM36.0582 430.441C36.0582 430.921 36.1222 431.385 36.2502 431.833C36.3942 432.281 36.6022 432.673 36.8742 433.009C37.1462 433.345 37.4902 433.617 37.9062 433.825C38.3222 434.017 38.8182 434.113 39.3942 434.113C40.1942 434.113 40.8342 433.945 41.3142 433.609C41.8102 433.257 42.1782 432.737 42.4182 432.049H45.0102C44.8662 432.721 44.6182 433.321 44.2662 433.849C43.9142 434.377 43.4902 434.825 42.9942 435.193C42.4982 435.545 41.9382 435.809 41.3142 435.985C40.7062 436.177 40.0662 436.273 39.3942 436.273C38.4182 436.273 37.5542 436.113 36.8022 435.793C36.0502 435.473 35.4102 435.025 34.8822 434.449C34.3702 433.873 33.9782 433.185 33.7062 432.385C33.4502 431.585 33.3222 430.705 33.3222 429.745C33.3222 428.865 33.4582 428.033 33.7302 427.249C34.0182 426.449 34.4182 425.753 34.9302 425.161C35.4582 424.553 36.0902 424.073 36.8262 423.721C37.5622 423.369 38.3942 423.193 39.3222 423.193C40.2982 423.193 41.1702 423.401 41.9382 423.817C42.7222 424.217 43.3702 424.753 43.8822 425.425C44.3942 426.097 44.7622 426.873 44.9862 427.753C45.2262 428.617 45.2902 429.513 45.1782 430.441H36.0582ZM47.0662 418.801H49.8022V425.137H49.8502C50.0422 424.833 50.2742 424.561 50.5462 424.321C50.8182 424.081 51.1142 423.881 51.4342 423.721C51.7702 423.545 52.1142 423.417 52.4662 423.337C52.8342 423.241 53.1942 423.193 53.5462 423.193C54.5222 423.193 55.3702 423.369 56.0902 423.721C56.8262 424.057 57.4342 424.529 57.9142 425.137C58.3942 425.729 58.7542 426.425 58.9942 427.225C59.2342 428.025 59.3542 428.881 59.3542 429.793C59.3542 430.625 59.2422 431.433 59.0182 432.217C58.8102 433.001 58.4822 433.697 58.0342 434.305C57.6022 434.897 57.0502 435.377 56.3782 435.745C55.7062 436.097 54.9142 436.273 54.0022 436.273C53.5862 436.273 53.1622 436.241 52.7302 436.177C52.3142 436.129 51.9142 436.025 51.5302 435.865C51.1462 435.705 50.7942 435.497 50.4742 435.241C50.1702 434.985 49.9142 434.649 49.7062 434.233H49.6582V435.937H47.0662V418.801ZM56.6182 429.745C56.6182 429.185 56.5462 428.641 56.4022 428.113C56.2582 427.585 56.0422 427.121 55.7542 426.721C55.4662 426.305 55.1062 425.977 54.6742 425.737C54.2422 425.481 53.7462 425.353 53.1862 425.353C52.0342 425.353 51.1622 425.753 50.5702 426.553C49.9942 427.353 49.7062 428.417 49.7062 429.745C49.7062 430.369 49.7782 430.953 49.9222 431.497C50.0822 432.025 50.3142 432.481 50.6182 432.865C50.9222 433.249 51.2822 433.553 51.6982 433.777C52.1302 434.001 52.6262 434.113 53.1862 434.113C53.8102 434.113 54.3382 433.985 54.7702 433.729C55.2022 433.473 55.5542 433.145 55.8262 432.745C56.1142 432.329 56.3142 431.865 56.4262 431.353C56.5542 430.825 56.6182 430.289 56.6182 429.745ZM71.794 433.177C71.794 433.513 71.834 433.753 71.914 433.897C72.01 434.041 72.186 434.113 72.442 434.113C72.522 434.113 72.618 434.113 72.73 434.113C72.842 434.113 72.97 434.097 73.114 434.065V435.961C73.018 435.993 72.89 436.025 72.73 436.057C72.586 436.105 72.434 436.145 72.274 436.177C72.114 436.209 71.954 436.233 71.794 436.249C71.634 436.265 71.498 436.273 71.386 436.273C70.826 436.273 70.362 436.161 69.994 435.937C69.626 435.713 69.386 435.321 69.274 434.761C68.73 435.289 68.058 435.673 67.258 435.913C66.474 436.153 65.714 436.273 64.978 436.273C64.418 436.273 63.882 436.193 63.37 436.033C62.858 435.889 62.402 435.673 62.002 435.385C61.618 435.081 61.306 434.705 61.066 434.257C60.842 433.793 60.73 433.257 60.73 432.649C60.73 431.881 60.866 431.257 61.138 430.777C61.426 430.297 61.794 429.921 62.242 429.649C62.706 429.377 63.218 429.185 63.778 429.073C64.354 428.945 64.93 428.849 65.506 428.785C66.002 428.689 66.474 428.625 66.922 428.593C67.37 428.545 67.762 428.473 68.098 428.377C68.45 428.281 68.722 428.137 68.914 427.945C69.122 427.737 69.226 427.433 69.226 427.033C69.226 426.681 69.138 426.393 68.962 426.169C68.802 425.945 68.594 425.777 68.338 425.665C68.098 425.537 67.826 425.457 67.522 425.425C67.218 425.377 66.93 425.353 66.658 425.353C65.89 425.353 65.258 425.513 64.762 425.833C64.266 426.153 63.986 426.649 63.922 427.321H61.186C61.234 426.521 61.426 425.857 61.762 425.329C62.098 424.801 62.522 424.377 63.034 424.057C63.562 423.737 64.154 423.513 64.81 423.385C65.466 423.257 66.138 423.193 66.826 423.193C67.434 423.193 68.034 423.257 68.626 423.385C69.218 423.513 69.746 423.721 70.21 424.009C70.69 424.297 71.074 424.673 71.362 425.137C71.65 425.585 71.794 426.137 71.794 426.793V433.177ZM69.058 429.721C68.642 429.993 68.13 430.161 67.522 430.225C66.914 430.273 66.306 430.353 65.698 430.465C65.41 430.513 65.13 430.585 64.858 430.681C64.586 430.761 64.346 430.881 64.138 431.041C63.93 431.185 63.762 431.385 63.634 431.641C63.522 431.881 63.466 432.177 63.466 432.529C63.466 432.833 63.554 433.089 63.73 433.297C63.906 433.505 64.114 433.673 64.354 433.801C64.61 433.913 64.882 433.993 65.17 434.041C65.474 434.089 65.746 434.113 65.986 434.113C66.29 434.113 66.618 434.073 66.97 433.993C67.322 433.913 67.65 433.777 67.954 433.585C68.274 433.393 68.538 433.153 68.746 432.865C68.954 432.561 69.058 432.193 69.058 431.761V429.721ZM76.538 431.953C76.618 432.753 76.922 433.313 77.45 433.633C77.978 433.953 78.61 434.113 79.346 434.113C79.602 434.113 79.89 434.097 80.21 434.065C80.546 434.017 80.858 433.937 81.146 433.825C81.434 433.713 81.666 433.553 81.842 433.345C82.034 433.121 82.122 432.833 82.106 432.481C82.09 432.129 81.962 431.841 81.722 431.617C81.482 431.393 81.17 431.217 80.786 431.089C80.418 430.945 79.994 430.825 79.514 430.729C79.034 430.633 78.546 430.529 78.05 430.417C77.538 430.305 77.042 430.169 76.562 430.009C76.098 429.849 75.674 429.633 75.29 429.361C74.922 429.089 74.626 428.745 74.402 428.329C74.178 427.897 74.066 427.369 74.066 426.745C74.066 426.073 74.226 425.513 74.546 425.065C74.882 424.601 75.298 424.233 75.794 423.961C76.306 423.673 76.866 423.473 77.474 423.361C78.098 423.249 78.69 423.193 79.25 423.193C79.89 423.193 80.498 423.265 81.074 423.409C81.666 423.537 82.194 423.753 82.658 424.057C83.138 424.361 83.53 424.761 83.834 425.257C84.154 425.737 84.354 426.321 84.434 427.009H81.578C81.45 426.353 81.146 425.913 80.666 425.689C80.202 425.465 79.666 425.353 79.058 425.353C78.866 425.353 78.634 425.369 78.362 425.401C78.106 425.433 77.858 425.497 77.618 425.593C77.394 425.673 77.202 425.801 77.042 425.977C76.882 426.137 76.802 426.353 76.802 426.625C76.802 426.961 76.914 427.233 77.138 427.441C77.378 427.649 77.682 427.825 78.05 427.969C78.434 428.097 78.866 428.209 79.346 428.305C79.826 428.401 80.322 428.505 80.834 428.617C81.33 428.729 81.818 428.865 82.298 429.025C82.778 429.185 83.202 429.401 83.57 429.673C83.954 429.945 84.258 430.289 84.482 430.705C84.722 431.121 84.842 431.633 84.842 432.241C84.842 432.977 84.674 433.601 84.338 434.113C84.002 434.625 83.562 435.041 83.018 435.361C82.49 435.681 81.898 435.913 81.242 436.057C80.586 436.201 79.938 436.273 79.298 436.273C78.514 436.273 77.786 436.185 77.114 436.009C76.458 435.833 75.882 435.569 75.386 435.217C74.906 434.849 74.522 434.401 74.234 433.873C73.962 433.329 73.818 432.689 73.802 431.953H76.538ZM95.1753 428.641C95.1433 428.209 95.0473 427.793 94.8873 427.393C94.7433 426.993 94.5353 426.649 94.2633 426.361C94.0073 426.057 93.6873 425.817 93.3033 425.641C92.9353 425.449 92.5193 425.353 92.0553 425.353C91.5753 425.353 91.1353 425.441 90.7353 425.617C90.3513 425.777 90.0153 426.009 89.7273 426.313C89.4553 426.601 89.2313 426.945 89.0553 427.345C88.8953 427.745 88.8073 428.177 88.7913 428.641H95.1753ZM88.7913 430.441C88.7913 430.921 88.8553 431.385 88.9833 431.833C89.1273 432.281 89.3353 432.673 89.6073 433.009C89.8793 433.345 90.2233 433.617 90.6393 433.825C91.0553 434.017 91.5513 434.113 92.1273 434.113C92.9273 434.113 93.5673 433.945 94.0473 433.609C94.5433 433.257 94.9113 432.737 95.1513 432.049H97.7433C97.5993 432.721 97.3513 433.321 96.9993 433.849C96.6473 434.377 96.2233 434.825 95.7273 435.193C95.2313 435.545 94.6713 435.809 94.0473 435.985C93.4393 436.177 92.7993 436.273 92.1273 436.273C91.1513 436.273 90.2873 436.113 89.5353 435.793C88.7833 435.473 88.1433 435.025 87.6153 434.449C87.1033 433.873 86.7113 433.185 86.4393 432.385C86.1833 431.585 86.0553 430.705 86.0553 429.745C86.0553 428.865 86.1913 428.033 86.4633 427.249C86.7513 426.449 87.1513 425.753 87.6633 425.161C88.1913 424.553 88.8233 424.073 89.5593 423.721C90.2953 423.369 91.1273 423.193 92.0553 423.193C93.0313 423.193 93.9033 423.401 94.6713 423.817C95.4553 424.217 96.1033 424.753 96.6153 425.425C97.1273 426.097 97.4953 426.873 97.7193 427.753C97.9593 428.617 98.0233 429.513 97.9113 430.441H88.7913ZM116.535 433.177C116.535 433.513 116.575 433.753 116.655 433.897C116.751 434.041 116.927 434.113 117.183 434.113C117.263 434.113 117.359 434.113 117.471 434.113C117.583 434.113 117.711 434.097 117.855 434.065V435.961C117.759 435.993 117.631 436.025 117.471 436.057C117.327 436.105 117.175 436.145 117.015 436.177C116.855 436.209 116.695 436.233 116.535 436.249C116.375 436.265 116.239 436.273 116.127 436.273C115.567 436.273 115.103 436.161 114.735 435.937C114.367 435.713 114.127 435.321 114.015 434.761C113.471 435.289 112.799 435.673 111.999 435.913C111.215 436.153 110.455 436.273 109.719 436.273C109.159 436.273 108.623 436.193 108.111 436.033C107.599 435.889 107.143 435.673 106.743 435.385C106.359 435.081 106.047 434.705 105.807 434.257C105.583 433.793 105.471 433.257 105.471 432.649C105.471 431.881 105.607 431.257 105.879 430.777C106.167 430.297 106.535 429.921 106.983 429.649C107.447 429.377 107.959 429.185 108.519 429.073C109.095 428.945 109.671 428.849 110.247 428.785C110.743 428.689 111.215 428.625 111.663 428.593C112.111 428.545 112.503 428.473 112.839 428.377C113.191 428.281 113.463 428.137 113.655 427.945C113.863 427.737 113.967 427.433 113.967 427.033C113.967 426.681 113.879 426.393 113.703 426.169C113.543 425.945 113.335 425.777 113.079 425.665C112.839 425.537 112.567 425.457 112.263 425.425C111.959 425.377 111.671 425.353 111.399 425.353C110.631 425.353 109.999 425.513 109.503 425.833C109.007 426.153 108.727 426.649 108.663 427.321H105.927C105.975 426.521 106.167 425.857 106.503 425.329C106.839 424.801 107.263 424.377 107.775 424.057C108.303 423.737 108.895 423.513 109.551 423.385C110.207 423.257 110.879 423.193 111.567 423.193C112.175 423.193 112.775 423.257 113.367 423.385C113.959 423.513 114.487 423.721 114.951 424.009C115.431 424.297 115.815 424.673 116.103 425.137C116.391 425.585 116.535 426.137 116.535 426.793V433.177ZM113.799 429.721C113.383 429.993 112.871 430.161 112.263 430.225C111.655 430.273 111.047 430.353 110.439 430.465C110.151 430.513 109.871 430.585 109.599 430.681C109.327 430.761 109.087 430.881 108.879 431.041C108.671 431.185 108.503 431.385 108.375 431.641C108.263 431.881 108.207 432.177 108.207 432.529C108.207 432.833 108.295 433.089 108.471 433.297C108.647 433.505 108.855 433.673 109.095 433.801C109.351 433.913 109.623 433.993 109.911 434.041C110.215 434.089 110.487 434.113 110.727 434.113C111.031 434.113 111.359 434.073 111.711 433.993C112.063 433.913 112.391 433.777 112.695 433.585C113.015 433.393 113.279 433.153 113.487 432.865C113.695 432.561 113.799 432.193 113.799 431.761V429.721ZM119.215 423.529H121.807V425.353L121.855 425.401C122.271 424.713 122.815 424.177 123.487 423.793C124.159 423.393 124.903 423.193 125.719 423.193C127.079 423.193 128.151 423.545 128.935 424.249C129.719 424.953 130.111 426.009 130.111 427.417V435.937H127.375V428.137C127.343 427.161 127.135 426.457 126.751 426.025C126.367 425.577 125.767 425.353 124.951 425.353C124.487 425.353 124.071 425.441 123.703 425.617C123.335 425.777 123.023 426.009 122.767 426.313C122.511 426.601 122.311 426.945 122.167 427.345C122.023 427.745 121.951 428.169 121.951 428.617V435.937H119.215V423.529ZM144.42 435.937H141.828V434.257H141.78C141.412 434.977 140.876 435.497 140.172 435.817C139.468 436.121 138.724 436.273 137.94 436.273C136.964 436.273 136.108 436.105 135.372 435.769C134.652 435.417 134.052 434.945 133.572 434.353C133.092 433.761 132.732 433.065 132.492 432.265C132.252 431.449 132.132 430.577 132.132 429.649C132.132 428.529 132.284 427.561 132.588 426.745C132.892 425.929 133.292 425.257 133.788 424.729C134.3 424.201 134.876 423.817 135.516 423.577C136.172 423.321 136.836 423.193 137.508 423.193C137.892 423.193 138.284 423.233 138.684 423.313C139.084 423.377 139.468 423.489 139.836 423.649C140.204 423.809 140.54 424.017 140.844 424.273C141.164 424.513 141.428 424.801 141.636 425.137H141.684V418.801H144.42V435.937ZM134.868 429.865C134.868 430.393 134.932 430.913 135.06 431.425C135.204 431.937 135.412 432.393 135.684 432.793C135.972 433.193 136.332 433.513 136.764 433.753C137.196 433.993 137.708 434.113 138.3 434.113C138.908 434.113 139.428 433.985 139.86 433.729C140.308 433.473 140.668 433.137 140.94 432.721C141.228 432.305 141.436 431.841 141.564 431.329C141.708 430.801 141.78 430.265 141.78 429.721C141.78 428.345 141.468 427.273 140.844 426.505C140.236 425.737 139.404 425.353 138.348 425.353C137.708 425.353 137.164 425.489 136.716 425.761C136.284 426.017 135.924 426.361 135.636 426.793C135.364 427.209 135.164 427.689 135.036 428.233C134.924 428.761 134.868 429.305 134.868 429.865ZM153.556 423.529H156.148V425.257H156.22C156.428 424.953 156.652 424.673 156.892 424.417C157.132 424.161 157.396 423.945 157.684 423.769C157.988 423.593 158.332 423.457 158.716 423.361C159.1 423.249 159.54 423.193 160.036 423.193C160.788 423.193 161.484 423.361 162.124 423.697C162.78 424.033 163.244 424.553 163.516 425.257C163.98 424.617 164.516 424.113 165.124 423.745C165.732 423.377 166.492 423.193 167.404 423.193C168.716 423.193 169.732 423.513 170.452 424.153C171.188 424.793 171.556 425.865 171.556 427.369V435.937H168.82V428.689C168.82 428.193 168.804 427.745 168.772 427.345C168.74 426.929 168.644 426.577 168.484 426.289C168.34 425.985 168.116 425.753 167.812 425.593C167.508 425.433 167.092 425.353 166.564 425.353C165.636 425.353 164.964 425.641 164.548 426.217C164.132 426.793 163.924 427.609 163.924 428.665V435.937H161.188V427.969C161.188 427.105 161.028 426.457 160.708 426.025C160.404 425.577 159.836 425.353 159.004 425.353C158.652 425.353 158.308 425.425 157.972 425.569C157.652 425.713 157.364 425.921 157.108 426.193C156.868 426.465 156.668 426.801 156.508 427.201C156.364 427.601 156.292 428.057 156.292 428.569V435.937H153.556V423.529ZM182.694 428.641C182.662 428.209 182.566 427.793 182.406 427.393C182.262 426.993 182.054 426.649 181.782 426.361C181.526 426.057 181.206 425.817 180.822 425.641C180.454 425.449 180.038 425.353 179.574 425.353C179.094 425.353 178.654 425.441 178.254 425.617C177.87 425.777 177.534 426.009 177.246 426.313C176.974 426.601 176.75 426.945 176.574 427.345C176.414 427.745 176.326 428.177 176.31 428.641H182.694ZM176.31 430.441C176.31 430.921 176.374 431.385 176.502 431.833C176.646 432.281 176.854 432.673 177.126 433.009C177.398 433.345 177.742 433.617 178.158 433.825C178.574 434.017 179.07 434.113 179.646 434.113C180.446 434.113 181.086 433.945 181.566 433.609C182.062 433.257 182.43 432.737 182.67 432.049H185.262C185.118 432.721 184.87 433.321 184.518 433.849C184.166 434.377 183.742 434.825 183.246 435.193C182.75 435.545 182.19 435.809 181.566 435.985C180.958 436.177 180.318 436.273 179.646 436.273C178.67 436.273 177.806 436.113 177.054 435.793C176.302 435.473 175.662 435.025 175.134 434.449C174.622 433.873 174.23 433.185 173.958 432.385C173.702 431.585 173.574 430.705 173.574 429.745C173.574 428.865 173.71 428.033 173.982 427.249C174.27 426.449 174.67 425.753 175.182 425.161C175.71 424.553 176.342 424.073 177.078 423.721C177.814 423.369 178.646 423.193 179.574 423.193C180.55 423.193 181.422 423.401 182.19 423.817C182.974 424.217 183.622 424.753 184.134 425.425C184.646 426.097 185.014 426.873 185.238 427.753C185.478 428.617 185.542 429.513 185.43 430.441H176.31ZM187.246 423.529H189.814V425.929H189.862C189.942 425.593 190.094 425.265 190.318 424.945C190.558 424.625 190.838 424.337 191.158 424.081C191.494 423.809 191.862 423.593 192.262 423.433C192.662 423.273 193.07 423.193 193.486 423.193C193.806 423.193 194.022 423.201 194.134 423.217C194.262 423.233 194.39 423.249 194.518 423.265V425.905C194.326 425.873 194.126 425.849 193.918 425.833C193.726 425.801 193.534 425.785 193.342 425.785C192.878 425.785 192.438 425.881 192.022 426.073C191.622 426.249 191.27 426.521 190.966 426.889C190.662 427.241 190.422 427.681 190.246 428.209C190.07 428.737 189.982 429.345 189.982 430.033V435.937H187.246V423.529ZM206.892 435.289C206.892 437.161 206.364 438.553 205.308 439.465C204.268 440.393 202.764 440.857 200.796 440.857C200.172 440.857 199.54 440.793 198.9 440.665C198.276 440.537 197.7 440.321 197.172 440.017C196.66 439.713 196.228 439.313 195.876 438.817C195.524 438.321 195.316 437.713 195.252 436.993H197.988C198.068 437.377 198.204 437.689 198.396 437.929C198.588 438.169 198.812 438.353 199.068 438.481C199.34 438.625 199.636 438.713 199.956 438.745C200.276 438.793 200.612 438.817 200.964 438.817C202.068 438.817 202.876 438.545 203.388 438.001C203.9 437.457 204.156 436.673 204.156 435.649V433.753H204.108C203.724 434.441 203.196 434.977 202.524 435.361C201.868 435.745 201.156 435.937 200.388 435.937C199.396 435.937 198.548 435.769 197.844 435.433C197.156 435.081 196.58 434.609 196.116 434.017C195.668 433.409 195.34 432.713 195.132 431.929C194.924 431.145 194.82 430.305 194.82 429.409C194.82 428.577 194.948 427.785 195.204 427.033C195.46 426.281 195.828 425.625 196.308 425.065C196.788 424.489 197.372 424.033 198.06 423.697C198.764 423.361 199.556 423.193 200.436 423.193C201.22 423.193 201.94 423.361 202.596 423.697C203.252 424.017 203.756 424.529 204.108 425.233H204.156V423.529H206.892V435.289ZM200.82 433.777C201.428 433.777 201.94 433.657 202.356 433.417C202.788 433.161 203.132 432.833 203.388 432.433C203.66 432.017 203.852 431.553 203.964 431.041C204.092 430.513 204.156 429.985 204.156 429.457C204.156 428.929 204.092 428.417 203.964 427.921C203.836 427.425 203.636 426.985 203.364 426.601C203.108 426.217 202.764 425.913 202.332 425.689C201.916 425.465 201.412 425.353 200.82 425.353C200.212 425.353 199.7 425.481 199.284 425.737C198.868 425.993 198.532 426.329 198.276 426.745C198.02 427.145 197.836 427.609 197.724 428.137C197.612 428.649 197.556 429.161 197.556 429.673C197.556 430.185 197.62 430.689 197.748 431.185C197.876 431.665 198.068 432.097 198.324 432.481C198.596 432.865 198.932 433.177 199.332 433.417C199.748 433.657 200.244 433.777 200.82 433.777ZM217.902 428.641C217.87 428.209 217.774 427.793 217.614 427.393C217.47 426.993 217.262 426.649 216.99 426.361C216.734 426.057 216.414 425.817 216.03 425.641C215.662 425.449 215.246 425.353 214.782 425.353C214.302 425.353 213.862 425.441 213.462 425.617C213.078 425.777 212.742 426.009 212.454 426.313C212.182 426.601 211.958 426.945 211.782 427.345C211.622 427.745 211.534 428.177 211.518 428.641H217.902ZM211.518 430.441C211.518 430.921 211.582 431.385 211.71 431.833C211.854 432.281 212.062 432.673 212.334 433.009C212.606 433.345 212.95 433.617 213.366 433.825C213.782 434.017 214.278 434.113 214.854 434.113C215.654 434.113 216.294 433.945 216.774 433.609C217.27 433.257 217.638 432.737 217.878 432.049H220.47C220.326 432.721 220.078 433.321 219.726 433.849C219.374 434.377 218.95 434.825 218.454 435.193C217.958 435.545 217.398 435.809 216.774 435.985C216.166 436.177 215.526 436.273 214.854 436.273C213.878 436.273 213.014 436.113 212.262 435.793C211.51 435.473 210.87 435.025 210.342 434.449C209.83 433.873 209.438 433.185 209.166 432.385C208.91 431.585 208.782 430.705 208.782 429.745C208.782 428.865 208.918 428.033 209.19 427.249C209.478 426.449 209.878 425.753 210.39 425.161C210.918 424.553 211.55 424.073 212.286 423.721C213.022 423.369 213.854 423.193 214.782 423.193C215.758 423.193 216.63 423.401 217.398 423.817C218.182 424.217 218.83 424.753 219.342 425.425C219.854 426.097 220.222 426.873 220.446 427.753C220.686 428.617 220.75 429.513 220.638 430.441H211.518Z" fill="black"/>
<path d="M29.2398 22.312C29.1118 21.816 28.9358 21.36 28.7118 20.944C28.4878 20.528 28.1998 20.168 27.8478 19.864C27.4958 19.56 27.0798 19.328 26.5998 19.168C26.1358 18.992 25.5918 18.904 24.9678 18.904C24.0558 18.904 23.2638 19.088 22.5918 19.456C21.9358 19.824 21.3998 20.32 20.9838 20.944C20.5678 21.552 20.2558 22.248 20.0478 23.032C19.8558 23.816 19.7598 24.616 19.7598 25.432C19.7598 26.248 19.8558 27.048 20.0478 27.832C20.2558 28.616 20.5678 29.32 20.9838 29.944C21.3998 30.552 21.9358 31.04 22.5918 31.408C23.2638 31.776 24.0558 31.96 24.9678 31.96C25.6398 31.96 26.2318 31.848 26.7438 31.624C27.2558 31.384 27.6958 31.064 28.0638 30.664C28.4318 30.248 28.7198 29.768 28.9278 29.224C29.1358 28.68 29.2718 28.096 29.3358 27.472H32.2638C32.1998 28.496 31.9758 29.432 31.5918 30.28C31.2238 31.128 30.7198 31.864 30.0798 32.488C29.4398 33.096 28.6878 33.568 27.8238 33.904C26.9598 34.24 26.0078 34.408 24.9678 34.408C23.6878 34.408 22.5358 34.176 21.5118 33.712C20.5038 33.232 19.6478 32.584 18.9438 31.768C18.2398 30.952 17.6958 30 17.3118 28.912C16.9438 27.824 16.7598 26.664 16.7598 25.432C16.7598 24.216 16.9438 23.064 17.3118 21.976C17.6958 20.888 18.2398 19.936 18.9438 19.12C19.6478 18.304 20.5038 17.656 21.5118 17.176C22.5358 16.696 23.6878 16.456 24.9678 16.456C25.9278 16.456 26.8318 16.592 27.6798 16.864C28.5278 17.12 29.2718 17.504 29.9118 18.016C30.5678 18.512 31.0958 19.12 31.4958 19.84C31.8958 20.56 32.1438 21.384 32.2398 22.312H29.2398ZM34.3441 21.592H36.9121V23.992H36.9601C37.0401 23.656 37.1921 23.328 37.4161 23.008C37.6561 22.688 37.9361 22.4 38.2561 22.144C38.5921 21.872 38.9601 21.656 39.3601 21.496C39.7601 21.336 40.1681 21.256 40.5841 21.256C40.9041 21.256 41.1201 21.264 41.2321 21.28C41.3601 21.296 41.4881 21.312 41.6161 21.328V23.968C41.4241 23.936 41.2241 23.912 41.0161 23.896C40.8241 23.864 40.6321 23.848 40.4401 23.848C39.9761 23.848 39.5361 23.944 39.1201 24.136C38.7201 24.312 38.3681 24.584 38.0641 24.952C37.7601 25.304 37.5201 25.744 37.3441 26.272C37.1681 26.8 37.0801 27.408 37.0801 28.096V34H34.3441V21.592ZM50.6157 26.704C50.5837 26.272 50.4877 25.856 50.3277 25.456C50.1837 25.056 49.9757 24.712 49.7037 24.424C49.4477 24.12 49.1277 23.88 48.7437 23.704C48.3757 23.512 47.9597 23.416 47.4957 23.416C47.0157 23.416 46.5757 23.504 46.1757 23.68C45.7917 23.84 45.4557 24.072 45.1677 24.376C44.8957 24.664 44.6717 25.008 44.4957 25.408C44.3357 25.808 44.2477 26.24 44.2317 26.704H50.6157ZM44.2317 28.504C44.2317 28.984 44.2957 29.448 44.4237 29.896C44.5677 30.344 44.7757 30.736 45.0477 31.072C45.3197 31.408 45.6637 31.68 46.0797 31.888C46.4957 32.08 46.9917 32.176 47.5677 32.176C48.3677 32.176 49.0077 32.008 49.4877 31.672C49.9837 31.32 50.3517 30.8 50.5917 30.112H53.1837C53.0397 30.784 52.7917 31.384 52.4397 31.912C52.0877 32.44 51.6637 32.888 51.1677 33.256C50.6717 33.608 50.1117 33.872 49.4877 34.048C48.8797 34.24 48.2397 34.336 47.5677 34.336C46.5917 34.336 45.7277 34.176 44.9757 33.856C44.2237 33.536 43.5837 33.088 43.0557 32.512C42.5437 31.936 42.1517 31.248 41.8797 30.448C41.6237 29.648 41.4957 28.768 41.4957 27.808C41.4957 26.928 41.6317 26.096 41.9037 25.312C42.1917 24.512 42.5917 23.816 43.1037 23.224C43.6317 22.616 44.2637 22.136 44.9997 21.784C45.7357 21.432 46.5677 21.256 47.4957 21.256C48.4717 21.256 49.3437 21.464 50.1117 21.88C50.8957 22.28 51.5437 22.816 52.0557 23.488C52.5677 24.16 52.9357 24.936 53.1597 25.816C53.3997 26.68 53.4637 27.576 53.3517 28.504H44.2317ZM65.5597 31.24C65.5597 31.576 65.5997 31.816 65.6797 31.96C65.7757 32.104 65.9517 32.176 66.2077 32.176C66.2877 32.176 66.3837 32.176 66.4957 32.176C66.6077 32.176 66.7357 32.16 66.8797 32.128V34.024C66.7837 34.056 66.6557 34.088 66.4957 34.12C66.3517 34.168 66.1997 34.208 66.0397 34.24C65.8797 34.272 65.7197 34.296 65.5597 34.312C65.3997 34.328 65.2637 34.336 65.1517 34.336C64.5917 34.336 64.1277 34.224 63.7597 34C63.3917 33.776 63.1517 33.384 63.0397 32.824C62.4957 33.352 61.8237 33.736 61.0237 33.976C60.2397 34.216 59.4797 34.336 58.7437 34.336C58.1837 34.336 57.6477 34.256 57.1357 34.096C56.6237 33.952 56.1677 33.736 55.7677 33.448C55.3837 33.144 55.0717 32.768 54.8317 32.32C54.6077 31.856 54.4957 31.32 54.4957 30.712C54.4957 29.944 54.6317 29.32 54.9037 28.84C55.1917 28.36 55.5597 27.984 56.0077 27.712C56.4717 27.44 56.9837 27.248 57.5437 27.136C58.1197 27.008 58.6957 26.912 59.2717 26.848C59.7677 26.752 60.2397 26.688 60.6877 26.656C61.1357 26.608 61.5277 26.536 61.8637 26.44C62.2157 26.344 62.4877 26.2 62.6797 26.008C62.8877 25.8 62.9917 25.496 62.9917 25.096C62.9917 24.744 62.9037 24.456 62.7277 24.232C62.5677 24.008 62.3597 23.84 62.1037 23.728C61.8637 23.6 61.5917 23.52 61.2877 23.488C60.9837 23.44 60.6957 23.416 60.4237 23.416C59.6557 23.416 59.0237 23.576 58.5277 23.896C58.0317 24.216 57.7517 24.712 57.6877 25.384H54.9517C54.9997 24.584 55.1917 23.92 55.5277 23.392C55.8637 22.864 56.2877 22.44 56.7997 22.12C57.3277 21.8 57.9197 21.576 58.5757 21.448C59.2317 21.32 59.9037 21.256 60.5917 21.256C61.1997 21.256 61.7997 21.32 62.3917 21.448C62.9837 21.576 63.5117 21.784 63.9757 22.072C64.4557 22.36 64.8397 22.736 65.1277 23.2C65.4157 23.648 65.5597 24.2 65.5597 24.856V31.24ZM62.8237 27.784C62.4077 28.056 61.8957 28.224 61.2877 28.288C60.6797 28.336 60.0717 28.416 59.4637 28.528C59.1757 28.576 58.8957 28.648 58.6237 28.744C58.3517 28.824 58.1117 28.944 57.9037 29.104C57.6957 29.248 57.5277 29.448 57.3997 29.704C57.2877 29.944 57.2317 30.24 57.2317 30.592C57.2317 30.896 57.3197 31.152 57.4957 31.36C57.6717 31.568 57.8797 31.736 58.1197 31.864C58.3757 31.976 58.6477 32.056 58.9357 32.104C59.2397 32.152 59.5117 32.176 59.7517 32.176C60.0557 32.176 60.3837 32.136 60.7357 32.056C61.0877 31.976 61.4157 31.84 61.7197 31.648C62.0397 31.456 62.3037 31.216 62.5117 30.928C62.7197 30.624 62.8237 30.256 62.8237 29.824V27.784ZM66.9916 21.592H69.0556V17.872H71.7916V21.592H74.2636V23.632H71.7916V30.256C71.7916 30.544 71.7996 30.792 71.8156 31C71.8476 31.208 71.9036 31.384 71.9836 31.528C72.0796 31.672 72.2156 31.784 72.3916 31.864C72.5676 31.928 72.8076 31.96 73.1116 31.96C73.3036 31.96 73.4956 31.96 73.6876 31.96C73.8796 31.944 74.0716 31.912 74.2636 31.864V33.976C73.9596 34.008 73.6636 34.04 73.3756 34.072C73.0876 34.104 72.7916 34.12 72.4876 34.12C71.7676 34.12 71.1836 34.056 70.7356 33.928C70.3036 33.784 69.9596 33.584 69.7036 33.328C69.4636 33.056 69.2956 32.72 69.1996 32.32C69.1196 31.92 69.0716 31.464 69.0556 30.952V23.632H66.9916V21.592ZM84.4878 26.704C84.4558 26.272 84.3598 25.856 84.1998 25.456C84.0558 25.056 83.8478 24.712 83.5758 24.424C83.3198 24.12 82.9998 23.88 82.6158 23.704C82.2478 23.512 81.8318 23.416 81.3678 23.416C80.8878 23.416 80.4478 23.504 80.0478 23.68C79.6638 23.84 79.3278 24.072 79.0398 24.376C78.7678 24.664 78.5438 25.008 78.3678 25.408C78.2078 25.808 78.1198 26.24 78.1038 26.704H84.4878ZM78.1038 28.504C78.1038 28.984 78.1678 29.448 78.2958 29.896C78.4398 30.344 78.6478 30.736 78.9198 31.072C79.1918 31.408 79.5358 31.68 79.9518 31.888C80.3678 32.08 80.8638 32.176 81.4398 32.176C82.2398 32.176 82.8798 32.008 83.3598 31.672C83.8558 31.32 84.2238 30.8 84.4638 30.112H87.0558C86.9118 30.784 86.6638 31.384 86.3118 31.912C85.9598 32.44 85.5358 32.888 85.0398 33.256C84.5438 33.608 83.9838 33.872 83.3598 34.048C82.7518 34.24 82.1118 34.336 81.4398 34.336C80.4638 34.336 79.5998 34.176 78.8478 33.856C78.0958 33.536 77.4558 33.088 76.9278 32.512C76.4158 31.936 76.0238 31.248 75.7518 30.448C75.4958 29.648 75.3678 28.768 75.3678 27.808C75.3678 26.928 75.5038 26.096 75.7758 25.312C76.0638 24.512 76.4638 23.816 76.9758 23.224C77.5038 22.616 78.1358 22.136 78.8718 21.784C79.6078 21.432 80.4398 21.256 81.3678 21.256C82.3438 21.256 83.2158 21.464 83.9838 21.88C84.7678 22.28 85.4158 22.816 85.9278 23.488C86.4398 24.16 86.8078 24.936 87.0318 25.816C87.2718 26.68 87.3358 27.576 87.2238 28.504H78.1038ZM105.847 31.24C105.847 31.576 105.887 31.816 105.967 31.96C106.063 32.104 106.239 32.176 106.495 32.176C106.575 32.176 106.671 32.176 106.783 32.176C106.895 32.176 107.023 32.16 107.167 32.128V34.024C107.071 34.056 106.943 34.088 106.783 34.12C106.639 34.168 106.487 34.208 106.327 34.24C106.167 34.272 106.007 34.296 105.847 34.312C105.687 34.328 105.551 34.336 105.439 34.336C104.879 34.336 104.415 34.224 104.047 34C103.679 33.776 103.439 33.384 103.327 32.824C102.783 33.352 102.111 33.736 101.311 33.976C100.527 34.216 99.7674 34.336 99.0314 34.336C98.4714 34.336 97.9354 34.256 97.4234 34.096C96.9114 33.952 96.4554 33.736 96.0554 33.448C95.6714 33.144 95.3594 32.768 95.1194 32.32C94.8954 31.856 94.7834 31.32 94.7834 30.712C94.7834 29.944 94.9194 29.32 95.1914 28.84C95.4794 28.36 95.8474 27.984 96.2954 27.712C96.7594 27.44 97.2714 27.248 97.8314 27.136C98.4074 27.008 98.9834 26.912 99.5594 26.848C100.055 26.752 100.527 26.688 100.975 26.656C101.423 26.608 101.815 26.536 102.151 26.44C102.503 26.344 102.775 26.2 102.967 26.008C103.175 25.8 103.279 25.496 103.279 25.096C103.279 24.744 103.191 24.456 103.015 24.232C102.855 24.008 102.647 23.84 102.391 23.728C102.151 23.6 101.879 23.52 101.575 23.488C101.271 23.44 100.983 23.416 100.711 23.416C99.9434 23.416 99.3114 23.576 98.8154 23.896C98.3194 24.216 98.0394 24.712 97.9754 25.384H95.2394C95.2874 24.584 95.4794 23.92 95.8154 23.392C96.1514 22.864 96.5754 22.44 97.0874 22.12C97.6154 21.8 98.2074 21.576 98.8634 21.448C99.5194 21.32 100.191 21.256 100.879 21.256C101.487 21.256 102.087 21.32 102.679 21.448C103.271 21.576 103.799 21.784 104.263 22.072C104.743 22.36 105.127 22.736 105.415 23.2C105.703 23.648 105.847 24.2 105.847 24.856V31.24ZM103.111 27.784C102.695 28.056 102.183 28.224 101.575 28.288C100.967 28.336 100.359 28.416 99.7514 28.528C99.4634 28.576 99.1834 28.648 98.9114 28.744C98.6394 28.824 98.3994 28.944 98.1914 29.104C97.9834 29.248 97.8154 29.448 97.6874 29.704C97.5754 29.944 97.5194 30.24 97.5194 30.592C97.5194 30.896 97.6074 31.152 97.7834 31.36C97.9594 31.568 98.1674 31.736 98.4074 31.864C98.6634 31.976 98.9354 32.056 99.2234 32.104C99.5274 32.152 99.7994 32.176 100.039 32.176C100.343 32.176 100.671 32.136 101.023 32.056C101.375 31.976 101.703 31.84 102.007 31.648C102.327 31.456 102.591 31.216 102.799 30.928C103.007 30.624 103.111 30.256 103.111 29.824V27.784ZM114.943 21.592H117.535V23.32H117.607C117.815 23.016 118.039 22.736 118.279 22.48C118.519 22.224 118.783 22.008 119.071 21.832C119.375 21.656 119.719 21.52 120.103 21.424C120.487 21.312 120.927 21.256 121.423 21.256C122.175 21.256 122.871 21.424 123.511 21.76C124.167 22.096 124.631 22.616 124.903 23.32C125.367 22.68 125.903 22.176 126.511 21.808C127.119 21.44 127.879 21.256 128.791 21.256C130.103 21.256 131.119 21.576 131.839 22.216C132.575 22.856 132.943 23.928 132.943 25.432V34H130.207V26.752C130.207 26.256 130.191 25.808 130.159 25.408C130.127 24.992 130.031 24.64 129.871 24.352C129.727 24.048 129.503 23.816 129.199 23.656C128.895 23.496 128.479 23.416 127.951 23.416C127.023 23.416 126.351 23.704 125.935 24.28C125.519 24.856 125.311 25.672 125.311 26.728V34H122.575V26.032C122.575 25.168 122.415 24.52 122.095 24.088C121.791 23.64 121.223 23.416 120.391 23.416C120.039 23.416 119.695 23.488 119.359 23.632C119.039 23.776 118.751 23.984 118.495 24.256C118.255 24.528 118.055 24.864 117.895 25.264C117.751 25.664 117.679 26.12 117.679 26.632V34H114.943V21.592ZM144.082 26.704C144.05 26.272 143.954 25.856 143.794 25.456C143.65 25.056 143.442 24.712 143.17 24.424C142.914 24.12 142.594 23.88 142.21 23.704C141.842 23.512 141.426 23.416 140.962 23.416C140.482 23.416 140.042 23.504 139.642 23.68C139.258 23.84 138.922 24.072 138.634 24.376C138.362 24.664 138.138 25.008 137.962 25.408C137.802 25.808 137.714 26.24 137.698 26.704H144.082ZM137.698 28.504C137.698 28.984 137.762 29.448 137.89 29.896C138.034 30.344 138.242 30.736 138.514 31.072C138.786 31.408 139.13 31.68 139.546 31.888C139.962 32.08 140.458 32.176 141.034 32.176C141.834 32.176 142.474 32.008 142.954 31.672C143.45 31.32 143.818 30.8 144.058 30.112H146.65C146.506 30.784 146.258 31.384 145.906 31.912C145.554 32.44 145.13 32.888 144.634 33.256C144.138 33.608 143.578 33.872 142.954 34.048C142.346 34.24 141.706 34.336 141.034 34.336C140.058 34.336 139.194 34.176 138.442 33.856C137.69 33.536 137.05 33.088 136.522 32.512C136.01 31.936 135.618 31.248 135.346 30.448C135.09 29.648 134.962 28.768 134.962 27.808C134.962 26.928 135.098 26.096 135.37 25.312C135.658 24.512 136.058 23.816 136.57 23.224C137.098 22.616 137.73 22.136 138.466 21.784C139.202 21.432 140.034 21.256 140.962 21.256C141.938 21.256 142.81 21.464 143.578 21.88C144.362 22.28 145.01 22.816 145.522 23.488C146.034 24.16 146.402 24.936 146.626 25.816C146.866 26.68 146.93 27.576 146.818 28.504H137.698ZM148.634 21.592H151.202V23.992H151.25C151.33 23.656 151.482 23.328 151.706 23.008C151.946 22.688 152.226 22.4 152.546 22.144C152.882 21.872 153.25 21.656 153.65 21.496C154.05 21.336 154.458 21.256 154.874 21.256C155.194 21.256 155.41 21.264 155.522 21.28C155.65 21.296 155.778 21.312 155.906 21.328V23.968C155.714 23.936 155.514 23.912 155.306 23.896C155.114 23.864 154.922 23.848 154.73 23.848C154.266 23.848 153.826 23.944 153.41 24.136C153.01 24.312 152.658 24.584 152.354 24.952C152.05 25.304 151.81 25.744 151.634 26.272C151.458 26.8 151.37 27.408 151.37 28.096V34H148.634V21.592ZM168.279 33.352C168.279 35.224 167.751 36.616 166.695 37.528C165.655 38.456 164.151 38.92 162.183 38.92C161.559 38.92 160.927 38.856 160.287 38.728C159.663 38.6 159.087 38.384 158.559 38.08C158.047 37.776 157.615 37.376 157.263 36.88C156.911 36.384 156.703 35.776 156.639 35.056H159.375C159.455 35.44 159.591 35.752 159.783 35.992C159.975 36.232 160.199 36.416 160.455 36.544C160.727 36.688 161.023 36.776 161.343 36.808C161.663 36.856 161.999 36.88 162.351 36.88C163.455 36.88 164.263 36.608 164.775 36.064C165.287 35.52 165.543 34.736 165.543 33.712V31.816H165.495C165.111 32.504 164.583 33.04 163.911 33.424C163.255 33.808 162.543 34 161.775 34C160.783 34 159.935 33.832 159.231 33.496C158.543 33.144 157.967 32.672 157.503 32.08C157.055 31.472 156.727 30.776 156.519 29.992C156.311 29.208 156.207 28.368 156.207 27.472C156.207 26.64 156.335 25.848 156.591 25.096C156.847 24.344 157.215 23.688 157.695 23.128C158.175 22.552 158.759 22.096 159.447 21.76C160.151 21.424 160.943 21.256 161.823 21.256C162.607 21.256 163.327 21.424 163.983 21.76C164.639 22.08 165.143 22.592 165.495 23.296H165.543V21.592H168.279V33.352ZM162.207 31.84C162.815 31.84 163.327 31.72 163.743 31.48C164.175 31.224 164.519 30.896 164.775 30.496C165.047 30.08 165.239 29.616 165.351 29.104C165.479 28.576 165.543 28.048 165.543 27.52C165.543 26.992 165.479 26.48 165.351 25.984C165.223 25.488 165.023 25.048 164.751 24.664C164.495 24.28 164.151 23.976 163.719 23.752C163.303 23.528 162.799 23.416 162.207 23.416C161.599 23.416 161.087 23.544 160.671 23.8C160.255 24.056 159.919 24.392 159.663 24.808C159.407 25.208 159.223 25.672 159.111 26.2C158.999 26.712 158.943 27.224 158.943 27.736C158.943 28.248 159.007 28.752 159.135 29.248C159.263 29.728 159.455 30.16 159.711 30.544C159.983 30.928 160.319 31.24 160.719 31.48C161.135 31.72 161.631 31.84 162.207 31.84ZM179.29 26.704C179.258 26.272 179.162 25.856 179.002 25.456C178.858 25.056 178.65 24.712 178.378 24.424C178.122 24.12 177.802 23.88 177.418 23.704C177.05 23.512 176.634 23.416 176.17 23.416C175.69 23.416 175.25 23.504 174.85 23.68C174.466 23.84 174.13 24.072 173.842 24.376C173.57 24.664 173.346 25.008 173.17 25.408C173.01 25.808 172.922 26.24 172.906 26.704H179.29ZM172.906 28.504C172.906 28.984 172.97 29.448 173.098 29.896C173.242 30.344 173.45 30.736 173.722 31.072C173.994 31.408 174.338 31.68 174.754 31.888C175.17 32.08 175.666 32.176 176.242 32.176C177.042 32.176 177.682 32.008 178.162 31.672C178.658 31.32 179.026 30.8 179.266 30.112H181.858C181.714 30.784 181.466 31.384 181.114 31.912C180.762 32.44 180.338 32.888 179.842 33.256C179.346 33.608 178.786 33.872 178.162 34.048C177.554 34.24 176.914 34.336 176.242 34.336C175.266 34.336 174.402 34.176 173.65 33.856C172.898 33.536 172.258 33.088 171.73 32.512C171.218 31.936 170.826 31.248 170.554 30.448C170.298 29.648 170.17 28.768 170.17 27.808C170.17 26.928 170.306 26.096 170.578 25.312C170.866 24.512 171.266 23.816 171.778 23.224C172.306 22.616 172.938 22.136 173.674 21.784C174.41 21.432 175.242 21.256 176.17 21.256C177.146 21.256 178.018 21.464 178.786 21.88C179.57 22.28 180.218 22.816 180.73 23.488C181.242 24.16 181.61 24.936 181.834 25.816C182.074 26.68 182.138 27.576 182.026 28.504H172.906ZM198.633 25.744C198.521 24.976 198.209 24.4 197.697 24.016C197.201 23.616 196.569 23.416 195.801 23.416C195.449 23.416 195.073 23.48 194.673 23.608C194.273 23.72 193.905 23.944 193.569 24.28C193.233 24.6 192.953 25.056 192.729 25.648C192.505 26.224 192.393 26.984 192.393 27.928C192.393 28.44 192.449 28.952 192.561 29.464C192.689 29.976 192.881 30.432 193.137 30.832C193.409 31.232 193.753 31.56 194.169 31.816C194.585 32.056 195.089 32.176 195.681 32.176C196.481 32.176 197.137 31.928 197.649 31.432C198.177 30.936 198.505 30.24 198.633 29.344H201.369C201.113 30.96 200.497 32.2 199.521 33.064C198.561 33.912 197.281 34.336 195.681 34.336C194.705 34.336 193.841 34.176 193.089 33.856C192.353 33.52 191.729 33.072 191.217 32.512C190.705 31.936 190.313 31.256 190.041 30.472C189.785 29.688 189.657 28.84 189.657 27.928C189.657 27 189.785 26.128 190.041 25.312C190.297 24.496 190.681 23.792 191.193 23.2C191.705 22.592 192.337 22.12 193.089 21.784C193.857 21.432 194.753 21.256 195.777 21.256C196.497 21.256 197.177 21.352 197.817 21.544C198.473 21.72 199.049 21.992 199.545 22.36C200.057 22.728 200.473 23.192 200.793 23.752C201.113 24.312 201.305 24.976 201.369 25.744H198.633ZM209.017 34.336C208.025 34.336 207.137 34.176 206.353 33.856C205.585 33.52 204.929 33.064 204.385 32.488C203.857 31.912 203.449 31.224 203.161 30.424C202.889 29.624 202.753 28.744 202.753 27.784C202.753 26.84 202.889 25.968 203.161 25.168C203.449 24.368 203.857 23.68 204.385 23.104C204.929 22.528 205.585 22.08 206.353 21.76C207.137 21.424 208.025 21.256 209.017 21.256C210.009 21.256 210.889 21.424 211.657 21.76C212.441 22.08 213.097 22.528 213.625 23.104C214.169 23.68 214.577 24.368 214.849 25.168C215.137 25.968 215.281 26.84 215.281 27.784C215.281 28.744 215.137 29.624 214.849 30.424C214.577 31.224 214.169 31.912 213.625 32.488C213.097 33.064 212.441 33.52 211.657 33.856C210.889 34.176 210.009 34.336 209.017 34.336ZM209.017 32.176C209.625 32.176 210.153 32.048 210.601 31.792C211.049 31.536 211.417 31.2 211.705 30.784C211.993 30.368 212.201 29.904 212.329 29.392C212.473 28.864 212.545 28.328 212.545 27.784C212.545 27.256 212.473 26.728 212.329 26.2C212.201 25.672 211.993 25.208 211.705 24.808C211.417 24.392 211.049 24.056 210.601 23.8C210.153 23.544 209.625 23.416 209.017 23.416C208.409 23.416 207.881 23.544 207.433 23.8C206.985 24.056 206.617 24.392 206.329 24.808C206.041 25.208 205.825 25.672 205.681 26.2C205.553 26.728 205.489 27.256 205.489 27.784C205.489 28.328 205.553 28.864 205.681 29.392C205.825 29.904 206.041 30.368 206.329 30.784C206.617 31.2 206.985 31.536 207.433 31.792C207.881 32.048 208.409 32.176 209.017 32.176ZM217.292 21.592H219.884V23.32H219.956C220.164 23.016 220.388 22.736 220.628 22.48C220.868 22.224 221.132 22.008 221.42 21.832C221.724 21.656 222.068 21.52 222.452 21.424C222.836 21.312 223.276 21.256 223.772 21.256C224.524 21.256 225.22 21.424 225.86 21.76C226.516 22.096 226.98 22.616 227.252 23.32C227.716 22.68 228.252 22.176 228.86 21.808C229.468 21.44 230.228 21.256 231.14 21.256C232.452 21.256 233.468 21.576 234.188 22.216C234.924 22.856 235.292 23.928 235.292 25.432V34H232.556V26.752C232.556 26.256 232.54 25.808 232.508 25.408C232.476 24.992 232.38 24.64 232.22 24.352C232.076 24.048 231.852 23.816 231.548 23.656C231.244 23.496 230.828 23.416 230.3 23.416C229.372 23.416 228.7 23.704 228.284 24.28C227.868 24.856 227.66 25.672 227.66 26.728V34H224.924V26.032C224.924 25.168 224.764 24.52 224.444 24.088C224.14 23.64 223.572 23.416 222.74 23.416C222.388 23.416 222.044 23.488 221.708 23.632C221.388 23.776 221.1 23.984 220.844 24.256C220.604 24.528 220.404 24.864 220.244 25.264C220.1 25.664 220.028 26.12 220.028 26.632V34H217.292V21.592ZM237.911 21.592H240.503V23.32H240.575C240.783 23.016 241.007 22.736 241.247 22.48C241.487 22.224 241.751 22.008 242.039 21.832C242.343 21.656 242.687 21.52 243.071 21.424C243.455 21.312 243.895 21.256 244.391 21.256C245.143 21.256 245.839 21.424 246.479 21.76C247.135 22.096 247.599 22.616 247.871 23.32C248.335 22.68 248.871 22.176 249.479 21.808C250.087 21.44 250.847 21.256 251.759 21.256C253.071 21.256 254.087 21.576 254.807 22.216C255.543 22.856 255.911 23.928 255.911 25.432V34H253.175V26.752C253.175 26.256 253.159 25.808 253.127 25.408C253.095 24.992 252.999 24.64 252.839 24.352C252.695 24.048 252.471 23.816 252.167 23.656C251.863 23.496 251.447 23.416 250.919 23.416C249.991 23.416 249.319 23.704 248.903 24.28C248.487 24.856 248.279 25.672 248.279 26.728V34H245.543V26.032C245.543 25.168 245.383 24.52 245.063 24.088C244.759 23.64 244.191 23.416 243.359 23.416C243.007 23.416 242.663 23.488 242.327 23.632C242.007 23.776 241.719 23.984 241.463 24.256C241.223 24.528 241.023 24.864 240.863 25.264C240.719 25.664 240.647 26.12 240.647 26.632V34H237.911V21.592ZM258.602 16.864H261.338V19.456H258.602V16.864ZM258.602 21.592H261.338V34H258.602V21.592ZM262.807 21.592H264.871V17.872H267.607V21.592H270.079V23.632H267.607V30.256C267.607 30.544 267.615 30.792 267.631 31C267.663 31.208 267.719 31.384 267.799 31.528C267.895 31.672 268.031 31.784 268.207 31.864C268.383 31.928 268.623 31.96 268.927 31.96C269.119 31.96 269.311 31.96 269.503 31.96C269.695 31.944 269.887 31.912 270.079 31.864V33.976C269.775 34.008 269.479 34.04 269.191 34.072C268.903 34.104 268.607 34.12 268.303 34.12C267.583 34.12 266.999 34.056 266.551 33.928C266.119 33.784 265.775 33.584 265.519 33.328C265.279 33.056 265.111 32.72 265.015 32.32C264.935 31.92 264.887 31.464 264.871 30.952V23.632H262.807V21.592Z" fill="black"/>
<circle cx="31.8478" cy="73" r="16" fill="#85B6FF"/>
<circle cx="31.8478" cy="73" r="14" stroke="black" stroke-opacity="0.2" stroke-width="4"/>
<circle cx="103.848" cy="73" r="16" fill="#85B6FF"/>
<circle cx="103.848" cy="73" r="14" stroke="black" stroke-opacity="0.2" stroke-width="4"/>
<circle cx="287.848" cy="153" r="16" fill="#FF9A62"/>
<circle cx="287.848" cy="153" r="14" stroke="black" stroke-opacity="0.2" stroke-width="4"/>
<path d="M51.8477 71.5C51.0193 71.5 50.3477 72.1716 50.3477 73C50.3477 73.8284 51.0193 74.5 51.8477 74.5V71.5ZM83.8477 74.5C84.6762 74.5 85.3477 73.8284 85.3477 73C85.3477 72.1716 84.6762 71.5 83.8477 71.5V74.5ZM51.8477 74.5H83.8477V71.5H51.8477V74.5Z" fill="#CECCCC"/>
<circle cx="343.848" cy="153" r="16" fill="#FF9A62"/>
<circle cx="343.848" cy="153" r="14" stroke="black" stroke-opacity="0.2" stroke-width="4"/>
<circle cx="471.848" cy="73" r="16" fill="#FF9A62"/>
<circle cx="471.848" cy="73" r="14" stroke="black" stroke-opacity="0.2" stroke-width="4"/>
<path d="M123.848 71.5C123.019 71.5 122.348 72.1716 122.348 73C122.348 73.8284 123.019 74.5 123.848 74.5V71.5ZM267.848 154.5C268.676 154.5 269.348 153.828 269.348 153C269.348 152.172 268.676 151.5 267.848 151.5V154.5ZM123.848 74.5H143.848V71.5H123.848V74.5ZM166.348 97V129H169.348V97H166.348ZM191.848 154.5H267.848V151.5H191.848V154.5ZM166.348 129C166.348 143.083 177.765 154.5 191.848 154.5V151.5C179.421 151.5 169.348 141.426 169.348 129H166.348ZM143.848 74.5C156.274 74.5 166.348 84.5736 166.348 97H169.348C169.348 82.9167 157.931 71.5 143.848 71.5V74.5Z" fill="#CECCCC"/>
<circle cx="399.848" cy="153" r="16" fill="#FF9A62"/>
<circle cx="399.848" cy="153" r="14" stroke="black" stroke-opacity="0.2" stroke-width="4"/>
<path d="M363.848 151.5C363.019 151.5 362.348 152.172 362.348 153C362.348 153.828 363.019 154.5 363.848 154.5V151.5ZM379.848 154.5C380.676 154.5 381.348 153.828 381.348 153C381.348 152.172 380.676 151.5 379.848 151.5V154.5ZM363.848 154.5H379.848V151.5H363.848V154.5Z" fill="#CECCCC"/>
<path d="M323.848 154.5C324.676 154.5 325.348 153.828 325.348 153C325.348 152.172 324.676 151.5 323.848 151.5V154.5ZM307.848 151.5C307.019 151.5 306.348 152.172 306.348 153C306.348 153.828 307.019 154.5 307.848 154.5V151.5ZM323.848 151.5H307.848V154.5H323.848V151.5Z" fill="#CECCCC"/>
<path d="M437.348 137V89H434.348V137H437.348ZM437.348 89C437.348 80.9919 443.84 74.5 451.848 74.5V71.5C442.183 71.5 434.348 79.335 434.348 89H437.348ZM419.848 154.5C429.513 154.5 437.348 146.665 437.348 137H434.348C434.348 145.008 427.856 151.5 419.848 151.5V154.5Z" fill="#CECCCC"/>
<circle cx="215.848" cy="73" r="16" fill="#85B6FF"/>
<circle cx="215.848" cy="73" r="14" stroke="black" stroke-opacity="0.2" stroke-width="4"/>
<path d="M235.848 71.5C235.019 71.5 234.348 72.1716 234.348 73C234.348 73.8284 235.019 74.5 235.848 74.5V71.5ZM451.848 74.5C452.676 74.5 453.348 73.8284 453.348 73C453.348 72.1716 452.676 71.5 451.848 71.5V74.5ZM235.848 74.5H451.848V71.5H235.848V74.5Z" fill="#CECCCC"/>
<path d="M195.848 74.5C196.676 74.5 197.348 73.8284 197.348 73C197.348 72.1716 196.676 71.5 195.848 71.5V74.5ZM123.848 71.5C123.019 71.5 122.348 72.1716 122.348 73C122.348 73.8284 123.019 74.5 123.848 74.5V71.5ZM195.848 71.5H123.848V74.5H195.848V71.5Z" fill="#CECCCC"/>
<path fill-rule="evenodd" clip-rule="evenodd" d="M469.848 68.254V68.25V68.255C469.847 68.4537 469.768 68.6441 469.627 68.7842C469.486 68.9243 469.295 69.0029 469.097 69.0025C468.898 69.0022 468.707 68.923 468.567 68.7824C468.427 68.6418 468.348 68.4512 468.348 68.2525C468.348 68.0538 468.427 67.8633 468.567 67.7227C468.707 67.582 468.898 67.5029 469.097 67.5025C469.295 67.5022 469.486 67.5807 469.627 67.7209C469.768 67.861 469.847 68.0513 469.848 68.25V68.254ZM470.298 70.154C470.729 69.8824 471.054 69.4727 471.222 68.9919C471.39 68.5111 471.39 67.9875 471.221 67.5069C471.053 67.0263 470.727 66.617 470.295 66.3459C469.864 66.0749 469.354 65.9581 468.848 66.0147C468.342 66.0712 467.87 66.2978 467.509 66.6574C467.149 67.017 466.921 67.4883 466.862 67.9942C466.804 68.5001 466.92 69.0108 467.19 69.4427C467.459 69.8747 467.868 70.2023 468.348 70.372V75.628C467.847 75.805 467.426 76.1531 467.157 76.6109C466.889 77.0687 466.79 77.6067 466.88 78.1298C466.97 78.653 467.242 79.1275 467.648 79.4696C468.053 79.8117 468.567 79.9994 469.098 79.9994C469.629 79.9994 470.142 79.8117 470.548 79.4696C470.954 79.1275 471.226 78.653 471.315 78.1298C471.405 77.6067 471.307 77.0687 471.039 76.6109C470.77 76.1531 470.348 75.805 469.848 75.628V72.123C470.386 72.7151 471.042 73.1879 471.774 73.5112C472.506 73.8345 473.298 74.001 474.098 74H475.476C475.653 74.5007 476.001 74.9227 476.459 75.1915C476.917 75.4602 477.455 75.5584 477.979 75.4687C478.502 75.3789 478.977 75.107 479.319 74.701C479.661 74.295 479.849 73.7811 479.849 73.25C479.849 72.719 479.661 72.2051 479.319 71.7991C478.977 71.3931 478.502 71.1212 477.979 71.0314C477.455 70.9417 476.917 71.0398 476.459 71.3086C476.001 71.5773 475.653 71.9994 475.476 72.5H474.098C473.309 72.5001 472.536 72.2807 471.865 71.8664C471.194 71.4521 470.651 70.8592 470.298 70.154V70.154ZM477.598 74C477.797 74 477.987 73.921 478.128 73.7804C478.269 73.6397 478.348 73.449 478.348 73.25C478.348 73.0511 478.269 72.8604 478.128 72.7197C477.987 72.5791 477.797 72.5 477.598 72.5C477.399 72.5 477.208 72.5791 477.067 72.7197C476.927 72.8604 476.848 73.0511 476.848 73.25C476.848 73.449 476.927 73.6397 477.067 73.7804C477.208 73.921 477.399 74 477.598 74ZM469.098 78.5C469.297 78.5 469.487 78.421 469.628 78.2804C469.769 78.1397 469.848 77.949 469.848 77.75C469.848 77.5511 469.769 77.3604 469.628 77.2197C469.487 77.0791 469.297 77 469.098 77C468.899 77 468.708 77.0791 468.567 77.2197C468.427 77.3604 468.348 77.5511 468.348 77.75C468.348 77.949 468.427 78.1397 468.567 78.2804C468.708 78.421 468.899 78.5 469.098 78.5Z" fill="black"/>
</svg>
