<svg width="596" height="192" viewBox="0 0 596 192" fill="none" xmlns="http://www.w3.org/2000/svg">
<rect width="596" height="192" fill="white"/>
<rect x="19.5" y="28.449" width="206" height="44.4709" rx="2" fill="#85B6FF" stroke="#6A92CC" stroke-width="4"/>
<path d="M105.294 48.4124H107.022V49.5644H107.07C107.209 49.3618 107.358 49.1751 107.518 49.0044C107.678 48.8338 107.854 48.6898 108.046 48.5724C108.249 48.4551 108.478 48.3644 108.734 48.3004C108.99 48.2258 109.284 48.1884 109.614 48.1884C110.116 48.1884 110.58 48.3004 111.006 48.5244C111.444 48.7484 111.753 49.0951 111.934 49.5644C112.244 49.1378 112.601 48.8018 113.006 48.5564C113.412 48.3111 113.918 48.1884 114.526 48.1884C115.401 48.1884 116.078 48.4018 116.558 48.8284C117.049 49.2551 117.294 49.9698 117.294 50.9724V56.6844H115.47V51.8524C115.47 51.5218 115.46 51.2231 115.438 50.9564C115.417 50.6791 115.353 50.4444 115.246 50.2524C115.15 50.0498 115.001 49.8951 114.798 49.7884C114.596 49.6818 114.318 49.6284 113.966 49.6284C113.348 49.6284 112.9 49.8204 112.622 50.2044C112.345 50.5884 112.206 51.1324 112.206 51.8364V56.6844H110.382V51.3724C110.382 50.7964 110.276 50.3644 110.062 50.0764C109.86 49.7778 109.481 49.6284 108.926 49.6284C108.692 49.6284 108.462 49.6764 108.238 49.7724C108.025 49.8684 107.833 50.0071 107.662 50.1884C107.502 50.3698 107.369 50.5938 107.262 50.8604C107.166 51.1271 107.118 51.4311 107.118 51.7724V56.6844H105.294V48.4124ZM125.968 54.8444C125.968 55.0684 125.995 55.2284 126.048 55.3244C126.112 55.4204 126.23 55.4684 126.4 55.4684C126.454 55.4684 126.518 55.4684 126.592 55.4684C126.667 55.4684 126.752 55.4578 126.848 55.4364V56.7004C126.784 56.7218 126.699 56.7431 126.592 56.7644C126.496 56.7964 126.395 56.8231 126.288 56.8444C126.182 56.8658 126.075 56.8818 125.968 56.8924C125.862 56.9031 125.771 56.9084 125.696 56.9084C125.323 56.9084 125.014 56.8338 124.768 56.6844C124.523 56.5351 124.363 56.2738 124.288 55.9004C123.926 56.2524 123.478 56.5084 122.944 56.6684C122.422 56.8284 121.915 56.9084 121.424 56.9084C121.051 56.9084 120.694 56.8551 120.352 56.7484C120.011 56.6524 119.707 56.5084 119.44 56.3164C119.184 56.1138 118.976 55.8631 118.816 55.5644C118.667 55.2551 118.592 54.8978 118.592 54.4924C118.592 53.9804 118.683 53.5644 118.864 53.2444C119.056 52.9244 119.302 52.6738 119.6 52.4924C119.91 52.3111 120.251 52.1831 120.624 52.1084C121.008 52.0231 121.392 51.9591 121.776 51.9164C122.107 51.8524 122.422 51.8098 122.72 51.7884C123.019 51.7564 123.28 51.7084 123.504 51.6444C123.739 51.5804 123.92 51.4844 124.048 51.3564C124.187 51.2178 124.256 51.0151 124.256 50.7484C124.256 50.5138 124.198 50.3218 124.08 50.1724C123.974 50.0231 123.835 49.9111 123.664 49.8364C123.504 49.7511 123.323 49.6978 123.12 49.6764C122.918 49.6444 122.726 49.6284 122.544 49.6284C122.032 49.6284 121.611 49.7351 121.28 49.9484C120.95 50.1618 120.763 50.4924 120.72 50.9404H118.896C118.928 50.4071 119.056 49.9644 119.28 49.6124C119.504 49.2604 119.787 48.9778 120.128 48.7644C120.48 48.5511 120.875 48.4018 121.312 48.3164C121.75 48.2311 122.198 48.1884 122.656 48.1884C123.062 48.1884 123.462 48.2311 123.856 48.3164C124.251 48.4018 124.603 48.5404 124.912 48.7324C125.232 48.9244 125.488 49.1751 125.68 49.4844C125.872 49.7831 125.968 50.1511 125.968 50.5884V54.8444ZM124.144 52.5404C123.867 52.7218 123.526 52.8338 123.12 52.8764C122.715 52.9084 122.31 52.9618 121.904 53.0364C121.712 53.0684 121.526 53.1164 121.344 53.1804C121.163 53.2338 121.003 53.3138 120.864 53.4204C120.726 53.5164 120.614 53.6498 120.528 53.8204C120.454 53.9804 120.416 54.1778 120.416 54.4124C120.416 54.6151 120.475 54.7858 120.592 54.9244C120.71 55.0631 120.848 55.1751 121.008 55.2604C121.179 55.3351 121.36 55.3884 121.552 55.4204C121.755 55.4524 121.936 55.4684 122.096 55.4684C122.299 55.4684 122.518 55.4418 122.752 55.3884C122.987 55.3351 123.206 55.2444 123.408 55.1164C123.622 54.9884 123.798 54.8284 123.936 54.6364C124.075 54.4338 124.144 54.1884 124.144 53.9004V52.5404ZM127.803 45.2604H129.627V46.9884H127.803V45.2604ZM127.803 48.4124H129.627V56.6844H127.803V48.4124ZM131.438 48.4124H133.166V49.6284L133.198 49.6604C133.476 49.2018 133.838 48.8444 134.286 48.5884C134.734 48.3218 135.23 48.1884 135.774 48.1884C136.681 48.1884 137.396 48.4231 137.918 48.8924C138.441 49.3618 138.702 50.0658 138.702 51.0044V56.6844H136.878V51.4844C136.857 50.8338 136.718 50.3644 136.462 50.0764C136.206 49.7778 135.806 49.6284 135.262 49.6284C134.953 49.6284 134.676 49.6871 134.43 49.8044C134.185 49.9111 133.977 50.0658 133.806 50.2684C133.636 50.4604 133.502 50.6898 133.406 50.9564C133.31 51.2231 133.262 51.5058 133.262 51.8044V56.6844H131.438V48.4124Z" fill="black"/>
<rect x="19.5" y="122.765" width="206" height="44.4709" rx="2" fill="#FF9A62" stroke="#CC7B4E" stroke-width="4"/>
<path d="M54.5171 142.728H55.8771V142.04C55.8771 141.517 55.9411 141.096 56.0691 140.776C56.1971 140.445 56.3677 140.195 56.5811 140.024C56.7944 139.843 57.0344 139.725 57.3011 139.672C57.5784 139.608 57.8664 139.576 58.1651 139.576C58.7517 139.576 59.1784 139.613 59.4451 139.688V141.112C59.3277 141.08 59.1997 141.059 59.0611 141.048C58.9331 141.027 58.7784 141.016 58.5971 141.016C58.3517 141.016 58.1384 141.075 57.9571 141.192C57.7864 141.309 57.7011 141.539 57.7011 141.88V142.728H59.2531V144.088H57.7011V151H55.8771V144.088H54.5171V142.728ZM65.8839 146.136C65.8626 145.848 65.7986 145.571 65.6919 145.304C65.5959 145.037 65.4573 144.808 65.2759 144.616C65.1053 144.413 64.8919 144.253 64.6359 144.136C64.3906 144.008 64.1133 143.944 63.8039 143.944C63.4839 143.944 63.1906 144.003 62.9239 144.12C62.6679 144.227 62.4439 144.381 62.2519 144.584C62.0706 144.776 61.9213 145.005 61.8039 145.272C61.6973 145.539 61.6386 145.827 61.6279 146.136H65.8839ZM61.6279 147.336C61.6279 147.656 61.6706 147.965 61.7559 148.264C61.8519 148.563 61.9906 148.824 62.1719 149.048C62.3533 149.272 62.5826 149.453 62.8599 149.592C63.1373 149.72 63.4679 149.784 63.8519 149.784C64.3853 149.784 64.8119 149.672 65.1319 149.448C65.4626 149.213 65.7079 148.867 65.8679 148.408H67.5959C67.4999 148.856 67.3346 149.256 67.0999 149.608C66.8653 149.96 66.5826 150.259 66.2519 150.504C65.9213 150.739 65.5479 150.915 65.1319 151.032C64.7266 151.16 64.2999 151.224 63.8519 151.224C63.2013 151.224 62.6253 151.117 62.1239 150.904C61.6226 150.691 61.1959 150.392 60.8439 150.008C60.5026 149.624 60.2413 149.165 60.0599 148.632C59.8893 148.099 59.8039 147.512 59.8039 146.872C59.8039 146.285 59.8946 145.731 60.0759 145.208C60.2679 144.675 60.5346 144.211 60.8759 143.816C61.2279 143.411 61.6493 143.091 62.1399 142.856C62.6306 142.621 63.1853 142.504 63.8039 142.504C64.4546 142.504 65.0359 142.643 65.5479 142.92C66.0706 143.187 66.5026 143.544 66.8439 143.992C67.1853 144.44 67.4306 144.957 67.5799 145.544C67.7399 146.12 67.7826 146.717 67.7079 147.336H61.6279ZM75.8466 149.16C75.8466 149.384 75.8732 149.544 75.9266 149.64C75.9906 149.736 76.1079 149.784 76.2786 149.784C76.3319 149.784 76.3959 149.784 76.4706 149.784C76.5452 149.784 76.6306 149.773 76.7266 149.752V151.016C76.6626 151.037 76.5772 151.059 76.4706 151.08C76.3746 151.112 76.2732 151.139 76.1666 151.16C76.0599 151.181 75.9532 151.197 75.8466 151.208C75.7399 151.219 75.6492 151.224 75.5746 151.224C75.2012 151.224 74.8919 151.149 74.6466 151C74.4012 150.851 74.2412 150.589 74.1666 150.216C73.8039 150.568 73.3559 150.824 72.8226 150.984C72.2999 151.144 71.7932 151.224 71.3026 151.224C70.9292 151.224 70.5719 151.171 70.2306 151.064C69.8892 150.968 69.5852 150.824 69.3186 150.632C69.0626 150.429 68.8546 150.179 68.6946 149.88C68.5452 149.571 68.4706 149.213 68.4706 148.808C68.4706 148.296 68.5612 147.88 68.7426 147.56C68.9346 147.24 69.1799 146.989 69.4786 146.808C69.7879 146.627 70.1292 146.499 70.5026 146.424C70.8866 146.339 71.2706 146.275 71.6546 146.232C71.9852 146.168 72.2999 146.125 72.5986 146.104C72.8972 146.072 73.1586 146.024 73.3826 145.96C73.6172 145.896 73.7986 145.8 73.9266 145.672C74.0652 145.533 74.1346 145.331 74.1346 145.064C74.1346 144.829 74.0759 144.637 73.9586 144.488C73.8519 144.339 73.7132 144.227 73.5426 144.152C73.3826 144.067 73.2012 144.013 72.9986 143.992C72.7959 143.96 72.6039 143.944 72.4226 143.944C71.9106 143.944 71.4892 144.051 71.1586 144.264C70.8279 144.477 70.6412 144.808 70.5986 145.256H68.7746C68.8066 144.723 68.9346 144.28 69.1586 143.928C69.3826 143.576 69.6652 143.293 70.0066 143.08C70.3586 142.867 70.7532 142.717 71.1906 142.632C71.6279 142.547 72.0759 142.504 72.5346 142.504C72.9399 142.504 73.3399 142.547 73.7346 142.632C74.1292 142.717 74.4812 142.856 74.7906 143.048C75.1106 143.24 75.3666 143.491 75.5586 143.8C75.7506 144.099 75.8466 144.467 75.8466 144.904V149.16ZM74.0226 146.856C73.7452 147.037 73.4039 147.149 72.9986 147.192C72.5932 147.224 72.1879 147.277 71.7826 147.352C71.5906 147.384 71.4039 147.432 71.2226 147.496C71.0412 147.549 70.8812 147.629 70.7426 147.736C70.6039 147.832 70.4919 147.965 70.4066 148.136C70.3319 148.296 70.2946 148.493 70.2946 148.728C70.2946 148.931 70.3532 149.101 70.4706 149.24C70.5879 149.379 70.7266 149.491 70.8866 149.576C71.0572 149.651 71.2386 149.704 71.4306 149.736C71.6332 149.768 71.8146 149.784 71.9746 149.784C72.1772 149.784 72.3959 149.757 72.6306 149.704C72.8652 149.651 73.0839 149.56 73.2866 149.432C73.4999 149.304 73.6759 149.144 73.8146 148.952C73.9532 148.749 74.0226 148.504 74.0226 148.216V146.856ZM76.8012 142.728H78.1772V140.248H80.0012V142.728H81.6492V144.088H80.0012V148.504C80.0012 148.696 80.0065 148.861 80.0172 149C80.0385 149.139 80.0759 149.256 80.1292 149.352C80.1932 149.448 80.2839 149.523 80.4012 149.576C80.5185 149.619 80.6785 149.64 80.8812 149.64C81.0092 149.64 81.1372 149.64 81.2652 149.64C81.3932 149.629 81.5212 149.608 81.6492 149.576V150.984C81.4465 151.005 81.2492 151.027 81.0572 151.048C80.8652 151.069 80.6679 151.08 80.4652 151.08C79.9852 151.08 79.5959 151.037 79.2972 150.952C79.0092 150.856 78.7799 150.723 78.6092 150.552C78.4492 150.371 78.3372 150.147 78.2732 149.88C78.2199 149.613 78.1879 149.309 78.1772 148.968V144.088H76.8012V142.728ZM90.0493 151H88.2573V149.848H88.2253C88.0013 150.264 87.6653 150.6 87.2173 150.856C86.78 151.101 86.332 151.224 85.8733 151.224C84.7853 151.224 83.996 150.957 83.5053 150.424C83.0253 149.88 82.7853 149.064 82.7853 147.976V142.728H84.6093V147.8C84.6093 148.525 84.748 149.037 85.0253 149.336C85.3026 149.635 85.692 149.784 86.1933 149.784C86.5773 149.784 86.8973 149.725 87.1533 149.608C87.4093 149.491 87.6173 149.336 87.7773 149.144C87.9373 148.941 88.0493 148.701 88.1133 148.424C88.188 148.147 88.2253 147.848 88.2253 147.528V142.728H90.0493V151ZM91.7968 142.728H93.5088V144.328H93.5408C93.5941 144.104 93.6955 143.885 93.8448 143.672C94.0048 143.459 94.1915 143.267 94.4048 143.096C94.6288 142.915 94.8741 142.771 95.1408 142.664C95.4075 142.557 95.6795 142.504 95.9568 142.504C96.1701 142.504 96.3141 142.509 96.3888 142.52C96.4741 142.531 96.5595 142.541 96.6448 142.552V144.312C96.5168 144.291 96.3835 144.275 96.2448 144.264C96.1168 144.243 95.9888 144.232 95.8608 144.232C95.5515 144.232 95.2581 144.296 94.9808 144.424C94.7141 144.541 94.4795 144.723 94.2768 144.968C94.0741 145.203 93.9141 145.496 93.7968 145.848C93.6795 146.2 93.6208 146.605 93.6208 147.064V151H91.7968V142.728ZM102.645 146.136C102.623 145.848 102.559 145.571 102.453 145.304C102.357 145.037 102.218 144.808 102.037 144.616C101.866 144.413 101.653 144.253 101.397 144.136C101.151 144.008 100.874 143.944 100.565 143.944C100.245 143.944 99.9512 144.003 99.6846 144.12C99.4286 144.227 99.2046 144.381 99.0126 144.584C98.8312 144.776 98.6819 145.005 98.5646 145.272C98.4579 145.539 98.3992 145.827 98.3886 146.136H102.645ZM98.3886 147.336C98.3886 147.656 98.4312 147.965 98.5166 148.264C98.6126 148.563 98.7512 148.824 98.9326 149.048C99.1139 149.272 99.3432 149.453 99.6206 149.592C99.8979 149.72 100.229 149.784 100.613 149.784C101.146 149.784 101.573 149.672 101.893 149.448C102.223 149.213 102.469 148.867 102.629 148.408H104.357C104.261 148.856 104.095 149.256 103.861 149.608C103.626 149.96 103.343 150.259 103.013 150.504C102.682 150.739 102.309 150.915 101.893 151.032C101.487 151.16 101.061 151.224 100.613 151.224C99.9619 151.224 99.3859 151.117 98.8846 150.904C98.3832 150.691 97.9566 150.392 97.6046 150.008C97.2632 149.624 97.0019 149.165 96.8206 148.632C96.6499 148.099 96.5646 147.512 96.5646 146.872C96.5646 146.285 96.6552 145.731 96.8366 145.208C97.0286 144.675 97.2952 144.211 97.6366 143.816C97.9886 143.411 98.4099 143.091 98.9006 142.856C99.3912 142.621 99.9459 142.504 100.565 142.504C101.215 142.504 101.797 142.643 102.309 142.92C102.831 143.187 103.263 143.544 103.605 143.992C103.946 144.44 104.191 144.957 104.341 145.544C104.501 146.12 104.543 146.717 104.469 147.336H98.3886ZM105.503 145.784H110.159V147.512H105.503V145.784ZM111.722 142.728H113.45V143.88H113.498C113.637 143.677 113.786 143.491 113.946 143.32C114.106 143.149 114.282 143.005 114.474 142.888C114.677 142.771 114.906 142.68 115.162 142.616C115.418 142.541 115.711 142.504 116.042 142.504C116.543 142.504 117.007 142.616 117.434 142.84C117.871 143.064 118.181 143.411 118.362 143.88C118.671 143.453 119.029 143.117 119.434 142.872C119.839 142.627 120.346 142.504 120.954 142.504C121.829 142.504 122.506 142.717 122.986 143.144C123.477 143.571 123.722 144.285 123.722 145.288V151H121.898V146.168C121.898 145.837 121.887 145.539 121.866 145.272C121.845 144.995 121.781 144.76 121.674 144.568C121.578 144.365 121.429 144.211 121.226 144.104C121.023 143.997 120.746 143.944 120.394 143.944C119.775 143.944 119.327 144.136 119.05 144.52C118.773 144.904 118.634 145.448 118.634 146.152V151H116.81V145.688C116.81 145.112 116.703 144.68 116.49 144.392C116.287 144.093 115.909 143.944 115.354 143.944C115.119 143.944 114.89 143.992 114.666 144.088C114.453 144.184 114.261 144.323 114.09 144.504C113.93 144.685 113.797 144.909 113.69 145.176C113.594 145.443 113.546 145.747 113.546 146.088V151H111.722V142.728ZM132.732 151H130.94V149.848H130.908C130.684 150.264 130.348 150.6 129.9 150.856C129.462 151.101 129.014 151.224 128.556 151.224C127.468 151.224 126.678 150.957 126.188 150.424C125.708 149.88 125.468 149.064 125.468 147.976V142.728H127.292V147.8C127.292 148.525 127.43 149.037 127.708 149.336C127.985 149.635 128.374 149.784 128.876 149.784C129.26 149.784 129.58 149.725 129.836 149.608C130.092 149.491 130.3 149.336 130.46 149.144C130.62 148.941 130.732 148.701 130.796 148.424C130.87 148.147 130.908 147.848 130.908 147.528V142.728H132.732V151ZM134.527 139.576H136.351V151H134.527V139.576ZM137.331 142.728H138.707V140.248H140.531V142.728H142.179V144.088H140.531V148.504C140.531 148.696 140.536 148.861 140.547 149C140.568 149.139 140.605 149.256 140.659 149.352C140.723 149.448 140.813 149.523 140.931 149.576C141.048 149.619 141.208 149.64 141.411 149.64C141.539 149.64 141.667 149.64 141.795 149.64C141.923 149.629 142.051 149.608 142.179 149.576V150.984C141.976 151.005 141.779 151.027 141.587 151.048C141.395 151.069 141.197 151.08 140.995 151.08C140.515 151.08 140.125 151.037 139.827 150.952C139.539 150.856 139.309 150.723 139.139 150.552C138.979 150.371 138.867 150.147 138.803 149.88C138.749 149.613 138.717 149.309 138.707 148.968V144.088H137.331V142.728ZM143.363 139.576H145.187V141.304H143.363V139.576ZM143.363 142.728H145.187V151H143.363V142.728ZM147.046 139.576H148.87V151H147.046V139.576ZM150.73 139.576H152.554V141.304H150.73V139.576ZM150.73 142.728H152.554V151H150.73V142.728ZM154.365 142.728H156.093V143.944L156.125 143.976C156.402 143.517 156.765 143.16 157.213 142.904C157.661 142.637 158.157 142.504 158.701 142.504C159.608 142.504 160.322 142.739 160.845 143.208C161.368 143.677 161.629 144.381 161.629 145.32V151H159.805V145.8C159.784 145.149 159.645 144.68 159.389 144.392C159.133 144.093 158.733 143.944 158.189 143.944C157.88 143.944 157.602 144.003 157.357 144.12C157.112 144.227 156.904 144.381 156.733 144.584C156.562 144.776 156.429 145.005 156.333 145.272C156.237 145.539 156.189 145.821 156.189 146.12V151H154.365V142.728ZM171.024 150.568C171.024 151.816 170.672 152.744 169.968 153.352C169.275 153.971 168.272 154.28 166.96 154.28C166.544 154.28 166.123 154.237 165.696 154.152C165.28 154.067 164.896 153.923 164.544 153.72C164.203 153.517 163.915 153.251 163.68 152.92C163.446 152.589 163.307 152.184 163.264 151.704H165.088C165.142 151.96 165.232 152.168 165.36 152.328C165.488 152.488 165.638 152.611 165.808 152.696C165.99 152.792 166.187 152.851 166.4 152.872C166.614 152.904 166.838 152.92 167.072 152.92C167.808 152.92 168.347 152.739 168.688 152.376C169.03 152.013 169.2 151.491 169.2 150.808V149.544H169.168C168.912 150.003 168.56 150.36 168.112 150.616C167.675 150.872 167.2 151 166.688 151C166.027 151 165.462 150.888 164.992 150.664C164.534 150.429 164.15 150.115 163.84 149.72C163.542 149.315 163.323 148.851 163.184 148.328C163.046 147.805 162.976 147.245 162.976 146.648C162.976 146.093 163.062 145.565 163.232 145.064C163.403 144.563 163.648 144.125 163.968 143.752C164.288 143.368 164.678 143.064 165.136 142.84C165.606 142.616 166.134 142.504 166.72 142.504C167.243 142.504 167.723 142.616 168.16 142.84C168.598 143.053 168.934 143.395 169.168 143.864H169.2V142.728H171.024V150.568ZM166.976 149.56C167.382 149.56 167.723 149.48 168 149.32C168.288 149.149 168.518 148.931 168.688 148.664C168.87 148.387 168.998 148.077 169.072 147.736C169.158 147.384 169.2 147.032 169.2 146.68C169.2 146.328 169.158 145.987 169.072 145.656C168.987 145.325 168.854 145.032 168.672 144.776C168.502 144.52 168.272 144.317 167.984 144.168C167.707 144.019 167.371 143.944 166.976 143.944C166.571 143.944 166.23 144.029 165.952 144.2C165.675 144.371 165.451 144.595 165.28 144.872C165.11 145.139 164.987 145.448 164.912 145.8C164.838 146.141 164.8 146.483 164.8 146.824C164.8 147.165 164.843 147.501 164.928 147.832C165.014 148.152 165.142 148.44 165.312 148.696C165.494 148.952 165.718 149.16 165.984 149.32C166.262 149.48 166.592 149.56 166.976 149.56ZM179.949 151H178.157V149.848H178.125C177.901 150.264 177.565 150.6 177.117 150.856C176.679 151.101 176.231 151.224 175.773 151.224C174.685 151.224 173.895 150.957 173.405 150.424C172.925 149.88 172.685 149.064 172.685 147.976V142.728H174.509V147.8C174.509 148.525 174.647 149.037 174.925 149.336C175.202 149.635 175.591 149.784 176.093 149.784C176.477 149.784 176.797 149.725 177.053 149.608C177.309 149.491 177.517 149.336 177.677 149.144C177.837 148.941 177.949 148.701 178.013 148.424C178.087 148.147 178.125 147.848 178.125 147.528V142.728H179.949V151ZM187.376 146.136C187.355 145.848 187.291 145.571 187.184 145.304C187.088 145.037 186.95 144.808 186.768 144.616C186.598 144.413 186.384 144.253 186.128 144.136C185.883 144.008 185.606 143.944 185.296 143.944C184.976 143.944 184.683 144.003 184.416 144.12C184.16 144.227 183.936 144.381 183.744 144.584C183.563 144.776 183.414 145.005 183.296 145.272C183.19 145.539 183.131 145.827 183.12 146.136H187.376ZM183.12 147.336C183.12 147.656 183.163 147.965 183.248 148.264C183.344 148.563 183.483 148.824 183.664 149.048C183.846 149.272 184.075 149.453 184.352 149.592C184.63 149.72 184.96 149.784 185.344 149.784C185.878 149.784 186.304 149.672 186.624 149.448C186.955 149.213 187.2 148.867 187.36 148.408H189.088C188.992 148.856 188.827 149.256 188.592 149.608C188.358 149.96 188.075 150.259 187.744 150.504C187.414 150.739 187.04 150.915 186.624 151.032C186.219 151.16 185.792 151.224 185.344 151.224C184.694 151.224 184.118 151.117 183.616 150.904C183.115 150.691 182.688 150.392 182.336 150.008C181.995 149.624 181.734 149.165 181.552 148.632C181.382 148.099 181.296 147.512 181.296 146.872C181.296 146.285 181.387 145.731 181.568 145.208C181.76 144.675 182.027 144.211 182.368 143.816C182.72 143.411 183.142 143.091 183.632 142.856C184.123 142.621 184.678 142.504 185.296 142.504C185.947 142.504 186.528 142.643 187.04 142.92C187.563 143.187 187.995 143.544 188.336 143.992C188.678 144.44 188.923 144.957 189.072 145.544C189.232 146.12 189.275 146.717 189.2 147.336H183.12Z" fill="black"/>
<circle cx="286" cy="49" r="16" fill="#85B6FF"/>
<circle cx="286" cy="49" r="14" stroke="black" stroke-opacity="0.2" stroke-width="4"/>
<circle cx="406" cy="145" r="16" fill="#FF9A62"/>
<circle cx="406" cy="145" r="14" stroke="black" stroke-opacity="0.2" stroke-width="4"/>
<circle cx="518" cy="49" r="16" fill="#FF9A62"/>
<circle cx="518" cy="49" r="14" stroke="black" stroke-opacity="0.2" stroke-width="4"/>
<path d="M306 47.5C305.172 47.5 304.5 48.1716 304.5 49C304.5 49.8284 305.172 50.5 306 50.5V47.5ZM386 146.5C386.828 146.5 387.5 145.828 387.5 145C387.5 144.172 386.828 143.5 386 143.5V146.5ZM306 50.5H326V47.5H306V50.5ZM348.5 73V121H351.5V73H348.5ZM374 146.5H386V143.5H374V146.5ZM348.5 121C348.5 135.083 359.917 146.5 374 146.5V143.5C361.574 143.5 351.5 133.426 351.5 121H348.5ZM326 50.5C338.426 50.5 348.5 60.5736 348.5 73H351.5C351.5 58.9167 340.083 47.5 326 47.5V50.5Z" fill="#CECCCC"/>
<path d="M426 143.5C425.172 143.5 424.5 144.172 424.5 145C424.5 145.828 425.172 146.5 426 146.5V143.5ZM498 50.5C498.828 50.5 499.5 49.8284 499.5 49C499.5 48.1716 498.828 47.5 498 47.5V50.5ZM426 146.5H438V143.5H426V146.5ZM463.5 121V73H460.5V121H463.5ZM486 50.5H498V47.5H486V50.5ZM463.5 73C463.5 60.5736 473.574 50.5 486 50.5V47.5C471.917 47.5 460.5 58.9167 460.5 73H463.5ZM438 146.5C452.083 146.5 463.5 135.083 463.5 121H460.5C460.5 133.426 450.426 143.5 438 143.5V146.5Z" fill="#CECCCC"/>
<path d="M498 50.5C498.828 50.5 499.5 49.8284 499.5 49C499.5 48.1716 498.828 47.5 498 47.5V50.5ZM306 47.5C305.172 47.5 304.5 48.1716 304.5 49C304.5 49.8284 305.172 50.5 306 50.5V47.5ZM498 47.5H306V50.5H498V47.5Z" fill="#CECCCC"/>
<path d="M538 47.5C537.172 47.5 536.5 48.1716 536.5 49C536.5 49.8284 537.172 50.5 538 50.5V47.5ZM583.061 50.0607C583.646 49.4749 583.646 48.5251 583.061 47.9393L573.515 38.3934C572.929 37.8076 571.979 37.8076 571.393 38.3934C570.808 38.9792 570.808 39.9289 571.393 40.5147L579.879 49L571.393 57.4853C570.808 58.0711 570.808 59.0208 571.393 59.6066C571.979 60.1924 572.929 60.1924 573.515 59.6066L583.061 50.0607ZM538 50.5H582V47.5H538V50.5Z" fill="#CECCCC"/>
<path fill-rule="evenodd" clip-rule="evenodd" d="M516 43.9384V43.9344V43.9394C515.999 44.1381 515.92 44.3284 515.779 44.4686C515.638 44.6087 515.447 44.6872 515.249 44.6869C515.05 44.6866 514.86 44.6074 514.719 44.4668C514.579 44.3262 514.5 44.1356 514.5 43.9369C514.5 43.7382 514.579 43.5476 514.719 43.407C514.86 43.2664 515.05 43.1872 515.249 43.1869C515.447 43.1866 515.638 43.2651 515.779 43.4053C515.92 43.5454 515.999 43.7357 516 43.9344V43.9384ZM516.45 45.8384C516.881 45.5668 517.207 45.1571 517.374 44.6763C517.542 44.1954 517.542 43.6719 517.374 43.1913C517.205 42.7107 516.879 42.3014 516.448 42.0303C516.016 41.7592 515.506 41.6425 515 41.699C514.494 41.7556 514.022 41.9822 513.661 42.3418C513.301 42.7014 513.073 43.1726 513.015 43.6786C512.957 44.1845 513.072 44.6952 513.342 45.1271C513.612 45.559 514.02 45.8867 514.5 46.0564V51.3124C514 51.4893 513.578 51.8375 513.309 52.2953C513.041 52.7531 512.943 53.2911 513.032 53.8142C513.122 54.3373 513.394 54.8119 513.8 55.154C514.206 55.4961 514.719 55.6837 515.25 55.6837C515.781 55.6837 516.294 55.4961 516.7 55.154C517.106 54.8119 517.378 54.3373 517.468 53.8142C517.557 53.2911 517.459 52.7531 517.191 52.2953C516.922 51.8375 516.5 51.4893 516 51.3124V47.8074C516.538 48.3995 517.194 48.8723 517.926 49.1956C518.658 49.5188 519.45 49.6853 520.25 49.6844H521.628C521.805 50.1851 522.153 50.6071 522.611 50.8759C523.069 51.1446 523.607 51.2428 524.131 51.153C524.654 51.0633 525.129 50.7914 525.471 50.3854C525.814 49.9794 526.001 49.4654 526.001 48.9344C526.001 48.4034 525.814 47.8895 525.471 47.4835C525.129 47.0775 524.654 46.8056 524.131 46.7158C523.607 46.626 523.069 46.7242 522.611 46.993C522.153 47.2617 521.805 47.6837 521.628 48.1844H520.25C519.461 48.1845 518.688 47.9651 518.017 47.5508C517.346 47.1364 516.803 46.5435 516.45 45.8384V45.8384ZM523.75 49.6844C523.949 49.6844 524.14 49.6054 524.28 49.4647C524.421 49.3241 524.5 49.1333 524.5 48.9344C524.5 48.7355 524.421 48.5447 524.28 48.4041C524.14 48.2634 523.949 48.1844 523.75 48.1844C523.551 48.1844 523.36 48.2634 523.22 48.4041C523.079 48.5447 523 48.7355 523 48.9344C523 49.1333 523.079 49.3241 523.22 49.4647C523.36 49.6054 523.551 49.6844 523.75 49.6844ZM515.25 54.1844C515.449 54.1844 515.64 54.1054 515.78 53.9647C515.921 53.8241 516 53.6333 516 53.4344C516 53.2355 515.921 53.0447 515.78 52.9041C515.64 52.7634 515.449 52.6844 515.25 52.6844C515.051 52.6844 514.86 52.7634 514.72 52.9041C514.579 53.0447 514.5 53.2355 514.5 53.4344C514.5 53.6333 514.579 53.8241 514.72 53.9647C514.86 54.1054 515.051 54.1844 515.25 54.1844Z" fill="black"/>
</svg>
