<svg xmlns="http://www.w3.org/2000/svg" viewBox="0 0 750 500"><g id="freepik--background-complete--inject-34"><path d="M655,382.74a12.05,12.05,0,1,1,12-12.05A12.06,12.06,0,0,1,655,382.74Zm0-17.64a5.59,5.59,0,1,0,5.58,5.59A5.6,5.6,0,0,0,655,365.1Z" style="fill:#ebebeb"></path><path d="M655,440.05a12.05,12.05,0,1,1,12-12.05A12.06,12.06,0,0,1,655,440.05Zm0-17.63a5.58,5.58,0,1,0,5.58,5.58A5.59,5.59,0,0,0,655,422.42Z" style="fill:#ebebeb"></path><path d="M703.85,440.05a12.05,12.05,0,1,1,12-12.05A12.07,12.07,0,0,1,703.85,440.05Zm0-17.63a5.58,5.58,0,1,0,5.59,5.58A5.58,5.58,0,0,0,703.85,422.42Z" style="fill:#ebebeb"></path><rect x="651.46" y="379.66" width="6.47" height="40.49" style="fill:#ebebeb"></rect><path d="M708.23,421.69h-6.46V388a14.14,14.14,0,0,0-14.12-14.12h-8.42v-6.47h8.42A20.61,20.61,0,0,1,708.23,388Z" style="fill:#ebebeb"></path><polygon points="683.83 358.8 683.83 381.81 671.28 370.69 683.83 358.8" style="fill:#ebebeb"></polygon><rect x="39.22" y="117.03" width="49.9" height="82.8" style="fill:#f5f5f5"></rect><rect x="91.04" y="117.03" width="53.92" height="82.8" style="fill:#f5f5f5"></rect><rect x="91.04" y="205.62" width="53.92" height="80" style="fill:#f5f5f5"></rect><polygon points="151.86 115.6 208.64 115.6 208.64 42.15 210.56 42.15 210.56 115.6 256.77 115.6 256.77 40.52 151.86 40.52 151.86 115.6" style="fill:#f5f5f5"></polygon><rect x="210.56" y="117.03" width="46.21" height="82.8" style="fill:#f5f5f5"></rect><rect x="210.56" y="205.62" width="46.21" height="80" style="fill:#f5f5f5"></rect><rect x="39.22" y="205.62" width="49.9" height="80" style="fill:#f5f5f5"></rect><rect x="151.86" y="205.62" width="56.78" height="80" style="fill:#f5f5f5"></rect><rect x="39.22" y="287.05" width="49.9" height="72.09" style="fill:#f5f5f5"></rect><rect x="210.56" y="287.05" width="46.21" height="72.09" style="fill:#f5f5f5"></rect><polygon points="89.12 115.6 89.12 42.15 91.04 42.15 91.04 115.6 144.95 115.6 144.95 40.52 39.22 40.52 39.22 115.6 89.12 115.6" style="fill:#f5f5f5"></polygon><rect x="151.86" y="287.05" width="56.78" height="72.09" style="fill:#f5f5f5"></rect><rect x="91.04" y="287.05" width="53.92" height="72.09" style="fill:#f5f5f5"></rect><rect x="151.86" y="117.03" width="56.78" height="82.8" style="fill:#f5f5f5"></rect><rect x="422.43" y="113.64" width="47.69" height="79.13" style="fill:#f5f5f5"></rect><rect x="471.95" y="113.64" width="51.52" height="79.13" style="fill:#f5f5f5"></rect><rect x="471.95" y="198.29" width="51.52" height="76.45" style="fill:#f5f5f5"></rect><polygon points="530.07 112.27 584.33 112.27 584.33 42.07 586.17 42.07 586.17 112.27 630.33 112.27 630.33 40.52 530.07 40.52 530.07 112.27" style="fill:#f5f5f5"></polygon><rect x="586.17" y="113.64" width="44.16" height="79.13" style="fill:#f5f5f5"></rect><rect x="586.17" y="198.29" width="44.16" height="76.45" style="fill:#f5f5f5"></rect><rect x="422.43" y="198.29" width="47.69" height="76.45" style="fill:#f5f5f5"></rect><rect x="530.07" y="198.29" width="54.26" height="76.45" style="fill:#f5f5f5"></rect><polygon points="470.11 112.27 470.11 42.07 471.94 42.07 471.94 112.27 523.47 112.27 523.47 40.52 422.43 40.52 422.43 112.27 470.11 112.27" style="fill:#f5f5f5"></polygon><rect x="530.07" y="113.64" width="54.26" height="79.13" style="fill:#f5f5f5"></rect><path d="M380.07,157.6l-13.55-6.13A33.39,33.39,0,1,1,376.9,143Zm-13.59-7.38,12,5.44-2.81-12.93.17-.21a32.23,32.23,0,1,0-15.51,10.25,32.56,32.56,0,0,0,5.89-2.42Z" style="fill:#e0e0e0"></path><circle cx="325.34" cy="127.13" r="29.43" transform="translate(121.46 410.75) rotate(-75.63)" style="fill:#e0e0e0"></circle><polygon points="303.9 143.42 300.89 158.97 314.8 152.27 303.9 143.42" style="fill:#e0e0e0"></polygon><circle cx="313.13" cy="127.13" r="3.96" style="fill:#fff"></circle><path d="M328,127.13a4,4,0,1,1-4-4A4,4,0,0,1,328,127.13Z" style="fill:#fff"></path><circle cx="334.88" cy="127.13" r="3.96" style="fill:#fff"></circle></g><g id="freepik--speech-bubble-2--inject-34"><path d="M568.21,123.58l-9.68-6.38a37,37,0,1,0-1.34,13.2v0Z" style="fill:#fff"></path><path d="M568.21,123.58l-.74.44-2.14,1.3-8.2,5,.17.1v0a.11.11,0,0,0-.11-.12.11.11,0,0,0-.11.08,37.06,37.06,0,0,1-9.27,15.68,35.94,35.94,0,0,1-4.32,3.72,41,41,0,0,1-5.22,3.15,36.72,36.72,0,0,1-47.52-52.5,37.54,37.54,0,0,1,12.12-11.79,36.43,36.43,0,0,1,15.11-5,37,37,0,0,1,26.52,7.72l1.22,1a10.38,10.38,0,0,1,1.15,1c.73.72,1.44,1.44,2.14,2.14a50.35,50.35,0,0,1,3.5,4.55,36.8,36.8,0,0,1,5.91,17.12.08.08,0,0,0,.05.08l7.21,4.67,1.87,1.21.66.41s-.19-.14-.6-.41l-1.82-1.23-7.2-4.83,0,.08A36.74,36.74,0,0,0,552.8,99.9a52.74,52.74,0,0,0-3.52-4.61l-2.15-2.17A10.57,10.57,0,0,0,546,92.07l-1.23-1a36.94,36.94,0,0,0-12-6.35,37.38,37.38,0,0,0-14.85-1.54,36.68,36.68,0,0,0-15.32,5,37.79,37.79,0,0,0-12.29,11.93,36.81,36.81,0,0,0-5.72,17,16.87,16.87,0,0,0-.11,2.25l0,2.24.19,2.23a16.14,16.14,0,0,0,.28,2.2c.14.73.27,1.45.4,2.17s.38,1.42.57,2.13.38,1.41.63,2.1l.81,2a36.48,36.48,0,0,0,9.79,13.64,37.08,37.08,0,0,0,41.31,5.16,41.13,41.13,0,0,0,5.26-3.21,35.81,35.81,0,0,0,4.35-3.77,37,37,0,0,0,9.24-15.87l-.23,0v0a.12.12,0,0,0,.11.12l.07,0,8.2-5.17,2.08-1.32Z" style="fill:#263238"></path><path d="M514.39,114.1a4.42,4.42,0,1,1,4.42-4.41A4.42,4.42,0,0,1,514.39,114.1Zm0-6.46a2,2,0,1,0,2.05,2A2,2,0,0,0,514.39,107.64Z" style="fill:#263238"></path><path d="M514.39,135.1a4.42,4.42,0,1,1,4.42-4.42A4.42,4.42,0,0,1,514.39,135.1Zm0-6.46a2,2,0,1,0,2.05,2A2,2,0,0,0,514.39,128.64Z" style="fill:#263238"></path><path d="M532.28,135.1a4.42,4.42,0,1,1,4.41-4.42A4.42,4.42,0,0,1,532.28,135.1Zm0-6.46a2,2,0,1,0,2,2A2.05,2.05,0,0,0,532.28,128.64Z" style="fill:#263238"></path><rect x="513.08" y="112.97" width="2.37" height="14.84" style="fill:#263238"></rect><path d="M533.88,128.37h-2.37V116a5.18,5.18,0,0,0-5.17-5.17h-3.08V108.5h3.08a7.55,7.55,0,0,1,7.54,7.54Z" style="fill:#263238"></path><polygon points="524.94 105.33 524.94 113.76 520.35 109.69 524.94 105.33" style="fill:#263238"></polygon></g><g id="freepik--speech-bubble-1--inject-34"><path d="M180,289.57l8.79-6.16a34.22,34.22,0,1,1,1.58,12.18v0Z" style="fill:#fff"></path><path d="M180,289.57l.7.38,2,1.15,7.72,4.41-.16.1v0a.1.1,0,0,1,.1-.11.12.12,0,0,1,.11.07,34.18,34.18,0,0,0,9,14.26,32.65,32.65,0,0,0,4.1,3.33,40.52,40.52,0,0,0,4.9,2.78,33.95,33.95,0,0,0,48.22-34.45A33.58,33.58,0,0,0,251,266.12a34.64,34.64,0,0,0-11.51-10.58,33.46,33.46,0,0,0-14.1-4.22,34.27,34.27,0,0,0-13.53,1.76,33.81,33.81,0,0,0-10.79,6.07l-1.1,1a9,9,0,0,0-1.05,1l-1.92,2a48.29,48.29,0,0,0-3.11,4.3,34.11,34.11,0,0,0-5,16,.12.12,0,0,1,0,.08L182.3,288l-1.7,1.17-.6.4.54-.4L182.2,288l6.53-4.65,0,.08a34,34,0,0,1,4.95-16.15,47,47,0,0,1,3.12-4.35l1.94-2.06a9,9,0,0,1,1-1l1.11-1a34.48,34.48,0,0,1,24.59-8,34,34,0,0,1,14.3,4.26,35.05,35.05,0,0,1,11.68,10.71,34.14,34.14,0,0,1,5.73,15.57,14.46,14.46,0,0,1,.16,2.08l.08,2.07-.12,2.06a14,14,0,0,1-.2,2.05c-.11.67-.21,1.35-.32,2a19,19,0,0,1-.46,2c-.18.65-.32,1.32-.53,2l-.69,1.89a34,34,0,0,1-8.7,12.87,34.5,34.5,0,0,1-26.12,9.05,34.06,34.06,0,0,1-11.95-3.2,37.54,37.54,0,0,1-5-2.83,34.81,34.81,0,0,1-4.12-3.37,34.16,34.16,0,0,1-9-14.43l.21,0v0a.1.1,0,0,1-.1.11h-.06l-7.72-4.57-2-1.17Z" style="fill:#263238"></path><polygon points="210.86 285.69 214.39 282.16 221.2 288.21 234.56 275.35 237.84 278.88 220.7 295.02 210.86 285.69" style="fill:#263238"></polygon></g><g id="freepik--Lines--inject-34"><rect x="231.93" y="411.61" width="399.4" height="1" style="fill:#263238"></rect><rect x="336.79" y="204.73" width="98.85" height="1" style="fill:#263238"></rect><rect x="653.73" y="411.61" width="23.33" height="1" style="fill:#263238"></rect><rect x="635" y="411.61" width="12.21" height="1" style="fill:#263238"></rect><rect x="313.75" y="221.42" width="1" height="164.21" style="fill:#263238"></rect><path d="M572.75,375.25h-1v-12h1Zm-1.3-23.92a31.15,31.15,0,0,0-3.77-11.11l.87-.5a32.16,32.16,0,0,1,3.89,11.48ZM560.1,331.26a31.25,31.25,0,0,0-10.34-5.57l.3-.95a32.1,32.1,0,0,1,10.67,5.74Zm-22-7h-12v-1h12Zm-24,0h-12v-1h12Zm-24,0a32.24,32.24,0,0,1-11.84-2.55l.39-.92a31.35,31.35,0,0,0,11.48,2.47ZM468.14,315a32.21,32.21,0,0,1-6.92-9.95l.91-.4a31.4,31.4,0,0,0,6.71,9.63Zm-9.7-21.74c0-.47,0-.95,0-1.43V281.19h1v10.59c0,.47,0,.93,0,1.39Zm1-24h-1v-12h1Zm0-24h-1v-12h1Z" style="fill:#263238"></path></g><g id="freepik--Button--inject-34"><rect x="230.59" y="177.33" width="149.52" height="49.69" rx="24.85" style="fill:#7E57C2"></rect><path d="M265.23,201.45c0,2-1.49,3.2-3.86,3.2h-1.51v2.27h-2.45v-8.68h4C263.74,198.24,265.23,199.47,265.23,201.45Zm-2.48,0c0-.8-.51-1.27-1.53-1.27h-1.36v2.54h1.36C262.24,202.72,262.75,202.25,262.75,201.45Z" style="fill:#fff"></path><path d="M266.25,203.05v-4.81h2.46V203c0,1.48.61,2.08,1.64,2.08s1.64-.6,1.64-2.08v-4.74h2.41v4.81a3.69,3.69,0,0,1-4.07,4C267.76,207.09,266.25,205.64,266.25,203.05Z" style="fill:#fff"></path><path d="M276.06,198.24h2.45V205h4.14v1.95h-6.59Z" style="fill:#fff"></path><path d="M283.62,198.24h2.45V205h4.14v1.95h-6.59Z" style="fill:#fff"></path><path d="M298.57,204.61h-1.34v2.31h-2.45v-8.68h4c2.37,0,3.86,1.23,3.86,3.21a2.88,2.88,0,0,1-1.7,2.74l1.87,2.73h-2.63Zm0-4.43h-1.36v2.54h1.36c1,0,1.53-.47,1.53-1.27S299.61,200.18,298.59,200.18Z" style="fill:#fff"></path><path d="M310.91,205v1.9h-7v-8.68h6.81v1.9h-4.38v1.46h3.85v1.84h-3.85V205Z" style="fill:#fff"></path><path d="M321.89,207.92a3,3,0,0,1-2.42,1.09c-1.42,0-2.35-.48-3.8-2a4.44,4.44,0,0,1-3.86-4.44,4.83,4.83,0,0,1,9.64,0,4.38,4.38,0,0,1-2.95,4.19,1.29,1.29,0,0,0,1,.49,1.85,1.85,0,0,0,1.31-.6Zm-5.26-2.86a2.48,2.48,0,1,0-2.34-2.48A2.32,2.32,0,0,0,316.63,205.06Z" style="fill:#fff"></path><path d="M322.66,203.05v-4.81h2.45V203c0,1.48.62,2.08,1.65,2.08s1.64-.6,1.64-2.08v-4.74h2.41v4.81a3.69,3.69,0,0,1-4.07,4C324.17,207.09,322.66,205.64,322.66,203.05Z" style="fill:#fff"></path><path d="M339.43,205v1.9h-7v-8.68h6.8v1.9H334.9v1.46h3.85v1.84H334.9V205Z" style="fill:#fff"></path><path d="M340.19,206.14l.8-1.81a5.45,5.45,0,0,0,2.86.85c1,0,1.42-.28,1.42-.7,0-1.38-4.93-.38-4.93-3.6,0-1.55,1.26-2.81,3.84-2.81a6.43,6.43,0,0,1,3.14.76l-.75,1.82a5.09,5.09,0,0,0-2.41-.67c-1,0-1.4.34-1.4.78,0,1.32,4.92.33,4.92,3.53,0,1.51-1.26,2.8-3.84,2.8A6.8,6.8,0,0,1,340.19,206.14Z" style="fill:#fff"></path><path d="M350.53,200.19h-2.66v-1.95h7.76v1.95H353v6.73h-2.45Z" style="fill:#fff"></path></g><g id="freepik--Codes--inject-34"><path d="M473.48,437.62H429.77a5.4,5.4,0,0,1-5.47-5.32V373.46a5.4,5.4,0,0,1,5.47-5.32h27.72L479,389.65V432.3A5.4,5.4,0,0,1,473.48,437.62Z" style="fill:#455a64"></path><g style="opacity:0.2"><path d="M457.49,368.14V384.7a5,5,0,0,0,5.09,4.95H479Z" style="fill:#fff"></path></g><g style="opacity:0.2"><path d="M457.72,386.15s-.22,4,4.48,5.34l.54.12c2.14.37,16.21,2.8,16.21,2.49v-4.45H462.58S458.49,389.51,457.72,386.15Z"></path></g><g style="opacity:0.30000000000000004"><path d="M424.3,415.72H479a0,0,0,0,1,0,0v17.92a4,4,0,0,1-4,4H428.28a4,4,0,0,1-4-4V415.72A0,0,0,0,1,424.3,415.72Z"></path></g><path d="M443.47,422.3v7.34h-1.7v-3h-3.34v3h-1.7V422.3h1.7v2.89h3.34V422.3Z" style="fill:#fafafa"></path><path d="M446.73,423.68h-2.35V422.3h6.4v1.38h-2.35v6h-1.7Z" style="fill:#fafafa"></path><path d="M458.38,429.64v-4.41l-2.17,3.63h-.76l-2.15-3.53v4.31h-1.6V422.3h1.41l2.75,4.56,2.7-4.56H460l0,7.34Z" style="fill:#fafafa"></path><path d="M461.71,422.3h1.7v6h3.68v1.38h-5.38Z" style="fill:#fafafa"></path><path d="M446.41,396.32l-6.56,3,6.56,3v3.1L437,401v-3.22l9.38-4.48Z" style="fill:#fff"></path><path d="M457,402.37l6.56-3-6.56-3v-3.1l9.38,4.48V401L457,405.44Z" style="fill:#fff"></path><path d="M451.18,390.2l2.9-.06-2.2,18.67-2.88-.07Z" style="fill:#fff"></path><path d="M347.08,437.62H303.37a5.4,5.4,0,0,1-5.47-5.32V373.46a5.4,5.4,0,0,1,5.47-5.32h27.72l21.46,21.51V432.3A5.4,5.4,0,0,1,347.08,437.62Z" style="fill:#455a64"></path><g style="opacity:0.2"><path d="M331.09,368.14V384.7a5,5,0,0,0,5.08,4.95h16.38Z" style="fill:#fff"></path></g><g style="opacity:0.2"><path d="M331.31,386.15s-.21,4,4.49,5.34c.17.05.36.08.54.12,2.13.37,16.21,2.8,16.21,2.49v-4.45H336.17S332.09,389.51,331.31,386.15Z"></path></g><g style="opacity:0.30000000000000004"><path d="M297.9,415.72h54.65a0,0,0,0,1,0,0v17.92a4,4,0,0,1-4,4H301.88a4,4,0,0,1-4-4V415.72A0,0,0,0,1,297.9,415.72Z"></path></g><path d="M317.06,422.3v7.34h-1.7v-3H312v3h-1.7V422.3H312v2.89h3.33V422.3Z" style="fill:#fafafa"></path><path d="M320.33,423.68H318V422.3h6.4v1.38H322v6h-1.7Z" style="fill:#fafafa"></path><path d="M332,429.64v-4.41l-2.16,3.63H329l-2.15-3.53v4.31h-1.59V422.3h1.4l2.75,4.56,2.71-4.56h1.4l0,7.34Z" style="fill:#fafafa"></path><path d="M335.31,422.3H337v6h3.68v1.38h-5.38Z" style="fill:#fafafa"></path><path d="M320,396.32l-6.56,3,6.56,3v3.1L310.63,401v-3.22l9.38-4.48Z" style="fill:#fff"></path><path d="M330.57,402.37l6.56-3-6.56-3v-3.1l9.38,4.48V401l-9.38,4.49Z" style="fill:#fff"></path><path d="M324.78,390.2l2.89-.06-2.2,18.67-2.88-.07Z" style="fill:#fff"></path><path d="M478.34,250.76h-42a5.19,5.19,0,0,1-5.26-5.11V189.07a5.19,5.19,0,0,1,5.26-5.11l30.67.53,16.62,20.15v41A5.19,5.19,0,0,1,478.34,250.76Z" style="fill:#455a64"></path><g style="opacity:0.30000000000000004"><path d="M431.05,229.71H483.6a0,0,0,0,1,0,0v17.08a4,4,0,0,1-4,4H435a4,4,0,0,1-4-4V229.71A0,0,0,0,1,431.05,229.71Z"></path></g><path d="M449.48,236v7.06h-1.63V240.2h-3.21v2.89H443V236h1.63v2.79h3.21V236Z" style="fill:#fafafa"></path><path d="M452.62,237.36h-2.26V236h6.15v1.33h-2.26v5.73h-1.63Z" style="fill:#fafafa"></path><path d="M463.82,243.09v-4.23l-2.08,3.49H461l-2.07-3.4v4.14h-1.53V236h1.35l2.64,4.39L464,236h1.34l0,7.06Z" style="fill:#fafafa"></path><path d="M467,236h1.64v5.73h3.54v1.33H467Z" style="fill:#fafafa"></path><path d="M452.31,211.06,446,214l6.31,2.89v3l-9-4.31v-3.09l9-4.32Z" style="fill:#fff"></path><path d="M462.47,216.87l6.3-2.91-6.3-2.88v-3l9,4.32v3.09l-9,4.31Z" style="fill:#fff"></path><path d="M456.9,205.18l2.78-.07-2.11,18L454.8,223Z" style="fill:#fff"></path><circle cx="479.53" cy="193.05" r="15.51" style="fill:#fff"></circle><path d="M495,193.05a26,26,0,0,0-.59-3.76,14.75,14.75,0,0,0-1.73-4.09,15.3,15.3,0,0,0-18.4-6.49,15.27,15.27,0,0,0-7.08,5.32,15.18,15.18,0,0,0,0,18,15.27,15.27,0,0,0,7.08,5.32,15.38,15.38,0,0,0,18.4-6.49,14.75,14.75,0,0,0,1.73-4.09,26,26,0,0,0,.59-3.76.93.93,0,0,1,0,.25c0,.2,0,.44,0,.74a7.05,7.05,0,0,1-.1,1.2,10.54,10.54,0,0,1-.29,1.62,14.45,14.45,0,0,1-1.68,4.19,15.64,15.64,0,0,1-18.81,6.8,15.12,15.12,0,0,1-4-2.14,14.7,14.7,0,0,1-3.34-3.34,15.64,15.64,0,0,1,0-18.64,17,17,0,0,1,1.55-1.83,17.22,17.22,0,0,1,1.79-1.51,14.83,14.83,0,0,1,4-2.14,15.77,15.77,0,0,1,8.27-.65A15.66,15.66,0,0,1,493,185.05a14.45,14.45,0,0,1,1.68,4.19,10.34,10.34,0,0,1,.29,1.62,7.05,7.05,0,0,1,.1,1.2c0,.3,0,.54,0,.74A1,1,0,0,1,495,193.05Z" style="fill:#263238"></path><polygon points="471.88 194.39 473.98 192.28 478.04 195.89 486 188.23 487.95 190.33 477.73 199.94 471.88 194.39" style="fill:#7E57C2"></polygon><path d="M599.89,437.62H556.18a5.4,5.4,0,0,1-5.47-5.32V373.46a5.4,5.4,0,0,1,5.47-5.32H583.9l21.46,21.51V432.3A5.4,5.4,0,0,1,599.89,437.62Z" style="fill:#455a64"></path><g style="opacity:0.2"><path d="M583.9,368.14V384.7a5,5,0,0,0,5.08,4.95h16.38Z" style="fill:#fff"></path></g><g style="opacity:0.2"><path d="M584.12,386.15s-.21,4,4.49,5.34c.17.05.35.08.54.12,2.13.37,16.21,2.8,16.21,2.49v-4.45H589S584.9,389.51,584.12,386.15Z"></path></g><g style="opacity:0.30000000000000004"><path d="M550.71,415.72h54.65a0,0,0,0,1,0,0v17.92a4,4,0,0,1-4,4H554.69a4,4,0,0,1-4-4V415.72A0,0,0,0,1,550.71,415.72Z"></path></g><path d="M569.87,422.3v7.34h-1.7v-3h-3.33v3h-1.7V422.3h1.7v2.89h3.33V422.3Z" style="fill:#fafafa"></path><path d="M573.14,423.68h-2.35V422.3h6.4v1.38h-2.35v6h-1.7Z" style="fill:#fafafa"></path><path d="M584.78,429.64v-4.41l-2.16,3.63h-.77l-2.15-3.53v4.31H578.1V422.3h1.4l2.75,4.56L585,422.3h1.4l0,7.34Z" style="fill:#fafafa"></path><path d="M588.12,422.3h1.7v6h3.68v1.38h-5.38Z" style="fill:#fafafa"></path><path d="M572.82,396.32l-6.56,3,6.56,3v3.1L563.44,401v-3.22l9.38-4.48Z" style="fill:#fff"></path><path d="M583.38,402.37l6.56-3-6.56-3v-3.1l9.38,4.48V401l-9.38,4.49Z" style="fill:#fff"></path><path d="M577.59,390.2l2.89-.06-2.2,18.67-2.88-.07Z" style="fill:#fff"></path></g><g id="freepik--character-2--inject-34"><path d="M615.45,53.33A12.56,12.56,0,0,0,603.83,58,8.11,8.11,0,0,0,595,69.87a9,9,0,0,0-.61,14.19l30.79-22.82A12.56,12.56,0,0,0,615.45,53.33Z" style="fill:#263238"></path><path d="M594.16,85.52a31.41,31.41,0,0,1,32.72-27.3l1.62.08c17.47,1.89,25.63,17.79,23.25,35.2l-5.44,58.23-.29,2.83-40.84,6.1.8-14.88s-16.72-3.45-16.09-20.31C590.19,117.33,592.18,100.62,594.16,85.52Z" style="fill:#ae7461"></path><path d="M605.84,145.75a40.94,40.94,0,0,0,22.39-5.36s-5.79,11.86-22.52,9.51Z" style="fill:#6f4439"></path><path d="M598.65,101.08a2.41,2.41,0,0,0,2.19,2.55,2.31,2.31,0,0,0,2.59-2A2.39,2.39,0,0,0,601.24,99,2.3,2.3,0,0,0,598.65,101.08Z" style="fill:#263238"></path><path d="M597.37,93.94c.28.33,2.17-.93,4.76-.79s4.42,1.52,4.72,1.22c.14-.13-.13-.71-.93-1.36a6.59,6.59,0,0,0-3.76-1.36,6.36,6.36,0,0,0-3.81,1C597.53,93.24,597.23,93.8,597.37,93.94Z" style="fill:#263238"></path><path d="M622.74,103a2.4,2.4,0,0,0,2.19,2.54,2.31,2.31,0,0,0,2.59-2,2.42,2.42,0,0,0-2.2-2.55A2.3,2.3,0,0,0,622.74,103Z" style="fill:#263238"></path><path d="M622.79,95.69c.28.33,2.17-.93,4.76-.79s4.42,1.52,4.72,1.22c.14-.14-.13-.72-.93-1.36a6.69,6.69,0,0,0-3.76-1.37,6.36,6.36,0,0,0-3.81,1C623,95,622.65,95.54,622.79,95.69Z" style="fill:#263238"></path><path d="M612.44,114.42c0-.15-1.57-.51-4.16-1-.66-.1-1.28-.26-1.37-.72a3.41,3.41,0,0,1,.54-1.94l2.2-4.93c3.07-7,5.33-12.83,5.05-13s-3,5.48-6.08,12.51l-2.12,5A3.81,3.81,0,0,0,606,113a1.67,1.67,0,0,0,1,1,4.13,4.13,0,0,0,1.11.21C610.8,114.47,612.42,114.56,612.44,114.42Z" style="fill:#263238"></path><path d="M620,116.59c-.42,0-.57,2.76-3.07,4.64s-5.48,1.41-5.52,1.8c0,.18.64.58,1.9.68a7,7,0,0,0,4.6-1.35,6.13,6.13,0,0,0,2.4-3.9C620.44,117.29,620.16,116.58,620,116.59Z" style="fill:#263238"></path><path d="M622.62,85.51c.22.72,2.83.51,5.84,1s5.44,1.47,5.87.86c.2-.3-.2-1-1.15-1.71a10,10,0,0,0-4.3-1.75,9.75,9.75,0,0,0-4.62.32C623.12,84.65,622.53,85.17,622.62,85.51Z" style="fill:#263238"></path><path d="M598.69,86.5c.43.61,2.24.09,4.39.17s3.94.59,4.39,0c.2-.29-.06-.89-.83-1.48A6,6,0,0,0,603.13,84a6.1,6.1,0,0,0-3.56,1C598.79,85.61,598.51,86.2,598.69,86.5Z" style="fill:#263238"></path><path d="M596.16,77.88s5-10.33,10.18-12.54c6.3-2.67,8.62,4.22,14.57,2.87s12-3.92,17.74.92c6.32,5.29,3.07,8.62,3.1,16.11.14,30.38,5.25,39.23,7.53,25,.25-1.55,4.65-2.58,5.62-9.15,1.26-8.53,2.11-18.91.5-25.09-1.36-5.2-4.1-8.89-9.15-13.05-8-6.57-19.31-7.27-27.07-6.87S596.12,64.64,596.16,77.88Z" style="fill:#263238"></path><path d="M648.23,109.76a4.58,4.58,0,0,1,5.15-4.16c3.13.46,6.54,2.41,6,8.89-.94,11.5-12.29,8.19-12.28,7.85S647.79,114.57,648.23,109.76Z" style="fill:#ae7461"></path><path d="M650,118.22c.06,0,.19.16.52.34a2,2,0,0,0,1.49.16c1.25-.35,2.43-2.19,2.66-4.26a6.79,6.79,0,0,0-.33-2.92,2.32,2.32,0,0,0-1.38-1.66,1,1,0,0,0-1.23.46c-.18.31-.12.54-.18.56s-.24-.22-.1-.68a1.24,1.24,0,0,1,.51-.69,1.52,1.52,0,0,1,1.13-.2,2.8,2.8,0,0,1,1.94,2,6.72,6.72,0,0,1,.44,3.26c-.27,2.32-1.63,4.39-3.33,4.73a2.14,2.14,0,0,1-1.81-.45C650,118.5,649.92,118.24,650,118.22Z" style="fill:#6f4439"></path><path d="M652.57,90.3a11.76,11.76,0,0,1-5.38,2.16c-2,.1-4.12-1.13-4.35-3.07-.11-.87.15-1.86-.38-2.56s-1.91-.64-3-.58a8,8,0,0,1-8-6.1c-1,1.34-3.13,1.17-4.48.2s-2.17-2.48-3.2-3.78-2.51-2.5-4.16-2.35c-.92.09-1.81.59-2.73.46-1.62-.22-2.32-2.17-2.49-3.8s-.27-3.53-1.6-4.48-2.92-.49-4.44-.34-3.43-.3-3.74-1.79a3,3,0,0,1,.67-2.23A8.05,8.05,0,0,1,615,59.47a11.18,11.18,0,0,1,9.7-7.28c4.27-.24,8.25-1.46,10.11,2.4,2.74-2.25,6.93.7,10.35,1.66a11.28,11.28,0,0,1,7.46,7,8,8,0,0,1,8.46,12.12c2.17,1.38,4,3.7,3.89,6.27s-2.71,5-5.16,4.21a4.45,4.45,0,0,1-7.9,4" style="fill:#263238"></path><path d="M683.44,252l34-7.34s-4.66-25.58-10.46-51.52c-4.63-20.69-27.49-26.43-27.49-26.43h0L653,155l-3.57-13.75c-14.56,7.2-28.69,14.13-37.21,17.6l-7.8-8.62-3.31,10.35-2.79.29s-11.53,3.5-12.69,3.59c-10.55.84-24.31,12.65-29.46,25-2.13,5.11-10.38,35.67-16.42,67.31-4.38,22.89-6.91,45.11-8,48.12l34,.07,7.84-48.19,2.3,48.46,115.73-.36-8.23-48.7Z" style="fill:#7E57C2"></path><path d="M568.52,199.83c-.1,0,.86,12.76,2.15,28.48s2.42,28.46,2.53,28.45-.86-12.76-2.15-28.48S568.63,199.82,568.52,199.83Z" style="fill:#263238"></path><path d="M653,155.43l-34.41,17.28-6.41-14s11.52-5,22-10.54c10.69-5.7,14.85-6.91,14.85-6.91" style="fill:#e0e0e0"></path><polyline points="604.05 150.24 611.85 158.85 604.82 171.39 600.74 160.59" style="fill:#e0e0e0"></polyline><path d="M686.89,171.5c.06.07-1.08,1-2.69,2.61a32.6,32.6,0,0,0-8.41,15.66c-.49,2.25-.61,3.68-.7,3.68a3.57,3.57,0,0,1,0-1,21,21,0,0,1,.33-2.74,29.2,29.2,0,0,1,8.52-15.85,20.81,20.81,0,0,1,2.1-1.79A3.21,3.21,0,0,1,686.89,171.5Z" style="fill:#263238"></path><path d="M612.22,158.71c.07,0-.76,1.32-2,3.42s-2.92,5.06-4.51,8.44c-.13.28-.25.56-.37.81l-.25.54-.25-.53A67.43,67.43,0,0,1,601.5,163c-.34-1.09-.59-2-.74-2.6a3.09,3.09,0,0,1-.17-1c.07,0,.5,1.31,1.27,3.46s1.93,5.08,3.45,8.27h-.49l.37-.82a69.85,69.85,0,0,1,4.68-8.41c.67-1,1.25-1.85,1.66-2.4A3.9,3.9,0,0,1,612.22,158.71Z" style="fill:#263238"></path><path d="M650,157a3,3,0,0,0-.48.2l-1.33.63-4.85,2.37-16,7.95-8.78,4.42.24.09-4.68-10.06c-.57-1.2-1-2.16-1.37-2.86l-.37-.76a1.16,1.16,0,0,0-.15-.25.92.92,0,0,0,.1.28l.32.77,1.28,2.91c1.13,2.51,2.71,6,4.55,10.11l.08.16.16-.08,8.79-4.39,15.91-8.05,4.8-2.48,1.3-.69A2.16,2.16,0,0,0,650,157Z" style="fill:#263238"></path><path d="M713.72,227.1s7.06,34.11,7.63,42c1.13,15.45-6.28,24.71-13.27,29.1-7.26,4.55-48.23,6.7-48.23,6.7l-2.48-24.5L684,264.27l-3.61-27.92Z" style="fill:#7E57C2"></path><path d="M683.85,263.33a4.7,4.7,0,0,0-.05-.56c-.06-.4-.13-.93-.23-1.6-.21-1.43-.51-3.43-.88-5.88-.79-5-1.86-11.84-3.05-19.39-2.34-14.77-4-25.41-4.34-27.41a3,3,0,0,0,0,.56c0,.38.09.92.17,1.61.17,1.4.45,3.41.81,5.9.72,5,1.77,11.83,3,19.4s2.32,14.42,3.16,19.37c.41,2.44.76,4.44,1,5.86.12.66.22,1.19.29,1.59A3,3,0,0,0,683.85,263.33Z" style="fill:#263238"></path><path d="M710.28,296.78a1.24,1.24,0,0,0-.21.16,3,3,0,0,1-.6.45,12.2,12.2,0,0,1-2.65,1.23,64.83,64.83,0,0,1-10.55,2.5,314.83,314.83,0,0,1-36.43,3.56l.2.16c-.25-2.41-.5-5-.77-7.54-.6-5.94-1.18-11.67-1.72-16.95l-.09.17,25.81-15.59,7.45-4.54,2-1.23.5-.32.17-.12s-.06,0-.18.09l-.53.3-2,1.17-7.51,4.46-25.87,15.47-.1.06v.11c.53,5.29,1.11,11,1.71,17,.26,2.58.52,5.13.77,7.54l0,.18h.17a300.88,300.88,0,0,0,36.45-3.68,63,63,0,0,0,10.56-2.62,11.68,11.68,0,0,0,2.64-1.3,3.46,3.46,0,0,0,.59-.48A1.56,1.56,0,0,0,710.28,296.78Z" style="fill:#263238"></path><g style="opacity:0.30000000000000004"><path d="M702,254.16a1.64,1.64,0,0,0-1-.59c-2-.45-4,.27-5.82,1.11A39.55,39.55,0,0,0,681.09,266l.46-.26c6.24-3.69,11.76-7.43,18.45-9.21a4.11,4.11,0,0,0,1.67-.72A1.32,1.32,0,0,0,702,254.16Z"></path></g><path d="M657.74,281.89l-3.45.32s-.45-5-1.23-6.94-2.24-7.94-2.24-7.94-15.43-6.49-15.77-6.49S619.62,265,619.62,265s.34,4.13,5.48,4.36a35.76,35.76,0,0,0,9.17-.78l4.81,1.79-9.62.61-16.88,10.12s.11,3,6.71,1.45,10-4.36,10-4.36L641.7,280l-13.13.62-9.84,4.92s.08,4.08,4.11,3.07,6.73-1.61,6.73-1.61l11.74,1.39-9.95.55s-6.71.18-6.37,2,5.26,3.35,5.26,3.35l7,1.24s.26,3.13,1.49,4.13,3.13,2.41,4.25,2.43,16.88.86,16.88.86Z" style="fill:#ae7461"></path><path d="M649.14,297.17a3.14,3.14,0,0,0,.6-.39,9.6,9.6,0,0,0,1.39-1.34,11.12,11.12,0,0,0,2.53-5.82,10.79,10.79,0,0,0-.16-3.53c-.23-1.06-.6-2-.71-2.75a3.69,3.69,0,0,1,.15-1.85,6.87,6.87,0,0,1,.3-.63,1.37,1.37,0,0,0-.42.58,3.49,3.49,0,0,0-.26,1.93c.08.83.43,1.75.64,2.79a11,11,0,0,1,.13,3.42,11.52,11.52,0,0,1-2.38,5.71A19.93,19.93,0,0,1,649.14,297.17Z" style="fill:#6f4439"></path><path d="M647.24,296a40,40,0,0,0-5.14-.35,40.81,40.81,0,0,0-5.14,0,39.7,39.7,0,0,0,5.13.35A41,41,0,0,0,647.24,296Z" style="fill:#6f4439"></path><path d="M646.48,288.57a11.2,11.2,0,0,0-2.73-.12,11.37,11.37,0,0,0-2.72.2,10.78,10.78,0,0,0,2.72.13A11.24,11.24,0,0,0,646.48,288.57Z" style="fill:#6f4439"></path><path d="M647,271.32c0-.1-1.71.19-3.8,0s-3.7-.81-3.73-.71a8.81,8.81,0,0,0,3.7,1A9,9,0,0,0,647,271.32Z" style="fill:#6f4439"></path><path d="M502,232.32l14.78,72.56H645.08a2.57,2.57,0,0,0,2.57-2.56h0a2.57,2.57,0,0,0-2.57-2.57H619.26l-13.71-67.48a2.79,2.79,0,0,0-2.71-2.24L504.79,229A2.8,2.8,0,0,0,502,232.32Z" style="fill:#e0e0e0"></path><path d="M502,232.32a1.73,1.73,0,0,1,0-.22,2.2,2.2,0,0,1,0-.66,2.83,2.83,0,0,1,1.36-2.12,2.79,2.79,0,0,1,.85-.33,4.15,4.15,0,0,1,1-.07l2.31,0,5.77.05,37.07.35,25.84.26,14.48.15,7.6.08,3.88,0c.33,0,.64,0,1,0a3.13,3.13,0,0,1,1,.29,3,3,0,0,1,1.41,1.48,5.32,5.32,0,0,1,.27,1l.2,1c.13.65.26,1.3.4,2,.26,1.31.53,2.63.8,4q.81,4,1.64,8.07,1.67,8.17,3.4,16.71c2.32,11.37,4.72,23.21,7.2,35.4l-.17-.14h25.39a4.27,4.27,0,0,1,1,.06,2.72,2.72,0,0,1,1.68,1.12,2.74,2.74,0,0,1-.94,4,2.83,2.83,0,0,1-1.21.32H577l-60.23,0h-.11l0-.11c-4.51-22.31-8.19-40.45-10.74-53L503,237.39c-.33-1.65-.58-2.92-.75-3.78s-.24-1.29-.24-1.29.1.43.28,1.28.44,2.12.79,3.78c.68,3.32,1.69,8.2,3,14.48,2.58,12.57,6.29,30.7,10.86,53l-.13-.11,60.23,0h68.14a2.43,2.43,0,0,0,1.05-.29A2.38,2.38,0,0,0,647,301a2.43,2.43,0,0,0-1.46-1,4.67,4.67,0,0,0-.93-.05H619.11l0-.14c-2.48-12.19-4.88-24-7.19-35.4l-3.38-16.71q-.82-4.1-1.64-8.08c-.27-1.33-.54-2.65-.8-4-.13-.65-.27-1.31-.4-2l-.2-1a3.77,3.77,0,0,0-.25-.92,2.63,2.63,0,0,0-1.25-1.32,2.54,2.54,0,0,0-.89-.26c-.3,0-.64,0-1,0l-3.88-.05-7.59-.09-14.48-.16-25.84-.31-37.07-.45-5.78-.08-2.3,0a4.6,4.6,0,0,0-1,.06,2.76,2.76,0,0,0-2.18,2.39A3.06,3.06,0,0,0,502,232.32Z" style="fill:#263238"></path><path d="M561.13,265.53a4.24,4.24,0,1,1-4.24-4.24A4.23,4.23,0,0,1,561.13,265.53Z" style="fill:#fff"></path><path d="M502.14,232.91l.44,0h6.28l18.35.09,60.51.43,8.75.07h2.15a5.92,5.92,0,0,1,1.1.07,3.16,3.16,0,0,1,1,.42,3,3,0,0,1,1.3,1.77c.16.71.28,1.38.43,2.07,1.08,5.46,2.13,10.74,3.12,15.76,2,10,3.78,19.09,5.28,26.69s2.69,13.74,3.52,18l1,4.9c.1.55.18,1,.23,1.27s.07.44.07.44,0-.15-.1-.43-.16-.72-.27-1.27c-.24-1.13-.58-2.77-1-4.88-.86-4.26-2.1-10.4-3.64-18s-3.33-16.64-5.35-26.68c-1-5-2-10.29-3.15-15.75-.13-.68-.26-1.39-.41-2a2.64,2.64,0,0,0-1.16-1.56,2.55,2.55,0,0,0-.92-.37,4.33,4.33,0,0,0-1-.06l-2.15,0-8.75-.07-60.52-.53-18.34-.2-5-.07-1.29,0Z" style="fill:#263238"></path></g><g id="freepik--character-1--inject-34"><path d="M93.81,271.7a48.88,48.88,0,0,0,15.6,36.89q3.48-10.09,7-20.19" style="fill:#263238"></path><path d="M146.36,231.53c-6-3.27-13.21-3.74-19.9-2.4s-12.92,4.36-18.82,7.78c-3.31,1.91-6.61,4-9,7-4.35,5.46-8.64,14.44-9.06,21.41-.34,5.64,1.82,19.75,4.2,24.86,2.19,4.7,12.42,8.28,17.47,9.44l46.34-53.89A23.47,23.47,0,0,0,146.36,231.53Z" style="fill:#263238"></path><path d="M154.35,238.8l-11.11-2c6.07,14.46,7.72,47.53,11.19,62.83,4.1-5.94,13.61-24,13.1-31.24S167.55,237.57,154.35,238.8Z" style="fill:#263238"></path><path d="M101.68,262.87A19,19,0,0,1,116,245.4l25.58-6.53c11.05-1.19,18.44,12.41,19.16,23.5.8,12.33,1.3,25.34-.14,34.54-2.9,18.51-17.07,20.89-17.07,20.89s0,8.8,0,14.21l-8.56,35.43-27.59-38.1-5.71-66.25C101.61,262.78,101.65,263.29,101.68,262.87Z" style="fill:#ffbe9d"></path><path d="M155.14,276.35a2.37,2.37,0,0,1-2.28,2.4,2.27,2.27,0,0,1-2.45-2.13,2.36,2.36,0,0,1,2.28-2.4A2.26,2.26,0,0,1,155.14,276.35Z" style="fill:#263238"></path><path d="M157.92,269.62c-.29.31-2.09-1-4.64-1s-4.43,1.29-4.7,1c-.14-.14.16-.7,1-1.29a6.43,6.43,0,0,1,3.76-1.17,6.27,6.27,0,0,1,3.7,1.18C157.8,268.92,158.07,269.48,157.92,269.62Z" style="fill:#263238"></path><path d="M132.89,276.35a2.37,2.37,0,0,1-2.28,2.4,2.26,2.26,0,0,1-2.45-2.13,2.36,2.36,0,0,1,2.28-2.4A2.27,2.27,0,0,1,132.89,276.35Z" style="fill:#263238"></path><path d="M133.68,269.62c-.3.31-2.1-1-4.65-1s-4.42,1.29-4.7,1c-.13-.14.16-.7,1-1.29a6.41,6.41,0,0,1,3.76-1.17,6.27,6.27,0,0,1,3.7,1.18C133.55,268.92,133.82,269.48,133.68,269.62Z" style="fill:#263238"></path><path d="M141.66,289.67c0-.14,1.57-.42,4.14-.76.66-.07,1.27-.2,1.38-.64a3.32,3.32,0,0,0-.44-1.93q-.92-2.37-1.94-5c-2.69-7.06-4.64-12.87-4.36-13s2.7,5.54,5.4,12.6c.64,1.74,1.27,3.4,1.85,5a3.75,3.75,0,0,1,.35,2.55,1.64,1.64,0,0,1-1.07,1,4.42,4.42,0,0,1-1.11.16C143.27,289.8,141.67,289.82,141.66,289.67Z" style="fill:#263238"></path><path d="M119,311.22s6,12.71,24.53,10.93V317.8A46.64,46.64,0,0,1,119,311.22Z" style="fill:#eb996e"></path><path d="M132.88,260.4c-.25.69-2.8.37-5.8.74s-5.41,1.18-5.81.56c-.18-.29.24-.95,1.22-1.62a9.55,9.55,0,0,1,4.3-1.52,9.75,9.75,0,0,1,4.54.52C132.43,259.52,133,260.07,132.88,260.4Z" style="fill:#263238"></path><path d="M157.09,261.81c-.45.58-2.21,0-4.32,0s-3.91.4-4.32-.21c-.18-.29.1-.87.88-1.42a6.25,6.25,0,0,1,7,.2C157,260.93,157.29,261.53,157.09,261.81Z" style="fill:#263238"></path><path d="M155.67,245.48c-1.13-2.78-4.18-4.46-7.18-4.61a15.89,15.89,0,0,0-8.54,2.49c-11,6.37-16.67,21.75-27.56,28.34-2.68,1.62-6.16.13-8.44,2.28s-3.75,5.58-2.49,8.44A25.69,25.69,0,0,1,97.68,276a8.71,8.71,0,0,1,.31-7.21c.94-1.63,2.6-2.88,3.06-4.7.4-1.61-.24-3.29-.17-4.95a10.77,10.77,0,0,1,1.7-4.72c4.26-7.54,10.13-14.36,17.68-18.6a31.36,31.36,0,0,1,16.24-4.2,23.93,23.93,0,0,1,15.44,6.13c2.44,2.27,5,4.62,3.73,7.7" style="fill:#263238"></path><path d="M104.22,276.27c-.2-.53-9.85-4-10,6.25-.13,10,9.93,8,10,7.71S104.22,276.27,104.22,276.27Z" style="fill:#ffbe9d"></path><path d="M101.16,286.43s-.18.12-.47.25a1.73,1.73,0,0,1-1.3,0c-1-.39-1.92-2.07-2-3.87a5.67,5.67,0,0,1,.51-2.48A2,2,0,0,1,99.27,279a.89.89,0,0,1,1,.49c.13.28.06.48.11.49s.22-.16.14-.57a1.1,1.1,0,0,0-.38-.63,1.29,1.29,0,0,0-1-.26,2.42,2.42,0,0,0-1.83,1.52,6,6,0,0,0-.63,2.77c.05,2,1.06,3.9,2.5,4.33a1.84,1.84,0,0,0,1.59-.25C101.14,286.67,101.19,286.45,101.16,286.43Z" style="fill:#eb996e"></path><path d="M100.25,271.15a3.13,3.13,0,0,0,.61-.33c.38-.25,1-.57,1.67-1.07a34.37,34.37,0,0,0,5.38-4.89,95.19,95.19,0,0,0,6.57-8.55,79.24,79.24,0,0,1,8.23-10.24,31,31,0,0,1,5.3-4.19,26,26,0,0,1,5.73-2.6A28.28,28.28,0,0,1,144.3,238a27,27,0,0,1,7.07,1.39c.82.25,1.42.52,1.85.68a2.69,2.69,0,0,0,.65.23,5.49,5.49,0,0,0-.62-.31,17.44,17.44,0,0,0-1.82-.77,26.21,26.21,0,0,0-7.11-1.54,28.23,28.23,0,0,0-10.7,1.22,26.23,26.23,0,0,0-5.84,2.62,31.07,31.07,0,0,0-5.39,4.25,75.75,75.75,0,0,0-8.25,10.32,100.33,100.33,0,0,1-6.48,8.57,36.57,36.57,0,0,1-5.24,5c-.68.52-1.25.86-1.61,1.13S100.25,271.14,100.25,271.15Z" style="fill:#455a64"></path><path d="M100,288.19a2,2,0,1,0,.47.15" style="fill:#fff"></path><path d="M100.49,288.34a2.69,2.69,0,0,1,.9,1.34,1.7,1.7,0,0,1-.39,1.56,1.75,1.75,0,0,1-3.07-1,1.7,1.7,0,0,1,.59-1.5,2.71,2.71,0,0,1,1.5-.57s-.15-.1-.46-.11a2.08,2.08,0,0,0-1.25.43,2,2,0,0,0-.79,1.8,2.13,2.13,0,0,0,3.79,1.21,2.06,2.06,0,0,0-.38-3C100.67,288.34,100.5,288.31,100.49,288.34Z" style="fill:#263238"></path><path d="M102.76,274c-.16,2.72-.28,5.6,1,8s4.42,4.07,6.79,2.71c1.93-1.1,2.51-3.57,2.84-5.77.94-6.35,1.37-12.76,2.37-19.1Z" style="fill:#263238"></path><path d="M153.22,240.74c0,.06-.88-.17-2.48-.22a17.08,17.08,0,0,0-6.59,1.21,21.33,21.33,0,0,0-4.13,2.12,44.83,44.83,0,0,0-4.26,3.26,51.5,51.5,0,0,0-8.35,9c-1.26,1.78-2.38,3.61-3.6,5.3a25.18,25.18,0,0,1-4,4.49,44.2,44.2,0,0,1-8.42,5.63c-2.55,1.35-4.68,2.3-6.15,3l-1.71.72a2.67,2.67,0,0,1-.61.22,2.56,2.56,0,0,1,.57-.32l1.66-.82c1.44-.71,3.54-1.71,6-3.09a46.36,46.36,0,0,0,8.27-5.68,25.42,25.42,0,0,0,3.89-4.42c1.19-1.67,2.31-3.5,3.59-5.3a50,50,0,0,1,8.46-9.06,44.36,44.36,0,0,1,4.35-3.26,21.64,21.64,0,0,1,4.24-2.1,16.52,16.52,0,0,1,6.74-1.06,13.54,13.54,0,0,1,1.85.26A2.62,2.62,0,0,1,153.22,240.74Z" style="fill:#455a64"></path><path d="M102.48,267.82a4.36,4.36,0,0,1-.88.59l-2.52,1.48-.85.49a2.7,2.7,0,0,1-1.09.36,1,1,0,0,1-.67-.16.86.86,0,0,1-.38-.66,2.27,2.27,0,0,1,.47-1.26L99.49,264l.4.36a10.45,10.45,0,0,1-6.77,2,3,3,0,0,1-.91-.16,1.23,1.23,0,0,1-.77-.67,1.08,1.08,0,0,1,.17-1,4.32,4.32,0,0,1,.57-.62,20.82,20.82,0,0,0,3.39-4.28A36.5,36.5,0,0,0,97.73,255a5,5,0,0,1-.32,1.34,18.38,18.38,0,0,1-1.5,3.45,19.91,19.91,0,0,1-3.37,4.45c-.37.35-.74.76-.6,1.07s.69.47,1.21.47a9.81,9.81,0,0,0,3.37-.41,9.92,9.92,0,0,0,3-1.5l1.19-.87-.79,1.24c-1.07,1.66-2.08,3.22-3,4.65a2,2,0,0,0-.43,1,.49.49,0,0,0,.58.43,5.19,5.19,0,0,0,1.79-.74l2.6-1.34A4.45,4.45,0,0,1,102.48,267.82Z" style="fill:#455a64"></path><path d="M132,294.38a3.32,3.32,0,0,1,3.44-2.53,3.47,3.47,0,0,1,2.68,1.9,4.3,4.3,0,0,1,.15,3.34l-.05.23a3.79,3.79,0,0,1-4.27.91A3.53,3.53,0,0,1,132,294.38Z" style="fill:#eb996e"></path><path d="M140,297.38c0-.39-2.58-.27-4.52-2.38s-1.8-4.89-2.16-4.89c-.16,0-.47.64-.44,1.8a6.4,6.4,0,0,0,1.65,4.09,5.63,5.63,0,0,0,3.78,1.83C139.42,297.87,140,297.55,140,297.38Z" style="fill:#263238"></path><polygon points="89.9 326.59 107.68 324.01 143.24 329.27 153.22 332.8 151.45 354.63 117.26 360.92 94.19 354.09 85.47 341.25 89.9 326.59" style="fill:#ffbe9d"></polygon><path d="M78.7,328.68l14.88-3.51s10.51,32.52,36.47,31.12c21.16-1.14,21.4-24.76,21.4-24.76l15.25,4.88s5.83,39.11-.62,66.82c-1.51,6.47-3.53,15.2-3.53,15.2l2.06,40.48-112.76.18L78.7,328.68Z" style="fill:#7E57C2"></path><g style="opacity:0.30000000000000004"><path d="M122.9,451.06c-5.48-.14-10.55.32-16,.19-6.58-.16-13.21-.32-19.71.75-4.88.8-9.62,2.29-14.49,3.06-6.65,1-13.75.67-19.67-2.53L54,447l22.47-5.41Z"></path></g><path d="M179.43,345.53c-5.16-6.67-13.73-9.44-13.73-9.44l-5.77,50.23,10.93,73.13,35.78-.17S186.9,355.18,179.43,345.53Z" style="fill:#7E57C2"></path><path d="M80.44,328.31s-24.09,1.93-32.73,41.39c-3.91,17.85-8.85,38.77-10.27,52.83C36.4,432.72,42,448.69,52.11,450l12.78,1.72a20.94,20.94,0,0,0,7.53-.28c8.08-1.85,8.9-7.39,10.32-13.28l3.73-11.77c2-11.2-8.39-13.29-14.16-13.17l4.3-51.12Z" style="fill:#7E57C2"></path><path d="M168.68,364a3.36,3.36,0,0,1,.11.55l.24,1.59c.05.35.11.73.17,1.15s.09.88.14,1.38c.1,1,.22,2.11.27,3.36a83.57,83.57,0,0,1,.06,8.77,106.36,106.36,0,0,1-1.07,10.7c-.55,3.77-1.25,7.34-1.95,10.57s-1.41,6.11-2,8.54-1.12,4.37-1.49,5.72l-.43,1.55a3.21,3.21,0,0,1-.17.53,2.31,2.31,0,0,1,.1-.55l.36-1.57c.33-1.4.8-3.35,1.37-5.75s1.25-5.32,1.92-8.55,1.37-6.78,1.92-10.55.94-7.36,1.09-10.65.17-6.26,0-8.75c0-1.25-.14-2.37-.22-3.36,0-.49-.07-.95-.1-1.37s-.1-.8-.14-1.15c-.07-.67-.12-1.2-.17-1.6A3.92,3.92,0,0,1,168.68,364Z" style="fill:#263238"></path><path d="M53.42,427.05a3.79,3.79,0,0,1,.19-1,15.91,15.91,0,0,1,.93-2.59,17.66,17.66,0,0,1,14.14-10.29,16.17,16.17,0,0,1,2.75-.09,4.39,4.39,0,0,1,1,.12,35.55,35.55,0,0,0-3.72.24,18.24,18.24,0,0,0-13.93,10.13A33,33,0,0,0,53.42,427.05Z" style="fill:#263238"></path><path d="M59,407.39s.21-.05.59-.06a14.33,14.33,0,0,1,1.58.07,18.26,18.26,0,0,1,9.6,4,11.72,11.72,0,0,1,1.18,1.07c.26.27.39.42.37.44s-.65-.51-1.72-1.3a21.3,21.3,0,0,0-9.46-3.89C59.81,407.48,59,407.45,59,407.39Z" style="fill:#263238"></path><path d="M83.92,356.29a5,5,0,0,1-.06-1.06c0-.68,0-1.66-.13-2.86a47.16,47.16,0,0,0-1.6-9.3,46.68,46.68,0,0,0-3.47-8.77c-.56-1.07-1-1.93-1.38-2.51a6.72,6.72,0,0,1-.5-.93,5.25,5.25,0,0,1,.63.85c.38.56.9,1.4,1.49,2.46a41.6,41.6,0,0,1,3.6,8.8A42.42,42.42,0,0,1,84,352.35c0,1.22,0,2.2,0,2.88A5.08,5.08,0,0,1,83.92,356.29Z" style="fill:#263238"></path><path d="M130.05,392.11s0,.15-.11.42a11.76,11.76,0,0,1-.4,1.16,23.79,23.79,0,0,1-2,4.06A25.79,25.79,0,0,1,108.69,410a26.43,26.43,0,0,1-6.72,0,24.06,24.06,0,0,1-4.42-1,11.92,11.92,0,0,1-1.16-.42,1.79,1.79,0,0,1-.39-.17s.57.16,1.59.45a27.56,27.56,0,0,0,4.41.84,26.25,26.25,0,0,0,25.31-12.15,28.52,28.52,0,0,0,2.1-4C129.82,392.66,130,392.1,130.05,392.11Z" style="fill:#263238"></path><path d="M79.29,447.63s-.42.51-1.32,1.25a12.06,12.06,0,0,1-4.41,2.1,23.47,23.47,0,0,1-7.25.64c-2.75-.2-5.79-.52-8.94-1a46.29,46.29,0,0,1-8.73-2,11.07,11.07,0,0,1-3.2-2.14,17.22,17.22,0,0,1-2.25-2.55,24.36,24.36,0,0,1-2.46-4.27c-.23-.54-.41-1-.51-1.24A4.19,4.19,0,0,0,40,438a1.4,1.4,0,0,0,.11.46c.09.3.25.73.46,1.28A21.8,21.8,0,0,0,43,444.09a17.57,17.57,0,0,0,2.25,2.62,11.3,11.3,0,0,0,3.28,2.23A43.74,43.74,0,0,0,57.31,451c3.17.47,6.2.78,9,1a22.76,22.76,0,0,0,7.35-.73A11.61,11.61,0,0,0,78.07,449a7.21,7.21,0,0,0,.94-1A2.33,2.33,0,0,0,79.29,447.63Z" style="fill:#263238"></path><path d="M83.26,368.87c-.1,0-2.64,9.83-5.67,22S72.19,413,72.29,413s2.65-9.83,5.68-22S83.37,368.89,83.26,368.87Z" style="fill:#263238"></path><path d="M86.33,424.51a2.87,2.87,0,0,0,.12-.81,13.48,13.48,0,0,0,.06-2.24,6.45,6.45,0,0,0-1.09-3.15,9.25,9.25,0,0,0-1.23-1.56,9,9,0,0,0-1.71-1.27,21.23,21.23,0,0,0-7-2.26,17.38,17.38,0,0,0-2.22-.2,2.5,2.5,0,0,0-.82,0c0,.06,1.16.11,3,.43a23.73,23.73,0,0,1,6.86,2.33A8.49,8.49,0,0,1,83.92,417a10.32,10.32,0,0,1,1.21,1.48,6.43,6.43,0,0,1,1.1,3,18.29,18.29,0,0,1,.07,2.21A3.44,3.44,0,0,0,86.33,424.51Z" style="fill:#263238"></path><g style="opacity:0.30000000000000004"><path d="M167.57,397.15c6.15-10.41,6.28-23.93.92-34.76a97.39,97.39,0,0,1-1.1,34.72"></path></g><path d="M135,423.13l0,0Z" style="fill:#ffbe9d"></path><path d="M134.78,423.26l-.1,0Z" style="fill:#ffbe9d"></path><path d="M135,423.15l-.22.11Z" style="fill:#ffbe9d"></path><path d="M135.14,423.09l-.1,0Z" style="fill:#ffbe9d"></path><path d="M157.77,443.87c-1.94-3.66-17.05-13.3-17.05-13.3l4.09-.95,4.52,1.91a11.09,11.09,0,0,0,1.94,4.23c1.66,2.37,4.48-.08,4.48-.08l-1.91-9.15-8.93-5.38s-8.41,1.29-9.77,1.94l-3.58,3.28c-1.58,1.23-6.12,6.09-7.36,6.24S84,424,84,424h0c-5.35,4.23-8.16,12.65-9,18.72,0,0-1,3,.08,4.6l47.88,3.76,10.15,2.8a70.73,70.73,0,0,0,8.34,2.86c3.37.71,5.65-.38,5.74-2.24s-2.53-2.07-2.53-2.07a53.21,53.21,0,0,1-6.53-2.87,11.5,11.5,0,0,1-3.68-4.05l3.62.44s7.69,5.33,10.58,6.9,3.46-1.31,3.7-2.18-8.64-9.56-8.64-9.56,8.43,5.2,9.95,6.52,3.77,1.7,4.25.82S159.7,447.53,157.77,443.87Z" style="fill:#ffbe9d"></path><path d="M134.68,423.3l-.08,0Z" style="fill:#ffbe9d"></path><path d="M134.55,423.37Z" style="fill:#ffbe9d"></path><path d="M134.6,423.34l0,0Z" style="fill:#ffbe9d"></path><path d="M116.15,444.71a1.86,1.86,0,0,1,0-.59,2.87,2.87,0,0,1,0-.69,6.06,6.06,0,0,1,.17-.92,12.89,12.89,0,0,1,2.45-4.72,26.94,26.94,0,0,1,3.69-3.83,10.46,10.46,0,0,1,1.74-1.35,18.73,18.73,0,0,1-1.57,1.53,34,34,0,0,0-3.58,3.87,14.24,14.24,0,0,0-2.49,4.57C116.19,443.87,116.22,444.72,116.15,444.71Z" style="fill:#eb996e"></path><path d="M140.37,430.28a4.37,4.37,0,0,1-2.58-.23,4.32,4.32,0,0,1-2.19-1.37c.06-.09,1,.6,2.3,1S140.37,430.17,140.37,430.28Z" style="fill:#eb996e"></path><path d="M142.88,440.3a24.72,24.72,0,0,1-3.85-1.39,24,24,0,0,1-3.71-1.72,23.53,23.53,0,0,1,3.85,1.39A23.46,23.46,0,0,1,142.88,440.3Z" style="fill:#eb996e"></path><path d="M134.78,445.41a8.86,8.86,0,0,1-2-.69,9.06,9.06,0,0,1-1.93-.83,5,5,0,0,1,2.05.49A5.16,5.16,0,0,1,134.78,445.41Z" style="fill:#eb996e"></path><path d="M141.64,441c0,.1-.84.43-1.49,1.31a7.7,7.7,0,0,0-.86,1.78s-.09-.24,0-.62a3.22,3.22,0,0,1,.6-1.38,3.33,3.33,0,0,1,1.17-.95C141.38,440.94,141.62,440.92,141.64,441Z" style="fill:#eb996e"></path><path d="M145.19,435.37c0,.1-.62.45-1.05,1.22a10.64,10.64,0,0,0-.55,1.51,1.78,1.78,0,0,1,.24-1.69C144.34,435.53,145.17,435.28,145.19,435.37Z" style="fill:#eb996e"></path><path d="M144,425.39s-.17-.15-.28-.48a2.53,2.53,0,0,1,0-1.33,2.49,2.49,0,0,1,.64-1.17c.24-.25.44-.33.46-.3a4.07,4.07,0,0,0-.79,3.28Z" style="fill:#eb996e"></path><path d="M74.59,448.67a5.66,5.66,0,0,0,.07-1.1c0-.35,0-.79,0-1.29s0-1.07.12-1.7A38.52,38.52,0,0,1,76.92,435a32.93,32.93,0,0,1,2.27-4.91c.44-.71.82-1.4,1.26-2l.62-.87.61-.78c1.59-1.95,2.81-3,2.76-3a5.7,5.7,0,0,0-.86.69,10.34,10.34,0,0,0-1,.89c-.35.37-.76.77-1.16,1.27l-.64.77c-.21.27-.42.57-.64.87-.46.59-.86,1.29-1.31,2a32.18,32.18,0,0,0-2.32,5,35.06,35.06,0,0,0-2,9.7c-.06.64,0,1.21-.07,1.72s0,.93,0,1.29A7.51,7.51,0,0,0,74.59,448.67Z" style="fill:#263238"></path><g style="opacity:0.30000000000000004"><path d="M58.16,414.45a24.18,24.18,0,0,1,14.2-1.29h0a19.62,19.62,0,0,0-19.14,12.39c-.35.92-1,2-2,1.86S50,426.14,50,425.22C50,420.44,53.75,416.3,58.16,414.45Z"></path></g><path d="M169,360.63a2,2,0,0,0,.64-.21c.4-.16,1-.42,1.67-.76a36.4,36.4,0,0,0,5.15-3.17,36,36,0,0,0,4.55-4c.53-.57,1-1,1.22-1.37a2.29,2.29,0,0,0,.39-.55,24.44,24.44,0,0,0-1.81,1.72,45.88,45.88,0,0,1-4.58,3.89,45.31,45.31,0,0,1-5,3.23C169.8,360.16,168.94,360.58,169,360.63Z" style="fill:#fff"></path><path d="M83.57,363.42l.19.13.57.34c.49.3,1.24.71,2.22,1.23a62.37,62.37,0,0,0,8.62,3.62A82.32,82.32,0,0,0,108.66,372a130.06,130.06,0,0,0,16.92,1.4c6,.15,11.77,0,17-.09a112.67,112.67,0,0,0,13.83-1,53.14,53.14,0,0,0,9.11-2.12c1.05-.35,1.85-.65,2.38-.88l.62-.25.2-.1a.63.63,0,0,0-.22.06l-.62.22c-.55.21-1.36.48-2.41.81a57.74,57.74,0,0,1-9.1,2,119.91,119.91,0,0,1-13.8,1c-5.21.1-10.95.2-17,.06a135.1,135.1,0,0,1-16.88-1.37,84.82,84.82,0,0,1-13.45-3.15A66.91,66.91,0,0,1,86.62,365c-1-.49-1.75-.88-2.26-1.16l-.58-.31C83.65,363.45,83.58,363.41,83.57,363.42Z" style="fill:#fff"></path><path d="M168.71,389.76a5.31,5.31,0,0,0,.92-.2l2.46-.67c2.07-.59,4.93-1.42,8.08-2.36s6-1.82,8.05-2.47l2.42-.79a4.14,4.14,0,0,0,.88-.34,5.11,5.11,0,0,0-.92.2l-2.46.67c-2.08.59-4.93,1.42-8.08,2.36s-6,1.82-8.05,2.47l-2.43.79A3.62,3.62,0,0,0,168.71,389.76Z" style="fill:#fff"></path><path d="M166.56,430.67c0,.1,7.41-2,16.49-4.74s16.42-5,16.39-5.1-7.42,2-16.5,4.74S166.52,430.57,166.56,430.67Z" style="fill:#fff"></path><path d="M59.64,342.21a4.79,4.79,0,0,0,.81.64c.54.4,1.34.95,2.34,1.6A79.49,79.49,0,0,0,70.9,349a77.48,77.48,0,0,0,8.59,3.61c1.13.4,2.05.69,2.69.87a6.07,6.07,0,0,0,1,.26,5.24,5.24,0,0,0-1-.4l-2.64-1c-2.23-.85-5.26-2.11-8.52-3.71s-6.11-3.23-8.14-4.47l-2.39-1.49A6.87,6.87,0,0,0,59.64,342.21Z" style="fill:#fff"></path><path d="M44.9,384.24a7.72,7.72,0,0,0,1.2.57c.78.35,1.93.81,3.37,1.34a77.71,77.71,0,0,0,23.36,4.64c1.53.07,2.77.08,3.62.06a8.23,8.23,0,0,0,1.33-.07,8.8,8.8,0,0,0-1.33-.08c-.85,0-2.08-.08-3.6-.18a88.49,88.49,0,0,1-23.29-4.63c-1.44-.49-2.61-.91-3.4-1.22A9.55,9.55,0,0,0,44.9,384.24Z" style="fill:#fff"></path><path d="M66.2,451.47a1.41,1.41,0,0,0,0-.41c0-.31-.11-.69-.19-1.16s-.19-1.13-.26-1.85-.2-1.54-.23-2.45q0-.69-.09-1.44c0-.49,0-1,0-1.55,0-1.07.05-2.22.1-3.43A47,47,0,0,1,69.15,424c.5-1.1,1-2.16,1.48-3.1.25-.47.47-.94.73-1.37l.73-1.24c.44-.79.93-1.46,1.33-2.07s.76-1.12,1.07-1.53l.69-.95a1.69,1.69,0,0,0,.23-.35,1.88,1.88,0,0,0-.29.3l-.75.91c-.33.4-.72.89-1.13,1.49s-.92,1.27-1.39,2.06l-.75,1.23c-.26.43-.49.9-.75,1.37-.54.94-1,2-1.52,3.11a47.94,47.94,0,0,0-2.53,7.49,48.61,48.61,0,0,0-1.17,7.82c0,1.22-.12,2.37-.07,3.45,0,.54,0,1.07,0,1.57s.07,1,.11,1.44c0,.92.19,1.74.29,2.46a16.93,16.93,0,0,0,.33,1.84c.1.47.18.85.25,1.16A1.63,1.63,0,0,0,66.2,451.47Z" style="fill:#fff"></path><path d="M37.62,428.8c.05,0,.06-.6.23-1.67a14.61,14.61,0,0,1,1.45-4.31,18.34,18.34,0,0,1,4.18-5.27,22.13,22.13,0,0,1,7.11-4.16A28,28,0,0,1,58.74,412a52.41,52.41,0,0,1,6.79.25c1.93.19,3.49.38,4.57.5l1.25.14.43,0a1.34,1.34,0,0,0-.42-.1l-1.24-.21c-1.07-.17-2.63-.4-4.56-.62a49.94,49.94,0,0,0-6.84-.34A27.61,27.61,0,0,0,50.46,413a21.8,21.8,0,0,0-7.21,4.26,17.85,17.85,0,0,0-4.19,5.41,13.76,13.76,0,0,0-1.36,4.41,9.59,9.59,0,0,0-.08,1.25A2.44,2.44,0,0,0,37.62,428.8Z" style="fill:#fff"></path><path d="M117.21,407.39l.42.07,1.2.12,4.44.37c3.75.29,8.93.65,14.66.94s10.92.49,14.69.53c1.88,0,3.4,0,4.45,0l1.21,0a1.24,1.24,0,0,0,.42,0l-.42,0-1.21,0-4.45-.11c-3.75-.11-8.94-.33-14.67-.63l-14.66-.83-4.45-.25-1.21-.05A1.25,1.25,0,0,0,117.21,407.39Z" style="fill:#fff"></path><g style="opacity:0.30000000000000004"><path d="M112.91,408.92c-4.66,1.37-11.12,1.71-15.66,0,3.55,5,10.41,6.87,16.36,5.23s11.44-7.6,11.9-13.76A25.48,25.48,0,0,1,112.91,408.92Z"></path></g><path d="M75.12,404.05l.37.1,1.08.23c.93.19,2.29.45,4,.74,3.37.59,8,1.32,13.21,1.95s9.88,1.05,13.29,1.29c1.71.12,3.09.2,4,.24l1.1,0a1.25,1.25,0,0,0,.39,0l-.38-.06-1.1-.11-4-.36c-3.4-.31-8.09-.77-13.26-1.4s-9.84-1.32-13.21-1.84l-4-.62-1.09-.16C75.25,404,75.12,404,75.12,404.05Z" style="fill:#fff"></path><g style="opacity:0.30000000000000004"><path d="M82.87,371.11c1.17,13.39-2.48,26.68-6.09,39.63a5.57,5.57,0,0,1-1,2.23,1.92,1.92,0,0,1-2.2.61c-1.13-.57-1-2.21-.66-3.43l10-38.49"></path></g><path d="M270.17,384.45,255,459.09H123a2.63,2.63,0,0,1-2.63-2.63h0a2.64,2.64,0,0,1,2.63-2.64h26.57l14.09-69.41a2.88,2.88,0,0,1,2.8-2.31L267.32,381A2.87,2.87,0,0,1,270.17,384.45Z" style="fill:#e0e0e0"></path><path d="M270.17,384.45s0-.07.05-.22a2.88,2.88,0,0,0-1.39-2.86A2.94,2.94,0,0,0,268,381a5,5,0,0,0-1-.06l-2.37,0-5.94,0-38.14.36-26.58.27-14.9.15-7.81.08-4,0c-.34,0-.66,0-1,0a2.84,2.84,0,0,0-1,.29,3,3,0,0,0-1.45,1.52,4.93,4.93,0,0,0-.28,1l-.2,1c-.14.67-.27,1.34-.41,2-.28,1.35-.55,2.7-.83,4.07-.56,2.74-1.12,5.5-1.69,8.3q-1.71,8.42-3.49,17.19l-7.41,36.42.18-.15H123.44a4.47,4.47,0,0,0-1,.06,2.81,2.81,0,0,0,.48,5.57H193l62,0h.11l0-.11c4.64-22.94,8.42-41.6,11-54.54,1.3-6.46,2.32-11.49,3-14.91.34-1.7.6-3,.77-3.89s.25-1.33.25-1.33l-.29,1.32c-.18.89-.45,2.19-.81,3.89-.7,3.41-1.74,8.44-3.07,14.89l-11.17,54.52L255,459l-62,0h-70.1a2.76,2.76,0,0,1-1.08-.29,2.46,2.46,0,0,1-.84-3.56,2.43,2.43,0,0,1,1.5-1,4.2,4.2,0,0,1,1-.05h26.28l0-.14,7.38-36.42q1.78-8.78,3.49-17.19.85-4.2,1.68-8.3c.28-1.37.55-2.73.83-4.08.13-.67.27-1.35.4-2l.21-1a4.56,4.56,0,0,1,.25-1,2.77,2.77,0,0,1,1.3-1.36,2.51,2.51,0,0,1,.91-.27c.31,0,.66,0,1,0l4-.05,7.81-.09,14.89-.17,26.59-.31,38.13-.47,5.94-.08,2.37,0a4.88,4.88,0,0,1,1,.06,2.88,2.88,0,0,1,2.25,2.45A3.41,3.41,0,0,1,270.17,384.45Z" style="fill:#263238"></path><path d="M209.36,418.61a4.36,4.36,0,1,0,4.36-4.36A4.36,4.36,0,0,0,209.36,418.61Z" style="fill:#fff"></path><path d="M270.05,385.06l-.45,0h-6.47l-18.87.09-62.25.44-9,.07-2.22,0a6.35,6.35,0,0,0-1.13.07,3.43,3.43,0,0,0-1.07.43,3.13,3.13,0,0,0-1.33,1.82c-.17.73-.29,1.42-.44,2.13-1.11,5.62-2.19,11.05-3.21,16.21-2.05,10.33-3.89,19.64-5.43,27.46l-3.63,18.52c-.42,2.17-.74,3.87-1,5q-.15.85-.24,1.32c-.05.29-.07.44-.07.44s0-.14.11-.44.15-.74.27-1.3l1-5c.89-4.38,2.16-10.69,3.74-18.49s3.43-17.12,5.5-27.44c1-5.17,2.12-10.59,3.24-16.21.15-.7.28-1.42.43-2.1a2.77,2.77,0,0,1,1.19-1.61,2.73,2.73,0,0,1,1-.39,6,6,0,0,1,1.06-.06H173l9-.07,62.25-.55,18.87-.21,5.13-.07,1.34,0Z" style="fill:#263238"></path><path d="M53.05,454.16l.18,0,.51.05,2,.16c1.72.14,4.2.31,7.28.49,6.14.36,14.65.73,24,.89s17.92.07,24.07-.09c3.08-.08,5.57-.16,7.29-.24l2-.1.52,0,.17,0h-.69l-2,0-7.29.12c-6.16.09-14.67.13-24.06,0s-17.89-.49-24-.78l-7.28-.37-2-.09h-.7Z" style="fill:#fff"></path></g></svg>