<svg xmlns="http://www.w3.org/2000/svg" viewBox="0 55 500 372.56">
	<g id="freepik--background-complete--inject-220">
		<rect y="382.4" width="500" height="0.25" style="fill:#ebebeb"/>
		<rect x="416.78" y="398.49" width="33.12" height="0.25" style="fill:#ebebeb"/>
		<rect x="322.53" y="401.21" width="8.69" height="0.25" style="fill:#ebebeb"/>
		<rect x="396.59" y="389.21" width="19.19" height="0.25" style="fill:#ebebeb"/>
		<rect x="52.46" y="390.89" width="43.19" height="0.25" style="fill:#ebebeb"/>
		<rect x="104.56" y="390.89" width="6.33" height="0.25" style="fill:#ebebeb"/>
		<rect x="131.47" y="395.11" width="93.68" height="0.25" style="fill:#ebebeb"/>
		<path d="M237,337.8H43.91a5.71,5.71,0,0,1-5.7-5.71V60.66A5.71,5.71,0,0,1,43.91,55H237a5.71,5.71,0,0,1,5.71,5.71V332.09A5.71,5.71,0,0,1,237,337.8ZM43.91,55.2a5.46,5.46,0,0,0-5.45,5.46V332.09a5.46,5.46,0,0,0,5.45,5.46H237a5.47,5.47,0,0,0,5.46-5.46V60.66A5.47,5.47,0,0,0,237,55.2Z" style="fill:#ebebeb"/>
		<path d="M453.31,337.8H260.21a5.72,5.72,0,0,1-5.71-5.71V60.66A5.72,5.72,0,0,1,260.21,55h193.1A5.71,5.71,0,0,1,459,60.66V332.09A5.71,5.71,0,0,1,453.31,337.8ZM260.21,55.2a5.47,5.47,0,0,0-5.46,5.46V332.09a5.47,5.47,0,0,0,5.46,5.46h193.1a5.47,5.47,0,0,0,5.46-5.46V60.66a5.47,5.47,0,0,0-5.46-5.46Z" style="fill:#ebebeb"/>
		<rect x="94.51" y="103.16" width="112.13" height="144.3" transform="translate(325.89 24.73) rotate(90)" style="fill:#e0e0e0"/>
		<rect x="80.43" y="121.24" width="140.3" height="108.13" style="fill:#ebebeb"/>
		<rect x="92.23" y="134.53" width="16.35" height="23.11" style="fill:#f5f5f5"/>
		<rect x="112.67" y="141.35" width="17.21" height="24.74" style="fill:#f5f5f5"/>
		<rect x="91.8" y="192.72" width="17.21" height="24.74" transform="translate(27.61 -11.34) rotate(7.49)" style="fill:#f5f5f5"/>
		<rect x="135.3" y="191.7" width="17.21" height="24.74" style="fill:#f5f5f5"/>
		<rect x="114.74" y="189.09" width="17.21" height="24.74" style="fill:#f5f5f5"/>
		<rect x="171.42" y="136.21" width="10.68" height="10.68" style="fill:#f5f5f5"/>
		<rect x="185.38" y="137.2" width="10.68" height="10.68" transform="translate(63.54 -58.75) rotate(20.94)" style="fill:#f5f5f5"/>
		<circle cx="176.13" cy="137.56" r="0.63" style="fill:#e0e0e0"/>
		<circle cx="188.43" cy="137.56" r="0.63" style="fill:#e0e0e0"/>
		<path d="M121.9,143.16a.63.63,0,1,1-.63-.62A.63.63,0,0,1,121.9,143.16Z" style="fill:#e0e0e0"/>
		<path d="M101,136.21a.63.63,0,1,1-.62-.63A.63.63,0,0,1,101,136.21Z" style="fill:#e0e0e0"/>
		<circle cx="94.54" cy="193.47" r="0.63" style="fill:#e0e0e0"/>
		<path d="M124,190.51a.63.63,0,1,1-.63-.63A.63.63,0,0,1,124,190.51Z" style="fill:#e0e0e0"/>
		<path d="M144.53,192.85a.63.63,0,1,1-.62-.63A.62.62,0,0,1,144.53,192.85Z" style="fill:#e0e0e0"/>
		<rect x="175.51" y="169.64" width="34.29" height="21.49" style="fill:#e0e0e0"/>
		<rect x="168.12" y="194.1" width="29.93" height="23.63" style="fill:#e0e0e0"/>
		<circle cx="150.9" cy="95.17" r="14.8" transform="translate(-17.83 37.22) rotate(-13.28)" style="fill:#e0e0e0"/>
		<circle cx="150.9" cy="95.17" r="12.58" transform="translate(-13.3 25.4) rotate(-9.22)" style="fill:#f0f0f0"/>
		<polyline points="151.49 86.54 151.49 95.34 157.32 92.04" style="fill:#f0f0f0;stroke:#e0e0e0;stroke-linecap:round;stroke-linejoin:round;stroke-width:2px"/>
		<path d="M90.85,363a2.38,2.38,0,0,0-1.91-3.42A5.13,5.13,0,0,0,87.32,354a1.18,1.18,0,0,0-.7-.31,1.35,1.35,0,0,0-.76.34l-4.47,3.21a2.62,2.62,0,0,0-.88.87c-.92,1.77,2.38,4,1,5.5-.39.42-1,.51-1.5.81-1.06.67-1.19,2.13-1.69,3.28s-2.22,2.05-2.88,1c.49-1.11-1-2.06-2.19-2.2s-2.45-.2-3.12-1.33c-1.7,1.49-5.51-2.66-5.43-4.34a3.3,3.3,0,0,0-2.66,2.73,20,20,0,0,0-.14,4.17c0,2.71-.92,5.37-.87,8.08,0,2.11.85,4.45,2.78,5.3a7.21,7.21,0,0,0,3,.4l22-.14a3.26,3.26,0,0,0,1.55-.26c1-.51,1.2-1.82,1.29-2.93q.6-7.17,1.18-14.34Z" style="fill:#e0e0e0"/>
		<path d="M92.14,339.78H58l.28,3.44.2,2.47.53,6.4.29,3.68.4,4.9.16,2.1.06.63.2,2.47.27,3.38.17,2.1.18,2.13L61,376l.15,1.87.17,2.1.07.92H92.66l.07-.92.17-2.09.15-1.89.2-2.46.18-2.13.17-2.1.27-3.39.2-2.46.05-.63.17-2.1.4-4.9L95,352.1l.52-6.41.2-2.47.28-3.44Zm2,2.26h0l-.66-.66h.72ZM94,344.13,94,345,90.9,348l-3.5-3.5,3.13-3.14h.74Zm-.88,10.92-2.24,2.24-3.5-3.51,3.5-3.49,2.42,2.42Zm-32.47-2.34h0l2.42-2.42,3.5,3.49-3.5,3.51-2.23-2.24Zm29.1-3.56-3.5,3.5-3.51-3.5,3.51-3.5Zm-5.51-7.77h4l-2,2Zm.87,12.4-3.5,3.51-3.5-3.51,3.5-3.49ZM73.5,358.42l3.5-3.5,3.5,3.5-3.5,3.5Zm2.36,4.63-3.5,3.51-3.5-3.5,3.51-3.5Zm5.77-3.49,3.5,3.5-3.5,3.5-3.5-3.51ZM77,352.65l-3.5-3.5,3.5-3.5,3.5,3.5Zm-1.14,1.13-3.49,3.51-3.51-3.51,3.51-3.49Zm-8.14-1.13-3.49-3.5,3.49-3.5,3.51,3.5Zm0,2.27,3.51,3.5-3.51,3.5-3.49-3.5Zm3.51,12.77-3.51,3.5-3.49-3.5,3.49-3.5Zm1.13,1.13,3.5,3.51-3.49,3.5-3.51-3.5Zm1.14-1.13,3.5-3.5,3.5,3.5-3.5,3.5Zm8.13,1.13,3.5,3.51-3.5,3.5-3.5-3.5Zm4.64,4.64,3.5,3.5-2.27,2.27H85L82.76,377Zm-3.51-5.77,3.51-3.5,3.5,3.5-3.5,3.5Zm0-9.27,3.51-3.5,3.5,3.5-3.5,3.5Zm2.37-13.9-3.5,3.5-3.5-3.5,3.13-3.14H82ZM77,343.38l-2-2h4Zm-1.14,1.14L72.37,348l-3.51-3.5L72,341.38h.73Zm-6.13-3.14-2,2-2-2Zm-6.27,0,3.13,3.14-3.5,3.5L60,345l-.06-.83,2.74-2.75Zm-3,0-.65.65h0l-.06-.65Zm-.22,6.05L62,349.15l-1.46,1.46Zm1,11.75-.14-1.66h0l.9.9-.76.76Zm.16,2.11,1.73-1.73,3.5,3.5-3.5,3.5-1.41-1.42Zm.53,6.48v-.16l.08.08-.07.08Zm.61,7.46-.45-5.37,1-1,3.5,3.51-3.5,3.49-.59-.59Zm.32,4-.07-.8.34-.34,1.14,1.14ZM64.23,377l3.49-3.5,3.51,3.5L69,379.23H66.49Zm7,2.27,1.14-1.14,1.13,1.14Zm4.53,0L73.5,377l3.5-3.5,3.5,3.5-2.27,2.27Zm4.74,0,1.13-1.14,1.14,1.14Zm10.67,0H89.76l1.14-1.14.34.34Zm.33-4-.6.59-3.5-3.49,3.5-3.51,1,1Zm.62-7.62,0,.16-.07-.08.09-.08Zm.2-2.47-1.42,1.42-3.5-3.5,3.5-3.5,1.73,1.73Zm.48-5.95-.77-.77.91-.9Zm1-11.76-.26,3.19L92,349.15l1.73-1.72Z" style="fill:#e6e6e6"/>
		<rect x="55.83" y="338.35" width="42.33" height="4.46" rx="1.64" transform="translate(153.99 681.16) rotate(180)" style="fill:#f0f0f0"/>
		<rect x="58.88" y="378.44" width="36.23" height="4.46" rx="1.64" style="fill:#f0f0f0"/>
		<path d="M411.19,347l10.63-30.64s-14.74,10.93-14.65-1.19,6.72-2.7,9-7.18-6.54-4.43-3.44-11.22,11.92,3.64,13.47-2.37,4-9.07,10.46-8.53c0,0,3.47,7.91-.78,13.62s10.52,1.14,9,6.89-6.44,10.77-8.61,6.72-4.93,3.71-1.22,5.71-4.85,10.66-6.73,6.12a47.45,47.45,0,0,0-4.83-8.58l-9.79,32.78Z" style="fill:#ebebeb"/>
		<path d="M400.23,347.22l-12-19.59s11.85,5.33,9.95-3-5.05-.86-7.32-3.61,3.86-4.05.69-8.28-7.7,4.32-9.69.4-4.16-5.67-8.52-4.33c0,0-1.21,6,2.6,9.31s-7.11,2.38-5.2,6.13,6.08,6.48,7,3.35,4,1.82,1.7,3.77,5,6.64,5.59,3.21a33.43,33.43,0,0,1,2-6.66l11.73,21.2Z" style="fill:#e6e6e6"/>
		<path d="M408.31,347.41l-5.49-31.56s12.63,13,14.47,1.17-6.12-3.71-7.65-8.44,7.08-3.28,5.14-10.39-12.2,1.65-12.76-4.46-2.49-9.49-8.84-10c0,0-4.64,7.16-1.4,13.41s-10.44-.57-9.89,5.28,4.56,11.52,7.32,7.92,4.21,4.4.28,5.76,3,11.16,5.59,7a46.62,46.62,0,0,1,6.07-7.6l4.33,33.52Z" style="fill:#f5f5f5"/>
		<path d="M415.1,382.9H396.26a2.49,2.49,0,0,1-2.48-2.34l-2-32.5a2.49,2.49,0,0,1,2.49-2.64H417.1a2.49,2.49,0,0,1,2.49,2.64l-2,32.5A2.5,2.5,0,0,1,415.1,382.9Z" style="fill:#ebebeb"/>
		<rect x="389.31" y="344.09" width="32.52" height="4.99" rx="2.48" style="fill:#f5f5f5"/>
	</g>
	<g id="freepik--Shadow--inject-220">
		<ellipse id="freepik--path--inject-220" cx="250" cy="416.24" rx="193.89" ry="11.32" style="fill:#f5f5f5"/>
	</g>
	<g id="freepik--Machine--inject-220">
		<path d="M378.09,187.54h12c0-11.78-3.68-28.92-14.07-38.45-11.14-10.2-36.69-8.15-39.57-7.88l1.12,11.95c8.82-.81,24.87-.23,30.34,4.78C376,165.31,378.09,180,378.09,187.54Z" style="fill:#263238"/>
		<g style="opacity:0.2;isolation:isolate">
			<path d="M378.09,187.54h12c0-11.78-3.68-28.92-14.07-38.45-11.14-10.2-36.69-8.15-39.57-7.88l1.12,11.95c8.82-.81,24.87-.23,30.34,4.78C376,165.31,378.09,180,378.09,187.54Z" style="fill:#fff"/>
		</g>
		<polygon points="378.09 187.54 390.09 187.54 390.09 186.99 378.09 187.09 378.09 187.54" style="fill:#263238"/>
		<path d="M377.73,181.62l11.93-1.36q.06.57.12,1.11l-11.95,1.17C377.8,182.24,377.77,181.93,377.73,181.62Zm-.88-5.47,11.74-2.48c.08.37.15.73.22,1.09L377,177.05Zm-1.4-5.3,11.41-3.69c.12.36.23.72.34,1.08l-11.48,3.47Zm-1.95-5,10.85-5.13.48,1.05-11,4.88C373.75,166.41,373.62,166.15,373.5,165.88ZM371,161.46l9.83-6.88.68,1-10,6.57Zm-3.1-3.56,8-8.94.14.13.81.76-8.43,8.55Zm-3.52-2.1L369,144.74c.4.16.78.33,1.16.51L365,156.11Zm-4.83-1.5,2.65-11.71,1.13.27-2.93,11.64Zm-5.39-.9,1.37-11.92,1.11.13L355,153.51Zm-5.66-.43.49-12L350,141l-.61,12Zm-6-12.06h1.06l.14,12h-1Z" style="fill:#263238"/>
		<polygon points="337.57 153.16 337.97 153.13 337.04 141.16 336.45 141.21 337.57 153.16" style="fill:#263238"/>
		<path d="M260.45,187.54h-12c0-11.78,3.69-28.92,14.08-38.45,11.13-10.2,36.69-8.15,39.56-7.88L301,153.16c-8.83-.81-24.88-.23-30.34,4.78C262.6,165.31,260.45,180,260.45,187.54Z" style="fill:#263238"/>
		<g style="opacity:0.2;isolation:isolate">
			<path d="M260.45,187.54h-12c0-11.78,3.69-28.92,14.08-38.45,11.13-10.2,36.69-8.15,39.56-7.88L301,153.16c-8.83-.81-24.88-.23-30.34,4.78C262.6,165.31,260.45,180,260.45,187.54Z" style="fill:#fff"/>
		</g>
		<polygon points="260.45 187.54 248.45 187.54 248.45 186.99 260.45 187.09 260.45 187.54" style="fill:#263238"/>
		<path d="M260.71,182.54l-11.94-1.17c0-.36.07-.73.12-1.11l11.92,1.36C260.77,181.93,260.74,182.24,260.71,182.54Zm.8-5.49-11.77-2.29c.07-.36.14-.72.22-1.09l11.74,2.48C261.63,176.45,261.57,176.75,261.51,177.05Zm1.32-5.34-11.49-3.47c.11-.36.22-.72.34-1.08l11.42,3.69Zm1.85-5-11-4.88q.22-.53.48-1.05l10.85,5.13C264.92,166.15,264.8,166.41,264.68,166.68Zm2.44-4.53-10-6.57c.22-.33.44-.67.67-1l9.84,6.88Zm3-3.75-8.42-8.55c.26-.26.53-.51.8-.76l.15-.13,8,8.94Zm3.36-2.29-5.12-10.86c.38-.18.77-.35,1.16-.51l4.66,11.06Zm4.67-1.61-2.93-11.64,1.14-.27L279,154.3Zm5.33-1L282,141.61l1.11-.13,1.36,11.92Zm5.62-.5-.62-12,1.08-.05.49,12Zm6.71-.1h-1l.13-12h1.07Z" style="fill:#263238"/>
		<polygon points="300.98 153.16 300.58 153.13 301.51 141.16 302.09 141.21 300.98 153.16" style="fill:#263238"/>
		<path d="M254.22,185h0a30.73,30.73,0,0,1,30.73,30.73v22.57a0,0,0,0,1,0,0H223.49a0,0,0,0,1,0,0V215.76A30.73,30.73,0,0,1,254.22,185Z" style="fill:#7E57C2"/>
		<path d="M254.22,185h0a30.73,30.73,0,0,1,30.73,30.73v22.57a0,0,0,0,1,0,0H223.49a0,0,0,0,1,0,0V215.76A30.73,30.73,0,0,1,254.22,185Z" style="fill:#fff;opacity:0.8"/>
		<rect x="223.07" y="240.63" width="62.3" height="178.56" style="fill:#263238"/>
		<rect x="223.07" y="240.63" width="62.3" height="178.56" style="fill:#fff;opacity:0.4;isolation:isolate"/>
		<path d="M286.78,243H221.66a2.33,2.33,0,0,1-2.33-2.33h0a2.33,2.33,0,0,1,2.33-2.34h65.12a2.34,2.34,0,0,1,2.33,2.34h0A2.33,2.33,0,0,1,286.78,243Z" style="fill:#263238"/>
		<path d="M286.78,243H221.66a2.33,2.33,0,0,1-2.33-2.33h0a2.33,2.33,0,0,1,2.33-2.34h65.12a2.34,2.34,0,0,1,2.33,2.34h0A2.33,2.33,0,0,1,286.78,243Z" style="fill:#fff;opacity:0.2;isolation:isolate"/>
		<path d="M272,204.45V228a2.65,2.65,0,0,1-2.26,2.63,2.69,2.69,0,0,1-.4,0H239.11a2.66,2.66,0,0,1-2.66-2.66V204.45a2.54,2.54,0,0,1,.27-1.16,2.65,2.65,0,0,1,2.39-1.51H251a2.65,2.65,0,0,0,2.54-1.83,2.66,2.66,0,0,1,2.53-1.84h6.31a2.65,2.65,0,0,1,2.53,1.84,2.66,2.66,0,0,0,2.54,1.83h1.93A2.67,2.67,0,0,1,272,204.45Z" style="fill:#7E57C2"/>
		<path d="M269.73,205.57v25l0,0H239.11a2.66,2.66,0,0,1-2.66-2.66V204.45a2.54,2.54,0,0,1,.27-1.16h30.73A2.28,2.28,0,0,1,269.73,205.57Z" style="fill:#fff;opacity:0.30000000000000004;isolation:isolate"/>
		<rect x="243.35" y="184.76" width="21.74" height="2.23" rx="1.12" style="fill:#263238"/>
		<path d="M384.22,185h0a30.73,30.73,0,0,1,30.73,30.73v22.57a0,0,0,0,1,0,0H353.49a0,0,0,0,1,0,0V215.76A30.73,30.73,0,0,1,384.22,185Z" style="fill:#7E57C2"/>
		<path d="M384.22,185h0a30.73,30.73,0,0,1,30.73,30.73v22.57a0,0,0,0,1,0,0H353.49a0,0,0,0,1,0,0V215.76A30.73,30.73,0,0,1,384.22,185Z" style="fill:#fff;opacity:0.8"/>
		<rect x="353.07" y="240.63" width="62.3" height="178.56" style="fill:#263238"/>
		<rect x="353.07" y="240.63" width="62.3" height="178.55" style="fill:#fff;opacity:0.4;isolation:isolate"/>
		<path d="M416.78,243H351.66a2.33,2.33,0,0,1-2.33-2.33h0a2.33,2.33,0,0,1,2.33-2.34h65.12a2.34,2.34,0,0,1,2.33,2.34h0A2.33,2.33,0,0,1,416.78,243Z" style="fill:#263238"/>
		<path d="M416.78,243H351.66a2.33,2.33,0,0,1-2.33-2.33h0a2.33,2.33,0,0,1,2.33-2.34h65.12a2.34,2.34,0,0,1,2.33,2.34h0A2.33,2.33,0,0,1,416.78,243Z" style="fill:#fff;opacity:0.2;isolation:isolate"/>
		<path d="M402,204.45V228a2.65,2.65,0,0,1-2.26,2.63,2.69,2.69,0,0,1-.4,0H369.11a2.66,2.66,0,0,1-2.66-2.66V204.45a2.54,2.54,0,0,1,.27-1.16,2.65,2.65,0,0,1,2.39-1.51H381a2.65,2.65,0,0,0,2.54-1.83,2.66,2.66,0,0,1,2.53-1.84h6.31a2.65,2.65,0,0,1,2.53,1.84,2.66,2.66,0,0,0,2.54,1.83h1.93A2.67,2.67,0,0,1,402,204.45Z" style="fill:#7E57C2"/>
		<path d="M402,204.45V228a2.65,2.65,0,0,1-2.26,2.63,2.69,2.69,0,0,1-.4,0H369.11a2.66,2.66,0,0,1-2.66-2.66V204.45a2.54,2.54,0,0,1,.27-1.16,2.65,2.65,0,0,1,2.39-1.51H381a2.65,2.65,0,0,0,2.54-1.83,2.66,2.66,0,0,1,2.53-1.84h6.31a2.65,2.65,0,0,1,2.53,1.84,2.66,2.66,0,0,0,2.54,1.83h1.93A2.67,2.67,0,0,1,402,204.45Z" style="fill:#fff;opacity:0.5"/>
		<path d="M402,204.45V228a2.65,2.65,0,0,1-2.26,2.63,2.69,2.69,0,0,1-.4,0H369.11a2.66,2.66,0,0,1-2.66-2.66V204.45a2.54,2.54,0,0,1,.27-1.16,2.65,2.65,0,0,1,2.39-1.51H381a2.65,2.65,0,0,0,2.54-1.83,2.66,2.66,0,0,1,2.53-1.84h6.31a2.65,2.65,0,0,1,2.53,1.84,2.66,2.66,0,0,0,2.54,1.83h1.93A2.67,2.67,0,0,1,402,204.45Z" style="fill:none;stroke:#7E57C2;stroke-linecap:round;stroke-linejoin:round;stroke-width:0.5px;stroke-dasharray:3.0580899715423584,2.0387299060821533"/>
		<path d="M399.73,205.57v25l0,0H369.11a2.66,2.66,0,0,1-2.66-2.66V204.45a2.54,2.54,0,0,1,.27-1.16h30.73A2.28,2.28,0,0,1,399.73,205.57Z" style="fill:none;stroke:#7E57C2;stroke-linecap:round;stroke-linejoin:round;stroke-width:0.5px;stroke-dasharray:3,2"/>
		<path d="M399.73,205.57v25l0,0H369.11a2.66,2.66,0,0,1-2.66-2.66V204.45a2.54,2.54,0,0,1,.27-1.16h30.73A2.28,2.28,0,0,1,399.73,205.57Z" style="fill:#fff;opacity:0.30000000000000004;isolation:isolate"/>
		<rect x="373.35" y="184.76" width="21.74" height="2.23" rx="1.12" style="fill:#263238"/>
		<rect x="235.04" y="339.18" width="39.16" height="62.03" style="opacity:0.2;isolation:isolate"/>
		<rect x="365.04" y="339.18" width="39.16" height="62.03" style="opacity:0.2;isolation:isolate"/>
		<path d="M404.52,229a4.76,4.76,0,1,1-4.76-4.75A4.76,4.76,0,0,1,404.52,229Z" style="fill:#7E57C2"/>
		<line x1="399.76" y1="226.44" x2="399.76" y2="231.49" style="fill:none;stroke:#fff;stroke-linecap:round;stroke-linejoin:round"/>
		<line x1="402.28" y1="228.96" x2="397.24" y2="228.96" style="fill:none;stroke:#fff;stroke-linecap:round;stroke-linejoin:round"/>
		<polygon points="339.48 133.07 334.67 133.07 334.67 120.6 339.48 123.6 339.48 133.07" style="fill:#263238"/>
		<path d="M295.78,130.22h46.79a3.31,3.31,0,0,1,3.31,3.31V419.18a0,0,0,0,1,0,0H292.47a0,0,0,0,1,0,0V133.53A3.31,3.31,0,0,1,295.78,130.22Z" style="fill:#263238"/>
		<path d="M295.78,130.22h46.79a3.31,3.31,0,0,1,3.31,3.31V419.18a0,0,0,0,1,0,0H292.47a0,0,0,0,1,0,0V133.53A3.31,3.31,0,0,1,295.78,130.22Z" style="fill:#fff;opacity:0.4;isolation:isolate"/>
		<path d="M315,147.19a5.72,5.72,0,1,1-5.72-5.71A5.72,5.72,0,0,1,315,147.19Z" style="fill:#fff;opacity:0.8"/>
		<circle cx="309.29" cy="147.19" r="4.07" style="fill:#fff;opacity:0.8"/>
		<rect x="319.18" y="144.74" width="2.43" height="2.43" style="fill:#fff"/>
		<rect x="323.57" y="144.74" width="2.43" height="2.43" style="fill:#fff"/>
		<rect x="327.96" y="144.74" width="2.43" height="2.43" style="fill:#fff"/>
		<rect x="332.35" y="144.74" width="2.43" height="2.43" style="fill:#fff"/>
		<rect x="319.18" y="148.74" width="2.43" height="2.43" style="fill:#fff"/>
		<rect x="323.57" y="148.74" width="2.43" height="2.43" style="fill:#fff"/>
		<rect x="327.96" y="148.74" width="2.43" height="2.43" style="fill:#fff"/>
		<rect x="332.35" y="148.74" width="2.43" height="2.43" style="fill:#fff"/>
		<rect x="303.58" y="161.29" width="10.81" height="17.8" rx="1.45" style="opacity:0.2;isolation:isolate"/>
		<path d="M320.47,179.09h0a1.22,1.22,0,0,1-1.22-1.22V162.5a1.22,1.22,0,0,1,1.22-1.21h0a1.21,1.21,0,0,1,1.21,1.21v15.37A1.22,1.22,0,0,1,320.47,179.09Z" style="opacity:0.2;isolation:isolate"/>
		<circle cx="320.47" cy="166.12" r="0.81" style="fill:#fff"/>
		<path d="M324.78,179.09h0a1.22,1.22,0,0,1-1.21-1.22V162.5a1.21,1.21,0,0,1,1.21-1.21h0A1.22,1.22,0,0,1,326,162.5v15.37A1.22,1.22,0,0,1,324.78,179.09Z" style="opacity:0.2;isolation:isolate"/>
		<circle cx="324.78" cy="176.12" r="0.81" style="fill:#fff"/>
		<path d="M329.1,179.09h0a1.22,1.22,0,0,1-1.22-1.22V162.5a1.22,1.22,0,0,1,1.22-1.21h0a1.21,1.21,0,0,1,1.21,1.21v15.37A1.22,1.22,0,0,1,329.1,179.09Z" style="opacity:0.2;isolation:isolate"/>
		<circle cx="329.1" cy="169.12" r="0.81" style="fill:#fff"/>
		<path d="M333.41,179.09h0a1.22,1.22,0,0,1-1.21-1.22V162.5a1.21,1.21,0,0,1,1.21-1.21h0a1.22,1.22,0,0,1,1.22,1.21v15.37A1.22,1.22,0,0,1,333.41,179.09Z" style="opacity:0.2;isolation:isolate"/>
		<circle cx="333.41" cy="166.12" r="0.81" style="fill:#fff"/>
		<rect x="303.58" y="189.77" width="22.01" height="14.37" style="fill:#fff;opacity:0.30000000000000004;isolation:isolate"/>
		<path d="M332.2,191.72a2,2,0,1,1-2-1.95A2,2,0,0,1,332.2,191.72Z" style="fill:#fff;opacity:0.30000000000000004;isolation:isolate"/>
		<path d="M346.52,105.67a5.44,5.44,0,0,0-10.88,0,2.6,2.6,0,0,0-1.48-.47,2.55,2.55,0,0,0-.69,5,4.48,4.48,0,0,0-.54,2.09,4.55,4.55,0,1,0,8.91-1.23A5.44,5.44,0,0,0,346.52,105.67Z" style="fill:#7E57C2"/>
		<path d="M346.52,105.67a5.44,5.44,0,0,0-10.88,0,2.6,2.6,0,0,0-1.48-.47,2.55,2.55,0,0,0-.69,5,4.48,4.48,0,0,0-.54,2.09,4.55,4.55,0,1,0,8.91-1.23A5.44,5.44,0,0,0,346.52,105.67Z" style="fill:#fff;opacity:0.8"/>
		<path d="M319.17,403.52h0a17.4,17.4,0,0,1-17.4-17.41v-117a17.4,17.4,0,0,1,17.4-17.4h0a17.4,17.4,0,0,1,17.41,17.4v117A17.4,17.4,0,0,1,319.17,403.52Z" style="opacity:0.2;isolation:isolate"/>
		<polygon points="415.37 419.18 353.07 419.18 353.07 353.78 415.37 419.18" style="opacity:0.2;isolation:isolate"/>
		<rect x="223.07" y="290.17" width="62.3" height="129.02" style="opacity:0.2;isolation:isolate"/>
		<polygon points="292.47 290.17 292.47 419.18 345.88 419.18 345.88 346.23 292.47 290.17" style="opacity:0.2;isolation:isolate"/>
	</g>
	<g id="freepik--Table--inject-220">
		<path d="M222.28,288.4H198v-.93h5.48a1.56,1.56,0,0,0,1.53-1.3l2.45-14.58.48-2.87h8.31l7.42,17.52A1.55,1.55,0,0,1,222.28,288.4Z" style="fill:#7E57C2"/>
		<path d="M222.28,288.4H198v-.93h5.48a1.56,1.56,0,0,0,1.53-1.3l2.45-14.58.48-2.87h8.31l7.42,17.52A1.55,1.55,0,0,1,222.28,288.4Z" style="fill:#fff;opacity:0.4;isolation:isolate"/>
		<path d="M222.31,287.47H203.52a1.56,1.56,0,0,0,1.53-1.3l2.45-14.58h8.7l6.62,15.11A.55.55,0,0,1,222.31,287.47Z" style="opacity:0.2;isolation:isolate"/>
		<path d="M235.32,274.09H186.83a.71.71,0,0,1-.71-.88L193,236.78a1.11,1.11,0,0,1,1-.87h48.49a.7.7,0,0,1,.71.87l-6.89,36.43A1.11,1.11,0,0,1,235.32,274.09Z" style="fill:#7E57C2"/>
		<path d="M235.32,274.09H186.83a.71.71,0,0,1-.71-.88L193,236.78a1.11,1.11,0,0,1,1-.87h48.49a.7.7,0,0,1,.71.87l-6.89,36.43A1.11,1.11,0,0,1,235.32,274.09Z" style="fill:#fff;opacity:0.4;isolation:isolate"/>
		<path d="M234.32,274.09H185.83a.71.71,0,0,1-.71-.88L192,236.78a1.11,1.11,0,0,1,1-.87h48.49a.7.7,0,0,1,.71.87l-6.89,36.43A1.11,1.11,0,0,1,234.32,274.09Z" style="fill:#263238"/>
		<polygon points="233.67 271.86 187.32 271.86 193.69 238.14 240.05 238.14 233.67 271.86" style="fill:#7E57C2"/>
		<path d="M225.36,262.21h-28a2.4,2.4,0,0,0-2.23,1.64,1.28,1.28,0,0,0,1.38,1.64h28a2.39,2.39,0,0,0,2.24-1.64A1.29,1.29,0,0,0,225.36,262.21Z" style="fill:#fff;opacity:0.4;isolation:isolate"/>
		<path d="M196.63,265a.93.93,0,0,1-1-1.19,1.72,1.72,0,0,1,1.61-1.18h20a.93.93,0,0,1,1,1.18,1.73,1.73,0,0,1-1.62,1.19Z" style="fill:#fff"/>
		<path d="M210.86,243.08l-.33,1.72h-3.59l-2.73,14.12h11.68l.53-2.71H219l2.54-13.13Zm4.22,14.85H205.4l2.35-12.14h2.59l-2,10.42h7.1Zm2.29-8.16h-2l-.38,2a.64.64,0,0,1-.6.5.39.39,0,0,1-.4-.5l.38-2h-2a.39.39,0,0,1-.4-.5.63.63,0,0,1,.59-.49h2l.39-2a.64.64,0,0,1,.6-.49.39.39,0,0,1,.4.49l-.39,2h2a.4.4,0,0,1,.4.49A.63.63,0,0,1,217.37,249.77Z" style="fill:#fff;opacity:0.4;isolation:isolate"/>
		<path d="M152.87,288.4v-1.13l18.67-3.78H208a2.45,2.45,0,0,1,2.45,2.46h0A2.45,2.45,0,0,1,208,288.4Z" style="fill:#7E57C2"/>
		<path d="M210.49,286a2.45,2.45,0,0,1-.71,1.73,2.48,2.48,0,0,1-1.74.72H152.87v-1.13l18.67-3.78H208A2.45,2.45,0,0,1,210.49,286Z" style="fill:#fff;opacity:0.4;isolation:isolate"/>
		<path d="M210.49,286a2.45,2.45,0,0,1-.71,1.73,2.48,2.48,0,0,1-1.74.72H185.87v-1.13l18.67-3.78H208A2.45,2.45,0,0,1,210.49,286Z" style="fill:#fff;opacity:0.4;isolation:isolate"/>
		<polygon points="223.84 419.18 228.83 419.18 237.8 294.24 231.18 294.24 223.84 419.18" style="fill:#263238"/>
		<polygon points="223.83 419.18 228.83 419.18 237.37 300.45 237.81 294.44 231.18 294.44 230.82 300.45 223.83 419.18" style="fill:#fff;opacity:0.1;isolation:isolate"/>
		<polygon points="230.82 300.15 237.37 300.15 237.81 294.44 231.18 294.44 230.82 300.15" style="opacity:0.2;isolation:isolate"/>
		<polygon points="187.18 419.18 192.18 419.18 192.99 294.24 186.36 294.24 187.18 419.18" style="fill:#263238"/>
		<polygon points="186.36 294.44 186.49 314.6 187.18 419.18 192.17 419.18 192.86 314.6 192.99 294.44 186.36 294.44" style="fill:#fff;opacity:0.1;isolation:isolate"/>
		<polygon points="186.36 294.44 186.49 314.83 192.86 314.83 192.99 294.44 186.36 294.44" style="opacity:0.2;isolation:isolate"/>
		<polygon points="134.15 419.18 139.15 419.18 148.12 294.24 141.5 294.24 134.15 419.18" style="fill:#263238"/>
		<polygon points="134.15 419.18 139.15 419.18 147.68 300.45 148.12 294.44 141.5 294.44 141.14 300.45 134.15 419.18" style="fill:#fff;opacity:0.1;isolation:isolate"/>
		<polygon points="141.14 300.15 147.68 300.15 148.12 294.44 141.5 294.44 141.14 300.15" style="opacity:0.2;isolation:isolate"/>
		<polygon points="280.97 419.18 285.97 419.18 278.63 294.24 272 294.24 280.97 419.18" style="fill:#263238"/>
		<polygon points="272 294.44 272.44 300.45 280.98 419.18 285.97 419.18 278.99 300.45 278.63 294.44 272 294.44" style="fill:#fff;opacity:0.1;isolation:isolate"/>
		<polygon points="278.63 294.44 272 294.44 272.44 300.15 278.99 300.15 278.63 294.44" style="opacity:0.2;isolation:isolate"/>
		<path d="M138.4,291.11H281.72a2.16,2.16,0,0,1,2.16,2.16v4.1a0,0,0,0,1,0,0H136.24a0,0,0,0,1,0,0v-4.1A2.16,2.16,0,0,1,138.4,291.11Z" transform="translate(420.12 588.48) rotate(180)" style="fill:#7E57C2"/>
		<path d="M138.4,291.11H281.72a2.16,2.16,0,0,1,2.16,2.16v4.1a0,0,0,0,1,0,0H136.24a0,0,0,0,1,0,0v-4.1A2.16,2.16,0,0,1,138.4,291.11Z" transform="translate(420.12 588.48) rotate(180)" style="fill:#fff;opacity:0.4;isolation:isolate"/>
		<rect x="136.24" y="291.11" width="147.64" height="3.13" transform="translate(420.12 585.35) rotate(180)" style="opacity:0.2;isolation:isolate"/>
		<path d="M133.15,291.93H287a1.76,1.76,0,0,0,1.77-1.76h0A1.77,1.77,0,0,0,287,288.4H133.15a1.77,1.77,0,0,0-1.77,1.77h0A1.76,1.76,0,0,0,133.15,291.93Z" style="fill:#7E57C2"/>
		<path d="M133.15,291.93H287a1.76,1.76,0,0,0,1.77-1.76h0A1.77,1.77,0,0,0,287,288.4H133.15a1.77,1.77,0,0,0-1.77,1.77h0A1.76,1.76,0,0,0,133.15,291.93Z" style="fill:#fff;opacity:0.4;isolation:isolate"/>
	</g>
	<g id="freepik--Character--inject-220">
		<g id="freepik--group--inject-220">
			<path d="M144.82,281.88l7,1a26.54,26.54,0,0,1,4.88-1,31.82,31.82,0,0,1,5.41,0s3.16,1.18,3.16,4.22c0,0-7.38,2-10.22.79l-10.22-.79Z" style="fill:#ebb376"/>
			<path d="M128.24,255.22c4.35,4.5,7.31,21.91,8.1,23.1s15.83,3.36,15.83,3.36,1.58,3.28,0,6c0,0-18.63-.85-20.89-2s-7.8-14.18-7.8-14.18a26.3,26.3,0,0,1,.73-9C125.47,257,128.24,255.22,128.24,255.22Z" style="fill:#7E57C2"/>
			<path d="M128.24,255.22c4.35,4.5,7.31,21.91,8.1,23.1s15.83,3.36,15.83,3.36,1.58,3.28,0,6c0,0-18.63-.85-20.89-2s-7.8-14.18-7.8-14.18a26.3,26.3,0,0,1,.73-9C125.47,257,128.24,255.22,128.24,255.22Z" style="fill:#fff;opacity:0.6000000000000001"/>
			<path d="M169.24,282.6l7,1a27.3,27.3,0,0,1,4.88-1,33,33,0,0,1,5.41,0s3.17,1.19,3.17,4.22c0,0-7.39,2-10.22.8l-10.22-.8Z" style="fill:#ebb376"/>
			<rect x="151.69" y="229.46" width="4" height="4" rx="0.68" transform="translate(307.39 462.93) rotate(180)" style="fill:none;stroke:#263238;stroke-miterlimit:10;stroke-width:0.5px"/>
			<path d="M152.62,240.29a7.63,7.63,0,0,1-.47,1,9.88,9.88,0,0,1-4.26,4.07,9.67,9.67,0,0,1-1.41.57,9,9,0,0,1-7.69-.93,9.11,9.11,0,0,1-2.58-2.5c-2.94-4.16-2.16-8.26-1.39-15.3a9.69,9.69,0,0,1,14.78-7.34C156,223.74,155.18,234.27,152.62,240.29Z" style="fill:#ebb376"/>
			<path d="M147.89,245.31a9.67,9.67,0,0,1-1.41.57,9,9,0,0,1-7.69-.93,10.64,10.64,0,0,1,1.64-2.16A13.92,13.92,0,0,1,147.89,245.31Z" style="opacity:0.2;isolation:isolate"/>
			<path d="M128.42,251.75c2.92,3.69,15.46,4.2,15.46,4.2s5.49-.56,4.66-2.38c-3-1-4.27-2.72-4.58-4.67a9.06,9.06,0,0,1,.28-3.59,19.38,19.38,0,0,1,.58-1.93l-9.12-9.44C138.79,245,132.4,248.62,128.42,251.75Z" style="fill:#ebb376"/>
			<path d="M152.8,219.14c-2.65-3.49-4.68-2.67-4.68-2.67-1.76-3-10.56-2.36-14.77,1s-5.3,9.24-4.63,13.73c1,6.55,5.65,12.91,5.65,12.91h0c5.31,1,9.57-.54,9.68-3.32s2.71-5,2.71-5c2.63.65,4.71-2.39,4.71-2.39s2.69-2.8,1.62-6.28S155,222.09,152.8,219.14Z" style="fill:#263238"/>
			<path d="M145.7,234.05a4.55,4.55,0,0,0,1.8,3.48c1.32.84,2.59-1,2.73-3.13.11-1.89-.41-4.67-2-4.58S145.51,232.09,145.7,234.05Z" style="fill:#ebb376"/>
			<path d="M150.24,233.78s-.21,6-1.62,8.54-1.15,3.3-3.32,3.86c0,0,1.38,1.55,2.47,1.22s.77-1.26,1.76-1.32,2.63-.89,2.37-1.9-.48-1.27.75-2.26,1.53-3,.75-3.78a2.36,2.36,0,0,0-2.09-.4l-.27-4.45Z" style="fill:#263238"/>
			<path d="M148.29,254.34s-2.11-9.48-14.83-9.39l-3.24,4.69Z" style="fill:#7E57C2"/>
			<path d="M148.29,254.34s-2.11-9.48-14.83-9.39l-3.24,4.69Z" style="fill:#fff;opacity:0.8"/>
			<polygon points="125.91 411.88 133.22 412.01 136.86 395.15 129.56 395.03 125.91 411.88" style="fill:#ebb376"/>
			<polygon points="129.56 395.03 136.86 395.16 134.78 404.8 127.54 404.31 129.56 395.03" style="opacity:0.2;isolation:isolate"/>
			<path d="M149.4,370.62a229.32,229.32,0,0,1-10.65,31.43l-13.34-1s5.47-21.38,7.46-41C134.09,348,134,338,130.45,337.23c-2.23-.49-7.44-.47-14.11-.32V312c18.73,3.84,37.36,11.1,38.78,16.92C157.1,337.15,153.64,354.49,149.4,370.62Z" style="fill:#7E57C2"/>
			<polygon points="124 401.66 139.88 402.71 142.21 395.85 124.72 395.03 124 401.66" style="fill:#7E57C2"/>
			<polygon points="124 401.66 139.88 402.71 142.21 395.85 124.72 395.03 124 401.66" style="fill:#fff;opacity:0.2"/>
			<path d="M134.32,411.64l.15,0s.16,0,.18.07l0,0a.06.06,0,0,0,.06,0,8.84,8.84,0,0,0,1.91.37,2,2,0,0,0,1.39-.27.9.9,0,0,0,.26-.93.63.63,0,0,0-.36-.51,3,3,0,0,0-2,.37,2.58,2.58,0,0,0,.72-1.67.69.69,0,0,0-.62-.55,1.07,1.07,0,0,0-.81.19c-.76.66-.88,2.72-.88,2.85Zm.78-.42-.15.09a3.7,3.7,0,0,1,.62-2.24.5.5,0,0,1,.37-.13H136c.24,0,.3.17.31.27A3.45,3.45,0,0,1,135.1,411.22Zm.1.36c.89-.48,2.14-1,2.6-.8a.31.31,0,0,1,.18.25.66.66,0,0,1-.16.6C137.45,411.94,136.49,411.92,135.2,411.58Z" style="fill:#7E57C2"/>
			<path d="M134.14,410.75l-8.18-.51a.52.52,0,0,0-.57.46h0l-.81,6.46a1.29,1.29,0,0,0,1.2,1.36c2.85.13,4.22.06,7.83.25a68.76,68.76,0,0,0,9.61.31c3.05-.3,2.68-3.3,1.36-3.45-3.12-.35-7.26-2.65-9.21-4.39A2.07,2.07,0,0,0,134.14,410.75Z" style="fill:#263238"/>
			<path d="M149.4,370.62c-5-3.16-10.81-6.87-16.53-10.53C134.09,348,134,338,130.45,337.23c-2.23-.49-7.44-.47-14.11-.32V312c18.73,3.84,37.36,11.1,38.78,16.92C157.1,337.15,153.64,354.49,149.4,370.62Z" style="opacity:0.2;isolation:isolate"/>
			<path d="M142.37,304.63l2.31-11.41a130.79,130.79,0,0,1,8-37.27s-10.92-8.28-22.41-8.14c-9.2.1-20.69,26.22-27,53.68Z" style="fill:#7E57C2"/>
			<path d="M142.37,304.63l2.31-11.41a130.79,130.79,0,0,1,8-37.27s-10.92-8.28-22.41-8.14c-9.2.1-20.69,26.22-27,53.68Z" style="fill:#fff;opacity:0.9"/>
			<path d="M152.65,256c4.35,4.5,7.32,21.91,8.11,23.09s15.82,3.37,15.82,3.37,1.58,3.28,0,6c0,0-18.63-.85-20.88-2s-7.81-14.18-7.81-14.18a26.63,26.63,0,0,1,.73-9C149.88,257.68,152.65,256,152.65,256Z" style="fill:#7E57C2"/>
			<path d="M152.65,256c4.35,4.5,7.32,21.91,8.11,23.09s15.82,3.37,15.82,3.37,1.58,3.28,0,6c0,0-18.63-.85-20.88-2s-7.81-14.18-7.81-14.18a26.63,26.63,0,0,1,.73-9C149.88,257.68,152.65,256,152.65,256Z" style="fill:#fff;opacity:0.8"/>
			<path d="M152.87,223.34s4.4-3.63-.22-8.78-8.23-4.88-8.33-4.09,2.66,1.32,2.66,2c0,0-5.14.4-6.6-.66s-5.67-.39-4.48.4-.53,1.45-2.77,1.71-6.33,4.09-5.21,5.94a4.55,4.55,0,0,1-1.51,5.93c-2,1.19-.66,3.69,0,2.37s1.51-1.32,1.51-1.32-.06,5.67,0,7.12,1.26,3.38,1.26,3.8-.8-.38.13,1.87,2.07,1.46,2.07,1.46-1.48,0,0,1.72a3.28,3.28,0,0,0,3,1.36s5.07-5.06,4.42-11.13S152.87,223.34,152.87,223.34Z" style="fill:#263238"/>
			<polygon points="168.64 411.88 175.95 412.01 179.59 395.15 172.29 395.03 168.64 411.88" style="fill:#ebb376"/>
			<polygon points="172.29 395.03 179.59 395.16 177.51 404.8 170.27 404.31 172.29 395.03" style="opacity:0.2;isolation:isolate"/>
			<path d="M142.1,309.59l1.17-9.44-38.17-6.28s-12.48,24.73-6.37,36.85c5.6,11.12,65.26,4.5,74.45,6.51s-5,63.8-5,63.8l13.34,1s20.61-55.6,16.37-73.09C196,321.33,164.55,311.23,142.1,309.59Z" style="fill:#7E57C2"/>
			<polygon points="166.73 401.66 182.61 402.71 184.94 395.85 167.45 395.03 166.73 401.66" style="fill:#7E57C2"/>
			<polygon points="166.73 401.66 182.61 402.71 184.94 395.85 167.45 395.03 166.73 401.66" style="fill:#fff;opacity:0.2"/>
			<path d="M177.05,411.64l.15,0s.16,0,.18.07,0,0,0,0a.09.09,0,0,0,.07,0,8.64,8.64,0,0,0,1.9.37,1.94,1.94,0,0,0,1.39-.27A.9.9,0,0,0,181,411a.63.63,0,0,0-.36-.51,3,3,0,0,0-2,.37,2.58,2.58,0,0,0,.72-1.67.69.69,0,0,0-.62-.55,1.07,1.07,0,0,0-.81.19c-.76.66-.88,2.72-.88,2.85Zm.78-.42-.15.09a3.7,3.7,0,0,1,.62-2.24.5.5,0,0,1,.37-.13h.08c.24,0,.3.17.31.27A3.45,3.45,0,0,1,177.83,411.22Zm.11.36c.88-.48,2.13-1,2.59-.8a.31.31,0,0,1,.18.25.66.66,0,0,1-.16.6C180.18,411.94,179.22,411.92,177.94,411.58Z" style="fill:#7E57C2"/>
			<path d="M176.87,410.75l-8.18-.51a.52.52,0,0,0-.57.46h0l-.81,6.46a1.29,1.29,0,0,0,1.2,1.36c2.85.13,4.23.06,7.83.25a68.76,68.76,0,0,0,9.61.31c3.05-.3,2.68-3.3,1.36-3.45-3.12-.35-7.26-2.65-9.21-4.39A2.07,2.07,0,0,0,176.87,410.75Z" style="fill:#263238"/>
			<polygon points="103.7 298.17 121.39 300.48 121.96 297.88 104.24 295.3 103.7 298.17"/>
			<polygon points="123.43 297.89 123.22 300.48 139.56 302.73 139.56 300.17 123.43 297.89"/>
			<polygon points="140.58 300.31 140.58 302.73 142.95 303.05 142.95 300.71 140.58 300.31"/>
		</g>
		<path d="M88.6,329.29h72.25a7.91,7.91,0,0,1,7.91,7.91v4.23a0,0,0,0,1,0,0H80.69a0,0,0,0,1,0,0V337.2A7.91,7.91,0,0,1,88.6,329.29Z" style="fill:#7E57C2"/>
		<path d="M112.1,299.22h48.49a3.87,3.87,0,0,1,3.77,4.75l-8.66,37.46h-2l7.39-32.83a3.88,3.88,0,0,0-3.78-4.73H113.09Z" style="fill:#263238"/>
		<path d="M130.45,342.74v31.65a1.84,1.84,0,0,1-1.84,1.84h-7.76a1.84,1.84,0,0,1-1.84-1.84V342.74Z" style="fill:#263238"/>
		<path d="M87.62,415.82a3.37,3.37,0,1,0-3.37,3.36A3.36,3.36,0,0,0,87.62,415.82Z" style="fill:#263238"/>
		<path d="M85.93,415.82a1.68,1.68,0,1,0-1.68,1.68A1.68,1.68,0,0,0,85.93,415.82Z" style="fill:#fff;opacity:0.2"/>
		<path d="M168.56,415.82a3.36,3.36,0,1,0-3.36,3.36A3.35,3.35,0,0,0,168.56,415.82Z" style="fill:#263238"/>
		<circle cx="165.2" cy="415.82" r="1.68" style="fill:#fff;opacity:0.2"/>
		<path d="M127.51,401.07V364.89h-5.57v36.18c-21.66.55-34.82,8.13-37.46,9.79a1,1,0,0,0-.49.89v3a1.07,1.07,0,0,0,1.06,1.06h0a1.05,1.05,0,0,0,.93-.54L87.26,413a121.92,121.92,0,0,1,34.68-5.74v5.94a1.38,1.38,0,0,0,1.38,1.38h2.81a1.38,1.38,0,0,0,1.38-1.38v-5.94A121.92,121.92,0,0,1,162.19,413l1.29,2.25a1,1,0,0,0,.92.54h0a1.06,1.06,0,0,0,1.06-1.06v-3a1,1,0,0,0-.49-.89C162.34,409.2,149.17,401.62,127.51,401.07Z" style="fill:#263238"/>
		<rect x="122.9" y="412.46" width="3.65" height="6.73" style="fill:#263238"/>
		<rect x="119.01" y="342.74" width="11.44" height="13.15" style="opacity:0.2;isolation:isolate"/>
		<path d="M171.17,339.48v3.78a1.93,1.93,0,0,1-1.94,1.93h-89a1.92,1.92,0,0,1-1.93-1.93v-3.78a1.93,1.93,0,0,1,1.93-1.93h89A1.94,1.94,0,0,1,171.17,339.48Z" style="fill:#263238"/>
		<path d="M130.22,341.43H78.29S61.79,314,61.79,268.65V252a12.4,12.4,0,0,1,12.4-12.39h22a12.39,12.39,0,0,1,12.39,12C109.24,275,112.68,325.6,130.22,341.43Z" style="fill:#263238"/>
		<path d="M118.8,341.43H80.64a3.94,3.94,0,0,1-3.51-2.12c-3.76-7.25-15.34-32.67-15.34-70.66V252a12.39,12.39,0,0,1,12.39-12.39h19a12.39,12.39,0,0,1,12.39,12c.57,20.87,3.38,63.47,16.48,83.61A4,4,0,0,1,118.8,341.43Z" style="fill:#fff;opacity:0.2"/>
		<path d="M171.17,339.48v3.78a1.92,1.92,0,0,1-1.93,1.93H129.35a2.61,2.61,0,0,1-2.61-2.61v-2.42a2.61,2.61,0,0,1,2.61-2.61h39.88A1.94,1.94,0,0,1,171.17,339.48Z" style="opacity:0.2;isolation:isolate"/>
	</g>
</svg>